<svg width="16" height="16" viewBox="0 0 16 16" fill="none" xmlns="http://www.w3.org/2000/svg">
<path d="M4.39788 15.6761L4.03244 15.3106C3.53125 15.7178 2.9361 15.9475 2.25741 15.9998L2.18432 15.1958C2.70639 15.154 3.14493 15.0183 3.48949 14.7677L2.51845 13.7966C2.04859 14.0786 1.65182 14.2456 1.32814 14.2665C1.00445 14.2978 0.701656 14.1621 0.409299 13.8802C0.116942 13.5878 -0.0187944 13.2537 0.00208827 12.8674C0.0229709 12.481 0.17959 12.1156 0.49283 11.7815L0.242238 11.5309L0.56592 11.2072L0.816511 11.4578C1.21328 11.1132 1.68314 10.8939 2.23653 10.7895L2.37227 11.5726C1.99638 11.6353 1.66226 11.7815 1.3699 12.0007L2.30962 12.9404L2.32006 12.93C2.78992 12.6376 3.19713 12.4706 3.53125 12.4497C3.86538 12.4184 4.17862 12.5541 4.47097 12.8465C4.76333 13.1388 4.89907 13.4834 4.87819 13.8697C4.8573 14.2561 4.6798 14.6319 4.35612 14.9869L4.72157 15.3524L4.39788 15.6761ZM0.816511 12.7943C0.80607 12.9509 0.858276 13.0866 0.973131 13.2015C1.08799 13.3163 1.20284 13.3685 1.33858 13.3685C1.47431 13.3685 1.66226 13.3059 1.91285 13.1806L1.04622 12.314C0.900042 12.4706 0.826952 12.6376 0.816511 12.7943ZM4.06376 13.9428C4.08464 13.7758 4.03244 13.6296 3.91758 13.5147C3.80273 13.3999 3.66699 13.3372 3.53125 13.3477C3.38508 13.3477 3.18669 13.4207 2.92566 13.5669L3.82361 14.4649C3.96979 14.2874 4.05332 14.1099 4.06376 13.9428Z" fill="#002A55"/>
<path d="M5.59885 9.48443C5.55708 9.24428 5.47355 9.05634 5.33781 8.9206C5.20208 8.78487 5.02457 8.71178 4.81575 8.72222C4.60692 8.73266 4.42942 8.81619 4.26236 8.98325C3.97 9.27561 3.88647 9.65149 3.99088 10.1422L3.23911 10.3406C3.16602 9.95429 3.15558 9.60973 3.22867 9.30693C3.30176 9.00413 3.47926 8.71178 3.77161 8.41942C4.06397 8.12706 4.40853 7.96 4.81575 7.92868C5.22296 7.89735 5.58841 8.03309 5.90164 8.35677C6.07915 8.53427 6.20444 8.75354 6.27753 9.01457C6.35062 9.27561 6.38194 9.6515 6.39239 10.1631L6.40283 11.8233L7.98991 10.2362L8.55374 10.8L6.16268 13.1911L5.66149 12.6899V10.5599C5.66149 10.0796 5.64061 9.72459 5.59885 9.48443Z" fill="#002A55"/>
<path d="M9.34696 9.87056C9.20078 9.87056 9.07549 9.81835 8.97108 9.71394C8.86666 9.60952 8.81445 9.48423 8.81445 9.34849C8.81445 9.20231 8.86666 9.07702 8.97108 8.9726C9.07549 8.86819 9.20078 8.81598 9.34696 8.81598C9.49314 8.81598 9.61844 8.86819 9.72285 8.9726C9.82726 9.07702 9.87947 9.20231 9.87947 9.34849C9.87947 9.49467 9.82726 9.61996 9.72285 9.72438C9.61844 9.81835 9.49314 9.87056 9.34696 9.87056Z" fill="#002A55"/>
<path d="M11.3726 6.99911C11.6859 6.68587 11.8112 6.35175 11.7485 5.99674C11.6859 5.64174 11.4771 5.27629 11.1221 4.92128C11.1325 5.09879 11.1012 5.30761 11.0281 5.54776C10.955 5.78791 10.8193 5.99674 10.6313 6.19513C10.3181 6.50837 9.95263 6.66499 9.52453 6.67543C9.10688 6.67543 8.72055 6.50837 8.37599 6.1638C8.03143 5.81924 7.86436 5.42247 7.88525 4.98393C7.90613 4.5454 8.08363 4.14863 8.43864 3.80406C9.00247 3.24023 9.63939 3.1045 10.3494 3.39685C10.7566 3.56391 11.1429 3.82495 11.4979 4.19039C11.8634 4.5454 12.1244 4.88996 12.281 5.2032C12.4481 5.51644 12.5316 5.81924 12.5316 6.09071C12.5421 6.62322 12.3646 7.08264 11.9887 7.45853C11.6128 7.83441 11.1429 8.06412 10.6 8.13721L10.4643 7.40632C10.6104 7.39588 10.7671 7.35411 10.955 7.28102C11.1325 7.18705 11.2682 7.10352 11.3726 6.99911ZM10.1719 5.58953C10.3703 5.39115 10.4851 5.16144 10.506 4.91084C10.5269 4.66025 10.4538 4.45143 10.2763 4.27392C10.0988 4.09642 9.87954 4.00245 9.61851 4.01289C9.35747 4.01289 9.12776 4.10686 8.93982 4.30525C8.74143 4.50363 8.63702 4.7229 8.62658 4.96305C8.61614 5.2032 8.69967 5.41203 8.87717 5.59997C9.05467 5.77747 9.2635 5.87144 9.50365 5.88189C9.75424 5.89233 9.97351 5.79836 10.1719 5.58953Z" fill="#002A55"/>
<path d="M14.6198 3.752C14.933 3.43876 15.0583 3.10464 14.9956 2.74963C14.933 2.39463 14.7242 2.02918 14.3692 1.67418C14.3796 1.85168 14.3483 2.06051 14.2752 2.30066C14.2021 2.54081 14.0664 2.74963 13.8784 2.94802C13.5652 3.26126 13.1997 3.41788 12.7716 3.42832C12.354 3.42832 11.9677 3.26126 11.6231 2.91669C11.2785 2.57213 11.1115 2.17536 11.1324 1.73683C11.1532 1.29829 11.3307 0.901519 11.6857 0.556956C12.2496 -0.00687574 12.8865 -0.142613 13.5965 0.149744C14.0037 0.316805 14.39 0.577838 14.7451 0.943284C15.1105 1.29829 15.3715 1.64285 15.5281 1.95609C15.6952 2.26933 15.7787 2.57213 15.7787 2.84361C15.7892 3.37611 15.6117 3.83553 15.2358 4.21142C14.8599 4.58731 14.39 4.81702 13.8471 4.8901L13.7114 4.15921C13.8575 4.14877 14.0142 4.10701 14.2021 4.03392C14.3796 3.93994 14.5258 3.85641 14.6198 3.752ZM13.4294 2.34242C13.6278 2.14404 13.7427 1.91433 13.7636 1.66374C13.7845 1.41314 13.7114 1.20432 13.5339 1.02681C13.3564 0.849312 13.1371 0.755341 12.8761 0.765782C12.615 0.765782 12.3853 0.870196 12.1974 1.05814C11.999 1.25652 11.8946 1.47579 11.8841 1.71594C11.8737 1.95609 11.9572 2.16492 12.1347 2.35286C12.3122 2.53037 12.521 2.62434 12.7612 2.63478C13.0014 2.64522 13.2311 2.54081 13.4294 2.34242Z" fill="#002A55"/>
</svg>
