<svg width="25" height="23" viewBox="0 0 25 23" fill="none" xmlns="http://www.w3.org/2000/svg">
<path d="M0 18.3524C0 13.7655 0 9.17858 0 4.59298C0.0973909 4.44518 0.0832949 4.26911 0.120457 4.10717C0.685581 1.66528 2.75514 0.00737228 5.27705 0.00351667C10.0928 -0.00290935 14.9098 0.000946261 19.7255 0.00351667C19.9856 0.00351667 20.2471 0.0176539 20.5034 0.05621C23.1419 0.457193 24.9949 2.61891 24.9974 5.30113C25 9.4292 24.9974 13.5586 25 17.6866C25 17.9809 24.9846 18.2753 24.9372 18.5644C24.5182 21.131 22.3884 22.9778 19.7793 22.9868C14.9226 23.0022 10.0659 23.0035 5.20913 22.9868C2.72695 22.9778 0.6843 21.3045 0.12302 18.8896C0.0794505 18.7109 0.0909837 18.5194 0 18.3524ZM2.17079 6.82538C2.1426 6.84208 2.11569 6.85879 2.0875 6.8755C2.0875 6.94619 2.0875 7.01816 2.0875 7.08884C2.0875 10.6219 2.08494 14.1549 2.08878 17.6879C2.09134 19.5437 3.44841 20.8971 5.29756 20.8971C10.0979 20.8984 14.8983 20.8984 19.6973 20.8971C21.5465 20.8971 22.9061 19.5437 22.9087 17.6892C22.9138 14.1562 22.9099 10.6232 22.9087 7.09013C22.9087 7.01559 22.942 6.92948 22.8279 6.82152C22.7677 6.90249 22.719 6.9886 22.6511 7.05671C20.529 9.1863 18.4069 11.3159 16.2822 13.4429C14.105 15.6213 10.8886 15.62 8.71649 13.4429C6.59311 11.3146 4.46973 9.1863 2.34763 7.05671C2.27844 6.98988 2.22974 6.90249 2.17079 6.82538ZM12.5006 2.09454C10.0761 2.09454 7.65288 2.08169 5.22836 2.09968C3.95459 2.10868 3.01784 2.7153 2.41043 3.83856C2.32201 4.00178 2.34507 4.10332 2.47834 4.23698C5.06561 6.82281 7.64519 9.41635 10.2299 12.0047C11.5357 13.3118 13.4605 13.3144 14.765 12.0086C17.351 9.42149 19.9293 6.82666 22.5178 4.24212C22.6626 4.09689 22.6677 3.98893 22.5768 3.82314C21.9642 2.70116 21.0236 2.10739 19.7499 2.10097C17.333 2.08555 14.9175 2.09454 12.5006 2.09454Z" fill="black"/>
</svg>
