<svg width="16" height="16" viewBox="0 0 16 16" fill="none" xmlns="http://www.w3.org/2000/svg">
<path d="M4.37502 15.6778L4.01148 15.3142C3.5129 15.7193 2.92084 15.9478 2.24568 15.9998L2.17297 15.2C2.69232 15.1584 3.12858 15.0234 3.47135 14.7741L2.50536 13.8081C2.03794 14.0885 1.64323 14.2547 1.32123 14.2755C0.999234 14.3067 0.69801 14.1716 0.407172 13.8912C0.116335 13.6004 -0.0186967 13.268 0.0020774 12.8836C0.0228515 12.4993 0.178657 12.1358 0.490269 11.8034L0.24098 11.5541L0.562979 11.2321L0.812267 11.4814C1.20697 11.1386 1.67439 10.9205 2.2249 10.8166L2.35994 11.5957C1.986 11.658 1.65362 11.8034 1.35239 12.0215L2.28723 12.9564L2.29761 12.946C2.76503 12.6551 3.17013 12.4889 3.50251 12.4682C3.8349 12.437 4.14651 12.572 4.43734 12.8629C4.72818 13.1537 4.86321 13.4965 4.84244 13.8808C4.82166 14.2651 4.64508 14.6391 4.32309 15.0026L4.69702 15.3661L4.37502 15.6778ZM0.812267 12.8213C0.80188 12.9771 0.853815 13.1122 0.968073 13.2264C1.08233 13.3407 1.19659 13.3926 1.33162 13.3926C1.46665 13.3926 1.65362 13.3303 1.90291 13.2056L1.04078 12.3435C0.895363 12.4993 0.822654 12.6551 0.812267 12.8213ZM4.04264 13.9535C4.06341 13.7873 4.01148 13.6419 3.89722 13.5276C3.78296 13.4134 3.64793 13.3511 3.5129 13.3614C3.36748 13.3614 3.17013 13.4445 2.91045 13.5796L3.80373 14.4729C3.94915 14.2963 4.02186 14.1197 4.04264 13.9535Z" fill="black"/>
<path d="M6.6807 11.6891C6.99231 11.3775 7.11696 11.0451 7.05464 10.692C6.99231 10.3388 6.78457 9.97527 6.43141 9.62211C6.4418 9.79869 6.41064 10.0064 6.33793 10.2453C6.26522 10.4842 6.13019 10.692 5.94322 10.8893C5.63161 11.2009 5.26806 11.3567 4.85258 11.3671C4.4371 11.3671 4.05278 11.2009 3.71001 10.8582C3.36724 10.5154 3.20104 10.1207 3.22182 9.68443C3.24259 9.24818 3.41917 8.85347 3.77233 8.5107C4.33323 7.9498 4.96684 7.81476 5.67316 8.1056C6.07825 8.27179 6.46258 8.53147 6.81573 8.89502C7.17928 9.24818 7.43896 9.59095 7.59476 9.90256C7.76096 10.2142 7.84405 10.5154 7.84405 10.7855C7.85444 11.3152 7.67786 11.7722 7.29354 12.1462C6.9196 12.5201 6.45219 12.7486 5.91206 12.8109L5.77703 12.0838C5.92245 12.0735 6.07825 12.0319 6.26522 11.9592C6.4418 11.8761 6.57683 11.7826 6.6807 11.6891ZM5.48619 10.2765C5.68355 10.0791 5.7978 9.85063 5.81858 9.60134C5.83935 9.35205 5.76664 9.14431 5.59006 8.96773C5.41348 8.79115 5.19535 8.69766 4.93568 8.70805C4.676 8.70805 4.44749 8.81192 4.26052 8.99889C4.06317 9.19624 3.9593 9.41437 3.94891 9.65327C3.93852 9.89217 4.02162 10.0999 4.1982 10.2869C4.37478 10.4635 4.58252 10.5569 4.82142 10.5673C5.07071 10.5777 5.28884 10.4842 5.48619 10.2765Z" fill="black"/>
<path d="M9.38155 9.81924C9.23613 9.81924 9.11148 9.76731 9.00761 9.66344C8.90374 9.55957 8.85181 9.43492 8.85181 9.29989C8.85181 9.15447 8.90374 9.02983 9.00761 8.92596C9.11148 8.82209 9.23613 8.77015 9.38155 8.77015C9.52697 8.77015 9.65161 8.82209 9.75548 8.92596C9.85935 9.02983 9.91129 9.15447 9.91129 9.29989C9.91129 9.44531 9.85935 9.56996 9.75548 9.67383C9.65161 9.76731 9.52697 9.81924 9.38155 9.81924Z" fill="black"/>
<path d="M11.3964 6.96272C11.7081 6.65111 11.8327 6.31873 11.76 5.96557C11.6977 5.61241 11.4899 5.24886 11.1368 4.8957C11.1472 5.07228 11.116 5.28002 11.0433 5.51892C10.9706 5.75783 10.8355 5.96557 10.6486 6.16292C10.337 6.47453 9.97341 6.63034 9.54755 6.64072C9.13206 6.64072 8.74774 6.47453 8.40497 6.13176C8.0622 5.78899 7.89601 5.39428 7.91678 4.95802C7.93755 4.52177 8.11413 4.12706 8.46729 3.78429C9.02819 3.22339 9.6618 3.08836 10.3681 3.37919C10.7732 3.54539 11.1575 3.80506 11.5107 4.16861C11.8742 4.52177 12.1339 4.86454 12.2897 5.17615C12.4559 5.48776 12.539 5.78899 12.539 6.05905C12.5494 6.58879 12.3728 7.04582 11.9885 7.41975C11.6146 7.79369 11.1472 8.0222 10.607 8.08452L10.472 7.35743C10.6174 7.34704 10.7732 7.3055 10.9602 7.23279C11.1575 7.14969 11.303 7.06659 11.3964 6.96272ZM10.2123 5.56047C10.4097 5.36312 10.5239 5.1346 10.5447 4.88531C10.5655 4.63603 10.4928 4.42828 10.3162 4.2517C10.1396 4.07512 9.92148 3.98164 9.6618 3.99203C9.40213 3.99203 9.17361 4.0959 8.98664 4.28287C8.78929 4.48022 8.68542 4.69835 8.67503 4.93725C8.66465 5.17615 8.74774 5.38389 8.92432 5.57086C9.1009 5.74744 9.30864 5.84092 9.54755 5.85131C9.78645 5.8617 10.0046 5.75783 10.2123 5.56047Z" fill="black"/>
<path d="M14.6373 3.7325C14.9489 3.42088 15.0736 3.0885 15.0009 2.73534C14.9385 2.38218 14.7308 2.01863 14.3776 1.66547C14.388 1.84205 14.3569 2.04979 14.2842 2.2887C14.2114 2.5276 14.0764 2.73534 13.8895 2.93269C13.5778 3.2443 13.2143 3.40011 12.7884 3.4105C12.3729 3.4105 11.9886 3.2443 11.6459 2.90153C11.3031 2.55876 11.1369 2.16405 11.1577 1.7278C11.1784 1.29154 11.355 0.896833 11.7082 0.55406C12.2691 -0.00683999 12.9027 -0.141872 13.609 0.148965C14.0141 0.315158 14.3984 0.574834 14.7516 0.938381C15.1151 1.30193 15.3748 1.63431 15.5306 1.94592C15.6968 2.25754 15.7799 2.55876 15.7799 2.82882C15.7903 3.35856 15.6137 3.81559 15.2294 4.18952C14.8554 4.56346 14.388 4.79197 13.8479 4.85429L13.7129 4.1272C13.8583 4.11682 14.0141 4.07527 14.2011 4.00256C14.3984 3.91946 14.5334 3.82598 14.6373 3.7325ZM13.4428 2.33024C13.6402 2.13289 13.7544 1.90438 13.7752 1.65509C13.796 1.4058 13.7233 1.19806 13.5467 1.02148C13.3701 0.844897 13.152 0.751414 12.8923 0.761801C12.6326 0.761801 12.4041 0.865672 12.2171 1.05264C12.0198 1.24999 11.9159 1.46812 11.9055 1.70702C11.8951 1.94592 11.9782 2.15366 12.1548 2.34063C12.3314 2.51721 12.5391 2.61069 12.778 2.62108C13.0273 2.62108 13.2455 2.5276 13.4428 2.33024Z" fill="black"/>
</svg>
