<svg width="88" height="103" viewBox="0 0 88 103" fill="none" xmlns="http://www.w3.org/2000/svg">
<path d="M25.0981 2.90705C24.9066 2.90705 24.7511 2.94294 24.6315 3.02668C24.5119 3.11042 24.4521 3.21809 24.4521 3.38557C24.4521 3.54108 24.5119 3.66071 24.6315 3.74445C24.7511 3.82819 25.0143 3.92389 25.4091 4.01959C25.8039 4.1153 26.1149 4.24689 26.3063 4.42634C26.5097 4.60578 26.6054 4.85699 26.6054 5.20391C26.6054 5.53887 26.4738 5.81402 26.2226 6.02935C25.9713 6.24468 25.6244 6.35235 25.2177 6.35235C24.6076 6.35235 24.0693 6.14898 23.6027 5.71832L24.0094 5.22784C24.4042 5.57477 24.8109 5.74225 25.2296 5.74225C25.445 5.74225 25.6125 5.69439 25.7321 5.61065C25.8517 5.51495 25.9235 5.39532 25.9235 5.25177C25.9235 5.09625 25.8637 4.98858 25.744 4.90484C25.6244 4.8211 25.4211 4.74933 25.1339 4.67755C24.8468 4.60578 24.6315 4.54596 24.488 4.48615C24.3444 4.42633 24.2128 4.35456 24.0932 4.25886C23.8659 4.07941 23.7463 3.81623 23.7463 3.45734C23.7463 3.09845 23.8778 2.82331 24.141 2.61994C24.4042 2.42854 24.7272 2.33284 25.11 2.33284C25.3612 2.33284 25.6005 2.36873 25.8517 2.45247C26.1029 2.53621 26.3063 2.64387 26.4857 2.79939L26.1388 3.28986C26.0192 3.1822 25.8637 3.09846 25.6723 3.03864C25.4809 2.94294 25.2895 2.90705 25.0981 2.90705Z" fill="white"/>
<path d="M29.9072 6.28056H29.333V5.88578C29.0818 6.18485 28.7588 6.32841 28.3521 6.32841C28.041 6.32841 27.7898 6.24467 27.5864 6.06523C27.3831 5.88579 27.2874 5.6585 27.2874 5.37139C27.2874 5.08428 27.395 4.85698 27.6104 4.71343C27.8257 4.56988 28.1128 4.4981 28.4837 4.4981H29.2971V4.39043C29.2971 3.99565 29.0818 3.80425 28.6392 3.80425C28.364 3.80425 28.0769 3.89995 27.7779 4.10332L27.5027 3.70855C27.8616 3.42144 28.2683 3.27789 28.7229 3.27789C29.0698 3.27789 29.3569 3.36163 29.5723 3.54107C29.7996 3.72051 29.9072 3.99566 29.9072 4.37847V6.28056ZM29.2852 5.17998V4.92876H28.5794C28.1248 4.92876 27.9094 5.07231 27.9094 5.34746C27.9094 5.49101 27.9693 5.59868 28.0769 5.68242C28.1846 5.75419 28.3401 5.80204 28.5435 5.80204C28.7468 5.80204 28.9143 5.74223 29.0698 5.63456C29.2134 5.5269 29.2852 5.37139 29.2852 5.17998Z" fill="white"/>
<path d="M31.57 4.6772V6.28021H30.9479V3.31343H31.57V3.85176C31.6537 3.67232 31.7973 3.52876 31.9767 3.42109C32.1562 3.31343 32.3476 3.26558 32.5629 3.26558C33.0294 3.26558 33.3524 3.45698 33.5199 3.85176C33.819 3.46895 34.1779 3.26558 34.6205 3.26558C34.9555 3.26558 35.2306 3.37325 35.434 3.57662C35.6374 3.77999 35.745 4.07905 35.745 4.46187V6.28021H35.1229V4.65327C35.1229 4.10298 34.8957 3.83979 34.4411 3.83979C34.2257 3.83979 34.0463 3.91158 33.8908 4.04317C33.7353 4.17476 33.6515 4.37813 33.6396 4.64131V6.29218H33.0175V4.66523C33.0175 4.37812 32.9696 4.17476 32.862 4.04317C32.7663 3.91158 32.5988 3.83979 32.3835 3.83979C32.1681 3.83979 31.9767 3.91157 31.8212 4.05512C31.6537 4.19868 31.57 4.40205 31.57 4.6772Z" fill="white"/>
<path d="M38.3526 3.27789C38.7474 3.27789 39.0943 3.42144 39.3694 3.68463C39.6566 3.95977 39.7881 4.33062 39.7881 4.7852C39.7881 5.23979 39.6446 5.61064 39.3694 5.89775C39.0943 6.18486 38.7593 6.32841 38.3885 6.32841C38.0176 6.32841 37.6827 6.16094 37.3836 5.83794V7.36918H36.7615V3.32574H37.3836V3.84014C37.6348 3.46929 37.9578 3.27789 38.3526 3.27789ZM37.3717 4.80914C37.3717 5.09624 37.4554 5.32353 37.6229 5.50297C37.7904 5.68242 38.0057 5.77812 38.2449 5.77812C38.4962 5.77812 38.6995 5.69438 38.8909 5.51494C39.0704 5.3355 39.1661 5.1082 39.1661 4.82109C39.1661 4.53398 39.0823 4.30669 38.9029 4.11529C38.7235 3.92388 38.5081 3.82818 38.2569 3.82818C38.0057 3.82818 37.8023 3.92388 37.6229 4.11529C37.4554 4.29473 37.3717 4.52203 37.3717 4.80914Z" fill="white"/>
<path d="M41.2958 6.28041H40.6737V2.14127H41.2958V6.28041Z" fill="white"/>
<path d="M45.1236 5.07218H42.8028C42.8147 5.28751 42.9104 5.46695 43.1019 5.59854C43.2813 5.73013 43.4966 5.80191 43.7239 5.80191C44.0948 5.80191 44.3819 5.68229 44.5733 5.45499L44.9322 5.84976C44.6092 6.18472 44.2024 6.34024 43.688 6.34024C43.2693 6.34024 42.9224 6.19669 42.6233 5.92154C42.3362 5.6464 42.1807 5.27555 42.1807 4.809C42.1807 4.34245 42.3243 3.9716 42.6233 3.69645C42.9224 3.42131 43.2693 3.28971 43.6761 3.28971C44.0828 3.28971 44.4178 3.40935 44.7049 3.66057C44.992 3.89982 45.1236 4.23478 45.1236 4.66544V5.07218ZM42.8028 4.5817H44.5015C44.5015 4.33048 44.4178 4.13907 44.2622 4.00748C44.1067 3.87589 43.9153 3.80411 43.688 3.80411C43.4607 3.80411 43.2574 3.87589 43.0779 4.00748C42.8985 4.163 42.8028 4.34244 42.8028 4.5817Z" fill="white"/>
<path d="M49.2269 2.99057V6.28035H48.569V2.99057H47.3847V2.39243H50.3993V2.99057H49.2269Z" fill="white"/>
<path d="M53.9644 5.07218H51.6436C51.6556 5.28751 51.7513 5.46695 51.9427 5.59854C52.1222 5.73013 52.3375 5.80191 52.5648 5.80191C52.9356 5.80191 53.2227 5.68229 53.4141 5.45499L53.773 5.84976C53.45 6.18472 53.0433 6.34024 52.5289 6.34024C52.1102 6.34024 51.7633 6.19669 51.4642 5.92154C51.1771 5.6464 51.0216 5.27555 51.0216 4.809C51.0216 4.34245 51.1651 3.9716 51.4642 3.69645C51.7633 3.42131 52.1102 3.28971 52.5169 3.28971C52.9237 3.28971 53.2586 3.40935 53.5457 3.66057C53.8328 3.89982 53.9644 4.23478 53.9644 4.66544V5.07218ZM51.6436 4.5817H53.3424C53.3424 4.33048 53.2586 4.13907 53.1031 4.00748C52.9476 3.87589 52.7562 3.80411 52.5289 3.80411C52.3016 3.80411 52.0982 3.87589 51.9188 4.00748C51.7274 4.163 51.6436 4.34244 51.6436 4.5817Z" fill="white"/>
<path d="M55.2323 3.32566L55.8663 4.29466L56.5242 3.32566H57.2659L56.2252 4.77317L57.3018 6.29245H56.5362L55.8304 5.3115L55.1365 6.29245H54.4068L55.4596 4.78513L54.4666 3.33763H55.2323V3.32566Z" fill="white"/>
<path d="M58.7974 3.82818V5.33549C58.7974 5.47904 58.8333 5.58671 58.9051 5.67045C58.9769 5.75419 59.0845 5.80204 59.2161 5.80204C59.3477 5.80204 59.4793 5.74223 59.599 5.61064L59.8502 6.05326C59.6348 6.25663 59.3836 6.35234 59.1204 6.35234C58.8573 6.35234 58.63 6.25663 58.4386 6.07719C58.2471 5.89774 58.1634 5.64652 58.1634 5.33549V3.8521H57.7926V3.34966H58.1634V2.41656H58.7855V3.34966H59.5631V3.8521H58.7974V3.82818Z" fill="white"/>
<path d="M62.3144 6.28049V2.38061H62.9724V4.06736H64.9104V2.38061H65.5683V6.28049H64.9104V4.68943H62.9724V6.28049H62.3144Z" fill="white"/>
<path d="M69.4802 5.07218H67.1595C67.1714 5.28751 67.2671 5.46695 67.4585 5.59854C67.638 5.73013 67.8533 5.80191 68.0806 5.80191C68.4514 5.80191 68.7385 5.68229 68.93 5.45499L69.2888 5.84976C68.9658 6.18472 68.5591 6.34024 68.0447 6.34024C67.626 6.34024 67.2791 6.19669 66.98 5.92154C66.6929 5.6464 66.5374 5.27555 66.5374 4.809C66.5374 4.34245 66.6809 3.9716 66.98 3.69645C67.2791 3.42131 67.626 3.28971 68.0327 3.28971C68.4395 3.28971 68.7744 3.40935 69.0615 3.66057C69.3487 3.89982 69.4802 4.23478 69.4802 4.66544V5.07218ZM67.1475 4.5817H68.8462C68.8462 4.33048 68.7625 4.13907 68.607 4.00748C68.4514 3.87589 68.26 3.80411 68.0327 3.80411C67.8054 3.80411 67.6021 3.87589 67.4226 4.00748C67.2432 4.163 67.1475 4.34244 67.1475 4.5817Z" fill="white"/>
<path d="M71.8846 3.89996C71.5735 3.89996 71.3462 3.99566 71.1907 4.19903C71.0352 4.4024 70.9515 4.66558 70.9515 5.0125V6.28056H70.3294V3.31378H70.9515V3.91192C71.0472 3.72052 71.1907 3.57696 71.3582 3.45733C71.5257 3.3377 71.7171 3.27789 71.9085 3.27789V3.91192C71.9085 3.89996 71.8965 3.89996 71.8846 3.89996Z" fill="white"/>
<path d="M75.4618 5.07218H73.141C73.153 5.28751 73.2487 5.46695 73.4401 5.59854C73.6195 5.73013 73.8349 5.80191 74.0622 5.80191C74.433 5.80191 74.7201 5.68229 74.9115 5.45499L75.2704 5.84976C74.9474 6.18472 74.5407 6.34024 74.0263 6.34024C73.6076 6.34024 73.2606 6.19669 72.9616 5.92154C72.6745 5.6464 72.5189 5.27555 72.5189 4.809C72.5189 4.34245 72.6625 3.9716 72.9616 3.69645C73.2606 3.42131 73.6076 3.28971 74.0143 3.28971C74.421 3.28971 74.756 3.40935 75.0431 3.66057C75.3302 3.89982 75.4618 4.23478 75.4618 4.66544V5.07218ZM73.141 4.5817H74.8397C74.8397 4.33048 74.768 4.13907 74.6005 4.00748C74.445 3.87589 74.2536 3.80411 74.0263 3.80411C73.799 3.80411 73.5956 3.87589 73.4162 4.00748C73.2367 4.163 73.141 4.34244 73.141 4.5817Z" fill="white"/>
<path d="M3.76829 8.38595L0 4.61766L1.63891 2.97875L3.76829 5.10814L8.87643 0L10.5153 1.62695L3.76829 8.38595Z" fill="#378D00"/>
<path d="M25.0981 97.437C24.9066 97.437 24.7511 97.4729 24.6315 97.5567C24.5119 97.6404 24.4521 97.7481 24.4521 97.9156C24.4521 98.0711 24.5119 98.1907 24.6315 98.2744C24.7511 98.3582 25.0143 98.4539 25.4091 98.5496C25.8039 98.6453 26.1149 98.7769 26.3063 98.9563C26.5097 99.1358 26.6054 99.387 26.6054 99.7339C26.6054 100.069 26.4738 100.344 26.2226 100.559C25.9713 100.775 25.6244 100.882 25.2177 100.882C24.6076 100.882 24.0693 100.679 23.6027 100.248L24.0094 99.7578C24.4042 100.105 24.8109 100.272 25.2296 100.272C25.445 100.272 25.6125 100.224 25.7321 100.141C25.8517 100.057 25.9235 99.9253 25.9235 99.7818C25.9235 99.6262 25.8637 99.5186 25.744 99.4348C25.6244 99.3511 25.4211 99.2793 25.1339 99.2075C24.8468 99.1358 24.6315 99.0759 24.488 99.0161C24.3444 98.9563 24.2128 98.8845 24.0932 98.7888C23.8659 98.6094 23.7463 98.3462 23.7463 97.9873C23.7463 97.6284 23.8778 97.3533 24.141 97.1499C24.4042 96.9585 24.7272 96.8628 25.11 96.8628C25.3612 96.8628 25.6005 96.8987 25.8517 96.9825C26.1029 97.0662 26.3063 97.1858 26.4857 97.3294L26.1388 97.8198C26.0192 97.7122 25.8637 97.6284 25.6723 97.5686C25.4809 97.4729 25.2895 97.437 25.0981 97.437Z" fill="white"/>
<path d="M29.9072 100.823H29.333V100.428C29.0818 100.727 28.7588 100.871 28.3521 100.871C28.041 100.871 27.7898 100.787 27.5864 100.608C27.3831 100.428 27.2874 100.201 27.2874 99.9137C27.2874 99.6266 27.395 99.3993 27.6104 99.2557C27.8257 99.1122 28.1128 99.0404 28.4837 99.0404H29.2971V98.9327C29.2971 98.5379 29.0818 98.3465 28.6392 98.3465C28.364 98.3465 28.0769 98.4423 27.7779 98.6456L27.5027 98.2508C27.8616 97.9637 28.2683 97.8202 28.7229 97.8202C29.0698 97.8202 29.3569 97.9039 29.5723 98.0834C29.7996 98.2628 29.9072 98.5379 29.9072 98.9208V100.823ZM29.2852 99.7223V99.4711H28.5794C28.1248 99.4711 27.9094 99.6146 27.9094 99.8897C27.9094 100.033 27.9693 100.141 28.0769 100.225C28.1846 100.296 28.3401 100.344 28.5435 100.344C28.7468 100.344 28.9143 100.285 29.0698 100.177C29.2134 100.057 29.2852 99.9137 29.2852 99.7223Z" fill="white"/>
<path d="M31.57 99.2195V100.823H30.9479V97.8557H31.57V98.3941C31.6537 98.2146 31.7973 98.0711 31.9767 97.9634C32.1562 97.8557 32.3476 97.8079 32.5629 97.8079C33.0294 97.8079 33.3524 97.9993 33.5199 98.3941C33.819 98.0112 34.1779 97.8079 34.6205 97.8079C34.9555 97.8079 35.2306 97.9155 35.434 98.1189C35.6374 98.3223 35.745 98.6213 35.745 99.0042V100.823H35.1229V99.1956C35.1229 98.6453 34.8957 98.3821 34.4411 98.3821C34.2257 98.3821 34.0463 98.4539 33.8908 98.5855C33.7353 98.7171 33.6515 98.9204 33.6396 99.1836V100.834H33.0175V99.2075C33.0175 98.9204 32.9696 98.7171 32.862 98.5855C32.7663 98.4539 32.5988 98.3821 32.3835 98.3821C32.1681 98.3821 31.9767 98.4539 31.8212 98.5974C31.6537 98.729 31.57 98.9443 31.57 99.2195Z" fill="white"/>
<path d="M38.3526 97.8079C38.7474 97.8079 39.0943 97.9514 39.3694 98.2146C39.6566 98.4898 39.7881 98.8606 39.7881 99.3152C39.7881 99.7698 39.6446 100.141 39.3694 100.428C39.0943 100.715 38.7593 100.858 38.3885 100.858C38.0176 100.858 37.6827 100.691 37.3836 100.368V101.899H36.7615V97.8557H37.3836V98.3701C37.6348 97.9993 37.9578 97.8079 38.3526 97.8079ZM37.3717 99.3511C37.3717 99.6382 37.4554 99.8655 37.6229 100.045C37.7904 100.224 38.0057 100.32 38.2449 100.32C38.4962 100.32 38.6995 100.236 38.8909 100.057C39.0704 99.8774 39.1661 99.6502 39.1661 99.363C39.1661 99.0759 39.0823 98.8486 38.9029 98.6572C38.7235 98.4658 38.5081 98.3701 38.2569 98.3701C38.0057 98.3701 37.8023 98.4658 37.6229 98.6572C37.4554 98.8247 37.3717 99.064 37.3717 99.3511Z" fill="white"/>
<path d="M41.2958 100.823H40.6737V96.6836H41.2958V100.823Z" fill="white"/>
<path d="M45.1236 99.614H42.8028C42.8147 99.8293 42.9104 100.009 43.1019 100.14C43.2813 100.272 43.4966 100.344 43.7239 100.344C44.0948 100.344 44.3819 100.224 44.5733 99.9968L44.9322 100.392C44.6092 100.727 44.2024 100.882 43.688 100.882C43.2693 100.882 42.9224 100.738 42.6233 100.463C42.3362 100.188 42.1807 99.8173 42.1807 99.3508C42.1807 98.8842 42.3243 98.5134 42.6233 98.2382C42.9224 97.9631 43.2693 97.8315 43.6761 97.8315C44.0828 97.8315 44.4178 97.9511 44.7049 98.2024C44.992 98.4416 45.1236 98.7766 45.1236 99.2072V99.614ZM42.8028 99.1235H44.5015C44.5015 98.8723 44.4178 98.6809 44.2622 98.5493C44.1067 98.4177 43.9153 98.3459 43.688 98.3459C43.4607 98.3459 43.2574 98.4177 43.0779 98.5493C42.8985 98.6928 42.8028 98.8842 42.8028 99.1235Z" fill="white"/>
<path d="M49.2269 97.5329V100.823H48.569V97.5329H47.3847V96.9347H50.3993V97.5329H49.2269Z" fill="white"/>
<path d="M53.9644 99.614H51.6436C51.6556 99.8293 51.7513 100.009 51.9427 100.14C52.1222 100.272 52.3375 100.344 52.5648 100.344C52.9356 100.344 53.2227 100.224 53.4141 99.9968L53.773 100.392C53.45 100.727 53.0433 100.882 52.5289 100.882C52.1102 100.882 51.7633 100.738 51.4642 100.463C51.1771 100.188 51.0216 99.8173 51.0216 99.3508C51.0216 98.8842 51.1651 98.5134 51.4642 98.2382C51.7633 97.9631 52.1102 97.8315 52.5169 97.8315C52.9237 97.8315 53.2586 97.9511 53.5457 98.2024C53.8328 98.4416 53.9644 98.7766 53.9644 99.2072V99.614ZM51.6436 99.1235H53.3424C53.3424 98.8723 53.2586 98.6809 53.1031 98.5493C52.9476 98.4177 52.7562 98.3459 52.5289 98.3459C52.3016 98.3459 52.0982 98.4177 51.9188 98.5493C51.7274 98.6928 51.6436 98.8842 51.6436 99.1235Z" fill="white"/>
<path d="M55.2323 97.8556L55.8663 98.8246L56.5242 97.8556H57.2659L56.2252 99.3031L57.3018 100.822H56.5362L55.8304 99.8415L55.1365 100.822H54.4068L55.4596 99.3151L54.4666 97.8676H55.2323V97.8556Z" fill="white"/>
<path d="M58.7974 98.3581V99.8655C58.7974 100.009 58.8333 100.117 58.9051 100.2C58.9769 100.284 59.0845 100.332 59.2161 100.332C59.3477 100.332 59.4793 100.272 59.599 100.141L59.8502 100.583C59.6348 100.775 59.3836 100.882 59.1204 100.882C58.8573 100.882 58.63 100.787 58.4386 100.607C58.2471 100.428 58.1634 100.176 58.1634 99.8655V98.3821H57.7926V97.8796H58.1634V96.9465H58.7855V97.8796H59.5631V98.3821H58.7974V98.3581Z" fill="white"/>
<path d="M62.3144 100.823V96.9229H62.9724V98.6097H64.9104V96.9229H65.5683V100.823H64.9104V99.2317H62.9724V100.823H62.3144Z" fill="white"/>
<path d="M69.4802 99.614H67.1595C67.1714 99.8293 67.2671 100.009 67.4585 100.14C67.638 100.272 67.8533 100.344 68.0806 100.344C68.4514 100.344 68.7385 100.224 68.93 99.9968L69.2888 100.392C68.9658 100.727 68.5591 100.882 68.0447 100.882C67.626 100.882 67.2791 100.738 66.98 100.463C66.6929 100.188 66.5374 99.8173 66.5374 99.3508C66.5374 98.8842 66.6809 98.5134 66.98 98.2382C67.2791 97.9631 67.626 97.8315 68.0327 97.8315C68.4395 97.8315 68.7744 97.9511 69.0615 98.2024C69.3487 98.4416 69.4802 98.7766 69.4802 99.2072V99.614ZM67.1475 99.1235H68.8462C68.8462 98.8723 68.7625 98.6809 68.607 98.5493C68.4514 98.4177 68.26 98.3459 68.0327 98.3459C67.8054 98.3459 67.6021 98.4177 67.4226 98.5493C67.2432 98.6928 67.1475 98.8842 67.1475 99.1235Z" fill="white"/>
<path d="M71.8846 98.4423C71.5735 98.4423 71.3462 98.538 71.1907 98.7413C71.0352 98.9447 70.9515 99.2079 70.9515 99.5548V100.823H70.3294V97.8561H70.9515V98.4542C71.0472 98.2628 71.1907 98.1192 71.3582 97.9996C71.5257 97.88 71.7171 97.8202 71.9085 97.8202V98.4542C71.9085 98.4422 71.8965 98.4423 71.8846 98.4423Z" fill="white"/>
<path d="M75.4618 99.614H73.141C73.153 99.8293 73.2487 100.009 73.4401 100.14C73.6195 100.272 73.8349 100.344 74.0622 100.344C74.433 100.344 74.7201 100.224 74.9115 99.9968L75.2704 100.392C74.9474 100.727 74.5407 100.882 74.0263 100.882C73.6076 100.882 73.2606 100.738 72.9616 100.463C72.6745 100.188 72.5189 99.8173 72.5189 99.3508C72.5189 98.8842 72.6625 98.5134 72.9616 98.2382C73.2606 97.9631 73.6076 97.8315 74.0143 97.8315C74.421 97.8315 74.756 97.9511 75.0431 98.2024C75.3302 98.4416 75.4618 98.7766 75.4618 99.2072V99.614ZM73.141 99.1235H74.8397C74.8397 98.8723 74.768 98.6809 74.6005 98.5493C74.445 98.4177 74.2536 98.3459 74.0263 98.3459C73.799 98.3459 73.5956 98.4177 73.4162 98.5493C73.2367 98.6928 73.141 98.8842 73.141 99.1235Z" fill="white"/>
<path d="M8.52988 96.9227L6.85508 95.2598L4.65392 97.461L2.45276 95.2598L0.789925 96.9227L2.99109 99.1358L0.789925 101.337L2.45276 103L4.65392 100.799L6.85508 103L8.52988 101.337L6.31676 99.1358L8.52988 96.9227Z" fill="#FF3B3B"/>
<path d="M27.1797 29.5005C26.7849 29.8833 26.2945 30.0747 25.7202 30.0747C25.146 30.0747 24.6556 29.8833 24.2608 29.5005C23.866 29.1177 23.6746 28.6392 23.6746 28.065C23.6746 27.4908 23.866 27.0122 24.2608 26.6294C24.6556 26.2466 25.146 26.0552 25.7202 26.0552C26.2945 26.0552 26.7849 26.2466 27.1797 26.6294C27.5745 27.0122 27.7659 27.4908 27.7659 28.065C27.7659 28.6392 27.5745 29.1177 27.1797 29.5005ZM26.7012 27.0601C26.438 26.7849 26.115 26.6534 25.7202 26.6534C25.3374 26.6534 25.0025 26.7969 24.7393 27.0601C24.4761 27.3352 24.3445 27.6702 24.3445 28.065C24.3445 28.4597 24.4761 28.7947 24.7393 29.0699C25.0025 29.345 25.3255 29.4766 25.7202 29.4766C26.1031 29.4766 26.438 29.345 26.7012 29.0699C26.9644 28.7947 27.096 28.4597 27.096 28.065C27.096 27.6702 26.9644 27.3352 26.7012 27.0601Z" fill="white"/>
<path d="M29.453 27.574V29.0813C29.453 29.2249 29.4889 29.3325 29.5607 29.4163C29.6325 29.5 29.7401 29.5479 29.8717 29.5479C30.0033 29.5479 30.1349 29.488 30.2545 29.3564L30.5057 29.7991C30.2904 30.0024 30.0392 30.0981 29.776 30.0981C29.5128 30.0981 29.2855 30.0024 29.0941 29.823C28.9027 29.6436 28.819 29.3923 28.819 29.0813V27.5979H28.4481V27.0715H28.819V26.1384H29.441V27.0715H30.2186V27.574H29.453Z" fill="white"/>
<path d="M31.7975 28.4237V30.0268H31.1754V25.8996H31.7975V27.5983C31.8812 27.4189 32.0248 27.2753 32.2042 27.1676C32.3837 27.06 32.5751 27.0121 32.7904 27.0121C33.1254 27.0121 33.4005 27.1198 33.6039 27.3232C33.8073 27.5265 33.9149 27.8256 33.9149 28.2084V30.0268H33.2929V28.3998C33.2929 27.8495 33.0656 27.5864 32.611 27.5864C32.3957 27.5864 32.2042 27.6581 32.0487 27.8017C31.8812 27.9452 31.7975 28.1486 31.7975 28.4237Z" fill="white"/>
<path d="M37.6946 28.8182H35.3738C35.3858 29.0335 35.4815 29.213 35.6729 29.3445C35.8523 29.4761 36.0677 29.5479 36.295 29.5479C36.6658 29.5479 36.9529 29.4283 37.1443 29.201L37.5032 29.5958C37.1802 29.9307 36.7735 30.0862 36.2591 30.0862C35.8404 30.0862 35.4935 29.9427 35.1944 29.6676C34.9073 29.3924 34.7518 29.0216 34.7518 28.555C34.7518 28.0885 34.8953 27.7176 35.1944 27.4425C35.4935 27.1673 35.8404 27.0357 36.2471 27.0357C36.6539 27.0357 36.9888 27.1554 37.2759 27.4066C37.563 27.6458 37.6946 27.9808 37.6946 28.4114V28.8182ZM35.3738 28.3277H37.0726C37.0726 28.0765 36.9888 27.8851 36.8333 27.7535C36.6778 27.6219 36.4864 27.5501 36.2591 27.5501C36.0318 27.5501 35.8284 27.6219 35.649 27.7535C35.4695 27.909 35.3738 28.1004 35.3738 28.3277Z" fill="white"/>
<path d="M40.1113 27.6578C39.8003 27.6578 39.573 27.7535 39.4174 27.9569C39.2619 28.1602 39.1782 28.4234 39.1782 28.7703V30.0384H38.5561V27.0716H39.1782V27.6698C39.2739 27.4784 39.4174 27.3348 39.5849 27.2152C39.7524 27.0955 39.9438 27.0357 40.1352 27.0357V27.6698C40.1233 27.6578 40.1113 27.6578 40.1113 27.6578Z" fill="white"/>
<path d="M44.1791 26.7366V30.0264H43.5211V26.7366H42.3368V26.1384H45.3515V26.7366H44.1791Z" fill="white"/>
<path d="M48.9161 28.8182H46.5953C46.6073 29.0335 46.703 29.213 46.8944 29.3445C47.0738 29.4761 47.2891 29.5479 47.5164 29.5479C47.8873 29.5479 48.1744 29.4283 48.3658 29.201L48.7247 29.5958C48.4017 29.9307 47.9949 30.0862 47.4805 30.0862C47.0618 30.0862 46.7149 29.9427 46.4159 29.6676C46.1287 29.3924 45.9732 29.0216 45.9732 28.555C45.9732 28.0885 46.1168 27.7176 46.4159 27.4425C46.7149 27.1673 47.0619 27.0357 47.4686 27.0357C47.8753 27.0357 48.2103 27.1554 48.4974 27.4066C48.7845 27.6458 48.9161 27.9808 48.9161 28.4114V28.8182ZM46.5953 28.3277H48.294C48.294 28.0765 48.2222 27.8851 48.0548 27.7535C47.8992 27.6219 47.7078 27.5501 47.4805 27.5501C47.2533 27.5501 47.0499 27.6219 46.8704 27.7535C46.679 27.909 46.5953 28.1004 46.5953 28.3277Z" fill="white"/>
<path d="M50.1844 27.0722L50.8184 28.0412L51.4764 27.0722H52.2181L51.1773 28.5197L52.254 30.0389H51.4884L50.7826 29.058L50.0887 30.0389H49.359L50.4117 28.5316L49.4188 27.0841H50.1844V27.0722Z" fill="white"/>
<path d="M53.7486 27.574V29.0813C53.7486 29.2249 53.7845 29.3325 53.8563 29.4163C53.9281 29.5 54.0357 29.5479 54.1673 29.5479C54.2989 29.5479 54.4305 29.488 54.5501 29.3564L54.8013 29.7991C54.586 30.0024 54.3348 30.0981 54.0716 30.0981C53.8084 30.0981 53.5811 30.0024 53.3897 29.823C53.1983 29.6436 53.1146 29.3923 53.1146 29.0813V27.5979H52.7437V27.0715H53.1146V26.1384H53.7367V27.0715H54.5142V27.574H53.7486Z" fill="white"/>
<path d="M58.7376 26.7366V30.0264H58.0796V26.7366H56.8953V26.1384H59.9099V26.7366H58.7376Z" fill="white"/>
<path d="M60.7114 26.474C60.6396 26.3902 60.5918 26.3065 60.5918 26.1988C60.5918 26.0912 60.6277 25.9955 60.7114 25.9237C60.7951 25.8399 60.8789 25.804 60.9865 25.804C61.0942 25.804 61.1899 25.8399 61.2617 25.9237C61.3454 26.0074 61.3813 26.0912 61.3813 26.1988C61.3813 26.3065 61.3454 26.4022 61.2617 26.474C61.1899 26.5577 61.0942 26.5936 60.9865 26.5936C60.8908 26.5936 60.7951 26.5577 60.7114 26.474ZM61.2976 30.0389H60.6755V27.0721H61.2976V30.0389Z" fill="white"/>
<path d="M63.1396 27.574V29.0813C63.1396 29.2249 63.1755 29.3325 63.2472 29.4163C63.319 29.5 63.4267 29.5479 63.5583 29.5479C63.6899 29.5479 63.8214 29.488 63.9411 29.3564L64.1923 29.7991C63.977 30.0024 63.7257 30.0981 63.4626 30.0981C63.1994 30.0981 62.9721 30.0024 62.7807 29.823C62.5893 29.6436 62.5055 29.3923 62.5055 29.0813V27.5979H62.1347V27.0715H62.5055V26.1384H63.1276V27.0715H63.9052V27.574H63.1396Z" fill="white"/>
<path d="M65.4964 30.0387H64.8743V25.8996H65.4964V30.0387Z" fill="white"/>
<path d="M69.3128 28.8182H66.992C67.004 29.0335 67.0997 29.213 67.2911 29.3445C67.4705 29.4761 67.6859 29.5479 67.9131 29.5479C68.284 29.5479 68.5711 29.4283 68.7625 29.201L69.1214 29.5958C68.7984 29.9307 68.3917 30.0862 67.8773 30.0862C67.4586 30.0862 67.1116 29.9427 66.8126 29.6676C66.5255 29.3924 66.3699 29.0216 66.3699 28.555C66.3699 28.0885 66.5135 27.7176 66.8126 27.4425C67.1116 27.1673 67.4586 27.0357 67.8653 27.0357C68.272 27.0357 68.607 27.1554 68.8941 27.4066C69.1812 27.6458 69.3128 27.9808 69.3128 28.4114V28.8182ZM66.992 28.3277H68.6907C68.6907 28.0765 68.619 27.8851 68.4515 27.7535C68.296 27.6219 68.1046 27.5501 67.8773 27.5501C67.65 27.5501 67.4466 27.6219 67.2672 27.7535C67.0877 27.909 66.992 28.1004 66.992 28.3277Z" fill="white"/>
<path d="M3.76829 32.0128L0 28.2445L1.63891 26.6175L3.76829 28.7469L8.87643 23.6268L10.5153 25.2657L3.76829 32.0128Z" fill="#378D00"/>
<path d="M25.3854 50.4826V53.7724H24.7274V50.4826H23.5431V49.8844H26.5577V50.4826H25.3854Z" fill="white"/>
<path d="M30.1229 52.5765H27.8021C27.814 52.7918 27.9097 52.9713 28.1012 53.1029C28.2806 53.2345 28.4959 53.3062 28.7232 53.3062C29.0941 53.3062 29.3812 53.1866 29.5726 52.9593L29.9315 53.3541C29.6085 53.689 29.2017 53.8446 28.6873 53.8446C28.2686 53.8446 27.9217 53.701 27.6226 53.4259C27.3355 53.1507 27.18 52.7799 27.18 52.3133C27.18 51.8468 27.3236 51.4759 27.6226 51.2008C27.9217 50.9256 28.2686 50.794 28.6754 50.794C29.0821 50.794 29.4171 50.9137 29.7042 51.1649C29.9913 51.4042 30.1229 51.7391 30.1229 52.1698V52.5765ZM27.8021 52.086H29.5008C29.5008 51.8348 29.429 51.6434 29.2616 51.5118C29.106 51.3802 28.9146 51.3084 28.6873 51.3084C28.46 51.3084 28.2567 51.3802 28.0772 51.5118C27.8858 51.6554 27.8021 51.8468 27.8021 52.086Z" fill="white"/>
<path d="M31.3907 50.8182L32.0247 51.7872L32.6827 50.8182H33.4244L32.3836 52.2657L33.4603 53.785H32.6947L31.9888 52.804L31.295 53.785H30.5653L31.618 52.2776L30.6251 50.8301H31.3907V50.8182Z" fill="white"/>
<path d="M34.9559 51.3202V52.8275C34.9559 52.9711 34.9918 53.0787 35.0636 53.1625C35.1353 53.2462 35.243 53.2941 35.3746 53.2941C35.5062 53.2941 35.6378 53.2342 35.7574 53.1027L36.0086 53.5453C35.7933 53.7486 35.5421 53.8444 35.2789 53.8444C35.0157 53.8444 34.7884 53.7486 34.597 53.5692C34.4056 53.3898 34.3219 53.1385 34.3219 52.8275V51.3441H33.951V50.8417H34.3219V49.9086H34.9439V50.8417H35.7215V51.3441H34.9559V51.3202Z" fill="white"/>
<path d="M39.6452 50.3991C39.4538 50.3991 39.2983 50.435 39.1786 50.5187C39.059 50.6024 38.9992 50.7101 38.9992 50.8776C38.9992 51.0331 39.059 51.1527 39.1786 51.2365C39.2983 51.3202 39.5614 51.4159 39.9562 51.5116C40.351 51.6073 40.662 51.7389 40.8534 51.9184C41.0568 52.0978 41.1525 52.349 41.1525 52.6959C41.1525 53.0309 41.0209 53.306 40.7697 53.5214C40.5185 53.7367 40.1715 53.8444 39.7648 53.8444C39.1547 53.8444 38.6164 53.641 38.1498 53.2103L38.5566 52.7199C38.9513 53.0668 39.3581 53.2343 39.7768 53.2343C39.9921 53.2343 40.1596 53.1864 40.2792 53.1027C40.3988 53.007 40.4706 52.8873 40.4706 52.7438C40.4706 52.5883 40.4108 52.4806 40.2912 52.3969C40.1715 52.3131 39.9682 52.2413 39.6811 52.1696C39.394 52.0978 39.1786 52.038 39.0351 51.9782C38.8915 51.9184 38.7599 51.8466 38.6403 51.7509C38.413 51.5714 38.2934 51.3083 38.2934 50.9494C38.2934 50.5905 38.425 50.3153 38.6882 50.112C38.9513 49.9206 39.2743 49.8249 39.6571 49.8249C39.9084 49.8249 40.1476 49.8607 40.3988 49.9445C40.6501 50.0282 40.8534 50.1479 41.0329 50.2914L40.6859 50.7819C40.5663 50.6742 40.4108 50.5905 40.2194 50.5307C40.028 50.435 39.8366 50.3991 39.6452 50.3991Z" fill="white"/>
<path d="M43.6406 50.7699C44.0354 50.7699 44.3823 50.9135 44.6575 51.1766C44.9446 51.4518 45.0762 51.8226 45.0762 52.2772C45.0762 52.7318 44.9326 53.1027 44.6575 53.3898C44.3823 53.6769 44.0474 53.8204 43.6765 53.8204C43.3057 53.8204 42.9707 53.653 42.6716 53.33V54.8612H42.0615V50.8178H42.6836V51.3322C42.9229 50.9613 43.2459 50.7699 43.6406 50.7699ZM42.6716 52.3012C42.6716 52.5883 42.7554 52.8156 42.9229 52.995C43.0903 53.1744 43.3057 53.2701 43.5449 53.2701C43.7842 53.2701 43.9995 53.1864 44.1909 53.007C44.3704 52.8275 44.4661 52.6002 44.4661 52.3131C44.4661 52.026 44.3823 51.7987 44.2029 51.6073C44.0234 51.4159 43.8081 51.3202 43.5569 51.3202C43.3057 51.3202 43.1023 51.4159 42.9229 51.6073C42.7554 51.7867 42.6716 52.026 42.6716 52.3012Z" fill="white"/>
<path d="M48.3659 53.7844H47.8037V53.3896C47.5524 53.6887 47.2295 53.8322 46.8227 53.8322C46.5117 53.8322 46.2605 53.7485 46.0571 53.5691C45.8537 53.3896 45.758 53.1623 45.758 52.8752C45.758 52.5881 45.8657 52.3608 46.081 52.2173C46.2963 52.0737 46.5835 52.0019 46.9543 52.0019H47.7678V51.8943C47.7678 51.4995 47.5524 51.3081 47.1098 51.3081C46.8347 51.3081 46.5476 51.4038 46.2485 51.6072L45.9734 51.2124C46.3322 50.9253 46.739 50.7817 47.1936 50.7817C47.5405 50.7817 47.8276 50.8655 48.0429 51.0449C48.2702 51.2243 48.3779 51.4995 48.3779 51.8823V53.7844H48.3659ZM47.7439 52.6838V52.4326H47.038C46.5835 52.4326 46.3681 52.5762 46.3681 52.8513C46.3681 52.9949 46.4279 53.1025 46.5356 53.1863C46.6433 53.258 46.7988 53.3059 47.0022 53.3059C47.2055 53.3059 47.373 53.2461 47.5285 53.1384C47.6721 53.0188 47.7439 52.8633 47.7439 52.6838Z" fill="white"/>
<path d="M50.7225 53.8204C50.3158 53.8204 49.9569 53.6769 49.6578 53.4017C49.3587 53.1266 49.2152 52.7557 49.2152 52.3012C49.2152 51.8466 49.3707 51.4757 49.6817 51.2006C49.9928 50.9135 50.3756 50.7699 50.8182 50.7699C51.2608 50.7699 51.6436 50.9254 51.9547 51.2365L51.5838 51.691C51.3326 51.4638 51.0694 51.3561 50.8062 51.3561C50.5431 51.3561 50.3158 51.4398 50.1243 51.6193C49.9329 51.7868 49.8372 52.014 49.8372 52.2892C49.8372 52.5643 49.9329 52.7916 50.1243 52.983C50.3158 53.1744 50.543 53.2701 50.8182 53.2701C51.0933 53.2701 51.3565 53.1385 51.5958 52.8873L51.9666 53.2941C51.6077 53.641 51.189 53.8204 50.7225 53.8204Z" fill="white"/>
<path d="M55.5438 52.5765H53.223C53.2349 52.7918 53.3307 52.9713 53.5221 53.1029C53.7015 53.2345 53.9168 53.3062 54.1441 53.3062C54.515 53.3062 54.8021 53.1866 54.9935 52.9593L55.3524 53.3541C55.0294 53.689 54.6226 53.8446 54.1082 53.8446C53.6895 53.8446 53.3426 53.701 53.0435 53.4259C52.7564 53.1507 52.6009 52.7799 52.6009 52.3133C52.6009 51.8468 52.7445 51.4759 53.0435 51.2008C53.3426 50.9256 53.6895 50.794 54.0963 50.794C54.503 50.794 54.838 50.9137 55.1251 51.1649C55.4122 51.4042 55.5438 51.7391 55.5438 52.1698V52.5765ZM53.211 52.086H54.9097C54.9097 51.8348 54.838 51.6434 54.6705 51.5118C54.515 51.3802 54.3236 51.3084 54.0963 51.3084C53.869 51.3084 53.6656 51.3802 53.4862 51.5118C53.3067 51.6554 53.211 51.8468 53.211 52.086Z" fill="white"/>
<path d="M60.8671 51.8827H61.525V53.2106C61.1542 53.6174 60.6278 53.8207 59.9459 53.8207C59.3717 53.8207 58.8932 53.6293 58.4984 53.2585C58.1156 52.8757 57.9122 52.3971 57.9122 51.8229C57.9122 51.2487 58.1156 50.7582 58.5104 50.3754C58.9051 49.9926 59.3837 49.8012 59.9459 49.8012C60.5082 49.8012 60.9747 49.9687 61.3456 50.2917L60.9986 50.7941C60.8431 50.6625 60.6876 50.5788 60.5441 50.519C60.3885 50.4711 60.2091 50.4472 60.0057 50.4472C59.611 50.4472 59.276 50.5788 59.0128 50.83C58.7496 51.0812 58.6061 51.4162 58.6061 51.8349C58.6061 52.2536 58.7377 52.5766 59.0009 52.8278C59.264 53.079 59.5751 53.1987 59.9459 53.1987C60.3168 53.1987 60.6278 53.1149 60.879 52.9594V51.8827H60.8671Z" fill="white"/>
<path d="M64.9462 53.3775C64.6471 53.6765 64.2763 53.8201 63.8337 53.8201C63.391 53.8201 63.0202 53.6765 62.7211 53.3775C62.422 53.0784 62.2785 52.7195 62.2785 52.2888C62.2785 51.8582 62.422 51.4993 62.7211 51.2002C63.0202 50.9012 63.391 50.7576 63.8337 50.7576C64.2763 50.7576 64.6471 50.9012 64.9462 51.2002C65.2453 51.4993 65.3888 51.8582 65.3888 52.2888C65.4008 52.7315 65.2453 53.0904 64.9462 53.3775ZM63.1637 52.9947C63.3432 53.1741 63.5585 53.2698 63.8337 53.2698C64.1088 53.2698 64.3241 53.1741 64.5036 52.9947C64.683 52.8152 64.7668 52.576 64.7668 52.3008C64.7668 52.0137 64.683 51.7864 64.5036 51.607C64.3241 51.4275 64.1088 51.3318 63.8337 51.3318C63.5585 51.3318 63.3432 51.4275 63.1637 51.607C62.9843 51.7864 62.9005 52.0257 62.9005 52.3008C62.9005 52.5879 62.9843 52.8152 63.1637 52.9947Z" fill="white"/>
<path d="M69.0257 52.5765H66.7049C66.7169 52.7918 66.8126 52.9713 67.004 53.1029C67.1834 53.2345 67.3987 53.3062 67.626 53.3062C67.9969 53.3062 68.284 53.1866 68.4754 52.9593L68.8343 53.3541C68.5113 53.689 68.1046 53.8446 67.5902 53.8446C67.1715 53.8446 66.8245 53.701 66.5255 53.4259C66.2384 53.1507 66.0828 52.7799 66.0828 52.3133C66.0828 51.8468 66.2264 51.4759 66.5255 51.2008C66.8245 50.9256 67.1714 50.794 67.5782 50.794C67.9849 50.794 68.3199 50.9137 68.607 51.1649C68.8941 51.4042 69.0257 51.7391 69.0257 52.1698V52.5765ZM66.7049 52.086H68.4036C68.4036 51.8348 68.3318 51.6434 68.1644 51.5118C68.0088 51.3802 67.8174 51.3084 67.5902 51.3084C67.3629 51.3084 67.1595 51.3802 66.98 51.5118C66.8006 51.6554 66.7049 51.8468 66.7049 52.086Z" fill="white"/>
<path d="M71.9925 52.8993C71.9925 53.1864 71.8848 53.4017 71.6815 53.5812C71.4781 53.7487 71.2149 53.8324 70.8919 53.8324C70.6766 53.8324 70.4493 53.7965 70.222 53.7128C69.9947 53.629 69.7794 53.5214 69.6119 53.3898L69.911 52.8993C70.2579 53.1625 70.5928 53.2941 70.9158 53.2941C71.0594 53.2941 71.1671 53.2582 71.2508 53.1984C71.3345 53.1386 71.3704 53.0548 71.3704 52.9471C71.3704 52.8036 71.179 52.66 70.7842 52.5404C70.7603 52.5284 70.7364 52.5284 70.7125 52.5165C70.0904 52.349 69.7913 52.0739 69.7913 51.6791C69.7913 51.4039 69.899 51.1886 70.1143 51.0211C70.3297 50.8536 70.6048 50.7699 70.9517 50.7699C71.2986 50.7699 71.6216 50.8656 71.9207 51.069L71.6815 51.5355C71.4422 51.38 71.179 51.2963 70.8919 51.2963C70.7484 51.2963 70.6168 51.3202 70.533 51.38C70.4373 51.4279 70.3895 51.5116 70.3895 51.6193C70.3895 51.715 70.4373 51.7868 70.533 51.8346C70.6048 51.8705 70.6885 51.8944 70.8201 51.9303C70.9398 51.9542 71.0474 51.9901 71.1431 52.014C71.2388 52.0499 71.3226 52.0739 71.4183 52.1098C71.502 52.1456 71.5977 52.1935 71.7054 52.2653C71.8968 52.4088 71.9925 52.6122 71.9925 52.8993Z" fill="white"/>
<path d="M74.6484 53.7843V49.8844H75.3064V51.5712H77.2443V49.8844H77.9023V53.7843H77.2443V52.1933H75.3064V53.7843H74.6484Z" fill="white"/>
<path d="M81.8142 52.5765H79.4934C79.5054 52.7918 79.6011 52.9713 79.7925 53.1029C79.9719 53.2345 80.1873 53.3062 80.4145 53.3062C80.7854 53.3062 81.0725 53.1866 81.2639 52.9593L81.6228 53.3541C81.2998 53.689 80.8931 53.8446 80.3787 53.8446C79.96 53.8446 79.613 53.701 79.314 53.4259C79.0269 53.1507 78.8713 52.7799 78.8713 52.3133C78.8713 51.8468 79.0149 51.4759 79.314 51.2008C79.613 50.9256 79.96 50.794 80.3667 50.794C80.7734 50.794 81.1084 50.9137 81.3955 51.1649C81.6826 51.4042 81.8142 51.7391 81.8142 52.1698V52.5765ZM79.4934 52.086H81.1921C81.1921 51.8348 81.1204 51.6434 80.9529 51.5118C80.7974 51.3802 80.6059 51.3084 80.3787 51.3084C80.1514 51.3084 79.948 51.3802 79.7686 51.5118C79.5891 51.6554 79.4934 51.8468 79.4934 52.086Z" fill="white"/>
<path d="M84.2185 51.4038C83.9075 51.4038 83.6802 51.4995 83.5247 51.7029C83.3692 51.9062 83.2854 52.1694 83.2854 52.5163V53.7844H82.6634V50.8176H83.2854V51.4158C83.3811 51.2244 83.5247 51.0808 83.6922 50.9612C83.8597 50.8415 84.0511 50.7817 84.2425 50.7817V51.4158C84.2425 51.4038 84.2305 51.4038 84.2185 51.4038Z" fill="white"/>
<path d="M87.8071 52.5765H85.4863C85.4983 52.7918 85.594 52.9713 85.7854 53.1029C85.9648 53.2345 86.1801 53.3062 86.4074 53.3062C86.7783 53.3062 87.0654 53.1866 87.2568 52.9593L87.6157 53.3541C87.2927 53.689 86.886 53.8446 86.3716 53.8446C85.9529 53.8446 85.6059 53.701 85.3069 53.4259C85.0198 53.1507 84.8642 52.7799 84.8642 52.3133C84.8642 51.8468 85.0078 51.4759 85.3069 51.2008C85.6059 50.9256 85.9528 50.794 86.3596 50.794C86.7663 50.794 87.1013 50.9137 87.3884 51.1649C87.6755 51.4042 87.8071 51.7391 87.8071 52.1698V52.5765ZM85.4863 52.086H87.185C87.185 51.8348 87.1133 51.6434 86.9458 51.5118C86.7903 51.3802 86.5988 51.3084 86.3716 51.3084C86.1443 51.3084 85.9409 51.3802 85.7614 51.5118C85.57 51.6554 85.4863 51.8468 85.4863 52.086Z" fill="white"/>
<path d="M3.76829 55.6509L0 51.8826L1.63891 50.2437L3.76829 52.3731L8.87643 47.265L10.5153 48.9039L3.76829 55.6509Z" fill="#378D00"/>
<path d="M26.8688 74.146C27.2396 74.4809 27.431 74.9595 27.431 75.5576C27.431 76.1677 27.2516 76.6462 26.8807 76.9931C26.5218 77.3401 25.9596 77.5195 25.2059 77.5195H23.9139V73.6196H25.2538C25.9596 73.6316 26.4979 73.811 26.8688 74.146ZM26.7731 75.5815C26.7731 74.6843 26.2587 74.2417 25.2418 74.2417H24.5839V76.9094H25.3136C25.7801 76.9094 26.151 76.8017 26.4022 76.5744C26.6415 76.3471 26.7731 76.0242 26.7731 75.5815Z" fill="white"/>
<path d="M31.1157 76.3225H28.7949C28.8069 76.5379 28.9026 76.7173 29.094 76.8489C29.2734 76.9805 29.4887 77.0523 29.716 77.0523C30.0869 77.0523 30.374 76.9326 30.5654 76.7053L30.9243 77.1001C30.6013 77.4351 30.1946 77.5906 29.6802 77.5906C29.2615 77.5906 28.9145 77.447 28.6155 77.1719C28.3284 76.8967 28.1728 76.5259 28.1728 76.0593C28.1728 75.5928 28.3164 75.2219 28.6155 74.9468C28.9145 74.6717 29.2615 74.5401 29.6682 74.5401C30.0749 74.5401 30.4099 74.6597 30.697 74.9109C30.9841 75.1502 31.1157 75.4851 31.1157 75.9158V76.3225ZM28.7949 75.832H30.4936C30.4936 75.5808 30.4218 75.3894 30.2544 75.2578C30.0989 75.1262 29.9074 75.0545 29.6802 75.0545C29.4529 75.0545 29.2495 75.1262 29.0701 75.2578C28.8786 75.4014 28.7949 75.5928 28.7949 75.832Z" fill="white"/>
<path d="M34.082 76.6463C34.082 76.9334 33.9743 77.1487 33.771 77.3282C33.5676 77.4956 33.3044 77.5794 32.9814 77.5794C32.7661 77.5794 32.5388 77.5435 32.3115 77.4598C32.0842 77.376 31.8689 77.2683 31.7014 77.1368L32.0005 76.6463C32.3474 76.9095 32.6824 77.0411 33.0053 77.0411C33.1489 77.0411 33.2566 77.0052 33.3403 76.9454C33.4241 76.8855 33.4599 76.8018 33.4599 76.6941C33.4599 76.5506 33.2685 76.407 32.8738 76.2874C32.8498 76.2754 32.8259 76.2754 32.802 76.2635C32.1799 76.096 31.8808 75.8208 31.8808 75.4261C31.8808 75.1509 31.9885 74.9356 32.2038 74.7681C32.4192 74.6006 32.6943 74.5169 33.0412 74.5169C33.3882 74.5169 33.7112 74.6126 34.0102 74.816L33.771 75.2825C33.5317 75.127 33.2685 75.0433 32.9814 75.0433C32.8379 75.0433 32.7063 75.0672 32.6225 75.127C32.5268 75.1749 32.479 75.2586 32.479 75.3663C32.479 75.462 32.5268 75.5337 32.6225 75.5816C32.6943 75.6175 32.7781 75.6414 32.9096 75.6773C33.0293 75.7012 33.1369 75.7371 33.2326 75.761C33.3283 75.7969 33.4121 75.8208 33.5078 75.8567C33.5915 75.8926 33.6872 75.9405 33.7949 76.0123C33.9743 76.1558 34.082 76.3592 34.082 76.6463Z" fill="white"/>
<path d="M36.2714 77.5793C35.8647 77.5793 35.5058 77.4357 35.2067 77.1605C34.9076 76.8854 34.7641 76.5146 34.7641 76.06C34.7641 75.6054 34.9196 75.2345 35.2306 74.9594C35.5417 74.6723 35.9245 74.5287 36.3671 74.5287C36.8097 74.5287 37.1925 74.6842 37.5036 74.9953L37.1327 75.4499C36.8815 75.2226 36.6183 75.1149 36.3551 75.1149C36.092 75.1149 35.8647 75.1986 35.6733 75.3781C35.4819 75.5456 35.3862 75.7729 35.3862 76.048C35.3862 76.3232 35.4819 76.5505 35.6733 76.7419C35.8647 76.9333 36.092 77.029 36.3671 77.029C36.6422 77.029 36.9054 76.8974 37.1447 76.6462L37.5155 77.0529C37.1566 77.3878 36.7379 77.5793 36.2714 77.5793Z" fill="white"/>
<path d="M39.8843 75.1508C39.5732 75.1508 39.3459 75.2465 39.1904 75.4499C39.0349 75.6532 38.9512 75.9164 38.9512 76.2633V77.5314H38.3291V74.5646H38.9512V75.1628C39.0469 74.9713 39.1904 74.8278 39.3579 74.7082C39.5254 74.5885 39.7168 74.5287 39.9082 74.5287V75.1628C39.9082 75.1508 39.8962 75.1508 39.8843 75.1508Z" fill="white"/>
<path d="M40.7461 73.9783C40.6743 73.8946 40.6265 73.8108 40.6265 73.7032C40.6265 73.5955 40.6624 73.4998 40.7461 73.428C40.8298 73.3443 40.9136 73.3084 41.0212 73.3084C41.1289 73.3084 41.2246 73.3443 41.2964 73.428C41.3801 73.5118 41.416 73.5955 41.416 73.7032C41.416 73.8108 41.3801 73.9065 41.2964 73.9783C41.2246 74.062 41.1289 74.0979 41.0212 74.0979C40.9136 74.086 40.8298 74.0501 40.7461 73.9783ZM41.3323 77.5313H40.7102V74.5645H41.3323V77.5313Z" fill="white"/>
<path d="M43.988 74.5169C44.3827 74.5169 44.7297 74.6605 45.0048 74.9236C45.2919 75.1988 45.4235 75.5696 45.4235 76.0242C45.4235 76.4788 45.2799 76.8496 45.0048 77.1368C44.7297 77.4239 44.3947 77.5674 44.0239 77.5674C43.653 77.5674 43.318 77.3999 43.019 77.077V78.6082H42.3969V74.5647H43.019V75.0791C43.2702 74.7083 43.5932 74.5169 43.988 74.5169ZM43.019 76.0481C43.019 76.3353 43.1027 76.5626 43.2702 76.742C43.4377 76.9214 43.653 77.0171 43.8923 77.0171C44.1435 77.0171 44.3468 76.9334 44.5383 76.7539C44.7177 76.5745 44.8134 76.3472 44.8134 76.0601C44.8134 75.773 44.7297 75.5457 44.5502 75.3543C44.3708 75.1629 44.1554 75.0672 43.9042 75.0672C43.653 75.0672 43.4496 75.1629 43.2702 75.3543C43.1027 75.5337 43.019 75.773 43.019 76.0481Z" fill="white"/>
<path d="M47.086 75.067V76.5743C47.086 76.7178 47.1219 76.8255 47.1936 76.9093C47.2654 76.993 47.3731 77.0409 47.5047 77.0409C47.6363 77.0409 47.7678 76.981 47.8875 76.8494L48.1387 77.2921C47.9234 77.4954 47.6721 77.5911 47.409 77.5911C47.1458 77.5911 46.9185 77.4954 46.7271 77.316C46.5357 77.1366 46.4519 76.8853 46.4519 76.5743V75.0909H46.0811V74.5645H46.4519V73.6314H47.074V74.5645H47.8516V75.067H47.086Z" fill="white"/>
<path d="M48.8448 73.9783C48.773 73.8946 48.7252 73.8108 48.7252 73.7032C48.7252 73.5955 48.7611 73.4998 48.8448 73.428C48.9285 73.3443 49.0123 73.3084 49.1199 73.3084C49.2276 73.3084 49.3233 73.3443 49.3951 73.428C49.4788 73.5118 49.5147 73.5955 49.5147 73.7032C49.5147 73.8108 49.4788 73.9065 49.3951 73.9783C49.3233 74.062 49.2276 74.0979 49.1199 74.0979C49.0242 74.086 48.9285 74.0501 48.8448 73.9783ZM49.431 77.5313H48.8089V74.5645H49.431V77.5313Z" fill="white"/>
<path d="M52.9836 77.1368C52.6845 77.4358 52.3136 77.5794 51.871 77.5794C51.4284 77.5794 51.0576 77.4358 50.7585 77.1368C50.4594 76.8377 50.3159 76.4788 50.3159 76.0481C50.3159 75.6175 50.4594 75.2586 50.7585 74.9595C51.0576 74.6605 51.4284 74.5169 51.871 74.5169C52.3136 74.5169 52.6845 74.6605 52.9836 74.9595C53.2826 75.2586 53.4262 75.6175 53.4262 76.0481C53.4262 76.4788 53.2826 76.8377 52.9836 77.1368ZM51.2011 76.742C51.3805 76.9214 51.5959 77.0171 51.871 77.0171C52.1462 77.0171 52.3615 76.9214 52.5409 76.742C52.7204 76.5626 52.8041 76.3233 52.8041 76.0481C52.8041 75.761 52.7204 75.5337 52.5409 75.3543C52.3615 75.1749 52.1462 75.0791 51.871 75.0791C51.5959 75.0791 51.3805 75.1749 51.2011 75.3543C51.0217 75.5337 50.9379 75.773 50.9379 76.0481C50.926 76.3353 51.0217 76.5626 51.2011 76.742Z" fill="white"/>
<path d="M54.9215 75.9285V77.5315H54.2995V74.5647H54.9215V75.1031C55.0172 74.9236 55.1608 74.7801 55.3402 74.6724C55.5197 74.5647 55.7111 74.5169 55.9144 74.5169C56.2494 74.5169 56.5245 74.6246 56.7279 74.8279C56.9313 75.0313 57.0389 75.3304 57.0389 75.7132V77.5315H56.4169V75.9046C56.4169 75.3543 56.1896 75.0911 55.735 75.0911C55.5197 75.0911 55.3283 75.1629 55.1727 75.3064C55.0053 75.438 54.9215 75.6534 54.9215 75.9285Z" fill="white"/>
<path d="M61.0342 74.1461C60.8428 74.1461 60.6873 74.182 60.5677 74.2657C60.448 74.3494 60.3882 74.4571 60.3882 74.6246C60.3882 74.7801 60.448 74.8997 60.5677 74.9835C60.6873 75.0672 60.9505 75.1629 61.3453 75.2586C61.74 75.3543 62.0511 75.4859 62.2425 75.6653C62.4458 75.8448 62.5415 76.096 62.5415 76.4429C62.5415 76.7779 62.4099 77.053 62.1587 77.2684C61.9075 77.4837 61.5606 77.5914 61.1538 77.5914C60.5437 77.5914 60.0054 77.388 59.5389 76.9573L59.9456 76.4669C60.3404 76.8138 60.7471 76.9813 61.1658 76.9813C61.3811 76.9813 61.5486 76.9334 61.6682 76.8497C61.7879 76.754 61.8597 76.6343 61.8597 76.4908C61.8597 76.3353 61.7998 76.2276 61.6802 76.1439C61.5606 76.0601 61.3572 75.9884 61.0701 75.9166C60.783 75.8448 60.5677 75.785 60.4241 75.7252C60.2806 75.6654 60.149 75.5936 60.0293 75.4979C59.8021 75.3184 59.6824 75.0552 59.6824 74.6964C59.6824 74.3375 59.814 74.0623 60.0772 73.859C60.3404 73.6676 60.6634 73.5719 61.0462 73.5719C61.2974 73.5719 61.5367 73.6077 61.7879 73.6915C62.0391 73.7752 62.2425 73.8948 62.4219 74.0384L62.075 74.5289C61.9554 74.4212 61.7998 74.3375 61.6084 74.2777C61.417 74.182 61.2256 74.1461 61.0342 74.1461Z" fill="white"/>
<path d="M65.0303 74.5169C65.4251 74.5169 65.772 74.6605 66.0471 74.9236C66.3342 75.1988 66.4658 75.5696 66.4658 76.0242C66.4658 76.4788 66.3223 76.8496 66.0471 77.1368C65.772 77.4239 65.437 77.5674 65.0662 77.5674C64.6953 77.5674 64.3604 77.3999 64.0613 77.077V78.6082H63.4392V74.5647H64.0613V75.0791C64.3125 74.7083 64.6355 74.5169 65.0303 74.5169ZM64.0493 76.0481C64.0493 76.3353 64.1331 76.5626 64.3006 76.742C64.468 76.9214 64.6834 77.0171 64.9226 77.0171C65.1739 77.0171 65.3772 76.9334 65.5686 76.7539C65.7481 76.5745 65.8438 76.3472 65.8438 76.0601C65.8438 75.773 65.76 75.5457 65.5806 75.3543C65.4011 75.1629 65.1858 75.0672 64.9346 75.0672C64.6834 75.0672 64.48 75.1629 64.3006 75.3543C64.1331 75.5337 64.0493 75.773 64.0493 76.0481Z" fill="white"/>
<path d="M69.7556 77.5314H69.1814V77.1366C68.9302 77.4357 68.6072 77.5793 68.2004 77.5793C67.8894 77.5793 67.6382 77.4955 67.4348 77.3161C67.2314 77.1366 67.1357 76.9093 67.1357 76.6222C67.1357 76.3351 67.2434 76.1078 67.4587 75.9643C67.6741 75.8207 67.9612 75.7489 68.332 75.7489H69.1455V75.6413C69.1455 75.2465 68.9302 75.0551 68.4875 75.0551C68.2124 75.0551 67.9253 75.1508 67.6262 75.3542L67.3511 74.9594C67.71 74.6723 68.1167 74.5287 68.5713 74.5287C68.9182 74.5287 69.2053 74.6125 69.4206 74.7919C69.6479 74.9714 69.7556 75.2465 69.7556 75.6293V77.5314ZM69.1335 76.4308V76.1796H68.4277C67.9731 76.1796 67.7578 76.3231 67.7578 76.5983C67.7578 76.7418 67.8176 76.8495 67.9253 76.9332C68.033 77.005 68.1885 77.0529 68.3918 77.0529C68.5952 77.0529 68.7627 76.9931 68.9182 76.8854C69.0498 76.7658 69.1335 76.6222 69.1335 76.4308Z" fill="white"/>
<path d="M72.1002 77.5793C71.6935 77.5793 71.3346 77.4357 71.0355 77.1605C70.7364 76.8854 70.5929 76.5146 70.5929 76.06C70.5929 75.6054 70.7484 75.2345 71.0594 74.9594C71.3705 74.6723 71.7533 74.5287 72.1959 74.5287C72.6385 74.5287 73.0213 74.6842 73.3324 74.9953L72.9615 75.4499C72.7103 75.2226 72.4471 75.1149 72.1839 75.1149C71.9208 75.1149 71.6935 75.1986 71.5021 75.3781C71.3107 75.5456 71.215 75.7729 71.215 76.048C71.215 76.3232 71.3107 76.5505 71.5021 76.7419C71.6935 76.9333 71.9208 77.029 72.1959 77.029C72.4711 77.029 72.7342 76.8974 72.9735 76.6462L73.3443 77.0529C72.9974 77.3878 72.5787 77.5793 72.1002 77.5793Z" fill="white"/>
<path d="M76.9215 76.3225H74.6007C74.6127 76.5379 74.7084 76.7173 74.8998 76.8489C75.0792 76.9805 75.2945 77.0523 75.5218 77.0523C75.8927 77.0523 76.1798 76.9326 76.3712 76.7053L76.7301 77.1001C76.4071 77.4351 76.0004 77.5906 75.486 77.5906C75.0673 77.5906 74.7203 77.447 74.4213 77.1719C74.1342 76.8967 73.9786 76.5259 73.9786 76.0593C73.9786 75.5928 74.1222 75.2219 74.4213 74.9468C74.7203 74.6717 75.0673 74.5401 75.474 74.5401C75.8807 74.5401 76.2157 74.6597 76.5028 74.9109C76.7899 75.1502 76.9215 75.4851 76.9215 75.9158V76.3225ZM74.6007 75.832H76.2994C76.2994 75.5808 76.2276 75.3894 76.0602 75.2578C75.9046 75.1262 75.7132 75.0545 75.486 75.0545C75.2587 75.0545 75.0553 75.1262 74.8758 75.2578C74.6964 75.4014 74.6007 75.5928 74.6007 75.832Z" fill="white"/>
<path d="M8.52988 73.2963L6.85508 71.6335L4.65392 73.8346L2.45276 71.6335L0.789925 73.2963L2.99109 75.4975L0.789925 77.6986L2.45276 79.3615L4.65392 77.1603L6.85508 79.3615L8.52988 77.6986L6.31676 75.4975L8.52988 73.2963Z" fill="#FF3B3B"/>
</svg>
