<svg width="48" height="13" viewBox="0 0 48 13" fill="none" xmlns="http://www.w3.org/2000/svg">
<path d="M46.3828 12.7248H1.61729C0.722188 12.7248 0 12.0026 0 11.1074V1.61729C0 0.722184 0.722188 0 1.61729 0H46.3828C47.2779 0 48.0001 0.722184 48.0001 1.61729V11.1074C48.0001 12.0026 47.2779 12.7248 46.3828 12.7248Z" fill="white"/>
<path d="M13.9656 7.68983C13.8101 7.64252 13.6726 7.58172 13.5561 7.51342C13.458 7.45592 13.4285 7.33221 13.4749 7.22836C13.5423 7.07755 13.7399 7.03 13.8892 7.10075C13.9581 7.13342 14.0315 7.16323 14.108 7.19143C14.3013 7.26263 14.5047 7.29314 14.698 7.29314C14.9421 7.29314 15.1252 7.25246 15.2472 7.17108C15.3693 7.08971 15.4303 6.988 15.4303 6.85577C15.4303 6.76422 15.3998 6.68285 15.3286 6.62182C15.2574 6.56079 15.176 6.50993 15.0743 6.47942C14.9726 6.4489 14.8302 6.40821 14.6471 6.35735C14.3928 6.29632 14.1894 6.2353 14.0368 6.17427C13.8842 6.11324 13.7418 6.02169 13.6299 5.88946C13.5181 5.75723 13.457 5.5843 13.457 5.3707C13.457 5.18761 13.5079 5.02487 13.6096 4.8723C13.7113 4.71972 13.8639 4.60783 14.0572 4.51628C14.2606 4.42474 14.5047 4.38404 14.7895 4.38404C14.9929 4.38404 15.1862 4.4044 15.3896 4.45525C15.5035 4.4852 15.6102 4.52221 15.7078 4.56627C15.8223 4.61792 15.8642 4.75312 15.8171 4.86954C15.7578 5.01629 15.5835 5.07405 15.4365 5.01538C15.375 4.99084 15.3119 4.96985 15.2472 4.95367C15.0845 4.91298 14.9319 4.88246 14.7895 4.88246C14.5454 4.88246 14.3623 4.92314 14.2504 5.00452C14.1284 5.08589 14.0775 5.19779 14.0775 5.33002C14.0775 5.42156 14.108 5.50293 14.1792 5.56396C14.2504 5.62499 14.3318 5.67585 14.4335 5.70636C14.5352 5.73688 14.6776 5.77756 14.8607 5.82842C15.1048 5.88945 15.3083 5.94032 15.471 6.00135C15.6338 6.06238 15.766 6.15392 15.8779 6.28616C15.9898 6.40822 16.0508 6.58113 16.0508 6.79474C16.0508 6.97783 15.9999 7.14056 15.8982 7.29314C15.7965 7.44571 15.6439 7.55761 15.4507 7.64915C15.2574 7.7407 15.0031 7.78139 14.7081 7.78139C14.4538 7.80173 14.1996 7.76104 13.9656 7.68983Z" fill="#EF18A2"/>
<path d="M19.6721 7.23191C19.6721 7.51842 19.4399 7.75068 19.1534 7.75068H18.4261C17.7379 7.75068 17.1801 7.19281 17.1801 6.50465V5.64513C17.1801 4.97663 17.722 4.4347 18.3905 4.4347H19.3415C19.4848 4.4347 19.6009 4.55083 19.6009 4.69409C19.6009 4.83734 19.4848 4.95347 19.3415 4.95347H18.2328C17.9941 4.95347 17.8005 5.14701 17.8005 5.38576C17.8005 5.62451 17.9941 5.81805 18.2328 5.81805H19.1432C19.2836 5.81805 19.3975 5.9319 19.3975 6.07234C19.3975 6.21278 19.2836 6.32663 19.1432 6.32663H18.2583C18.0055 6.32663 17.8005 6.53157 17.8005 6.78436C17.8005 7.03716 18.0055 7.24209 18.2583 7.24209H19.6619C19.6676 7.24209 19.6721 7.23753 19.6721 7.23191Z" fill="#EF18A2"/>
<path d="M20.8723 4.74494C20.8723 4.5736 21.0112 4.4347 21.1825 4.4347C21.3538 4.4347 21.4927 4.5736 21.4927 4.74494V6.36732C21.4927 6.84482 21.8798 7.23191 22.3573 7.23191H22.9625C23.1058 7.23191 23.2219 7.34804 23.2219 7.49129C23.2219 7.63455 23.1058 7.75068 22.9625 7.75068H22.0471C21.3983 7.75068 20.8723 7.22469 20.8723 6.57585V4.74494Z" fill="#EF18A2"/>
<path d="M26.7208 7.23191C26.7208 7.51842 26.4885 7.75068 26.202 7.75068H25.4747C24.7866 7.75068 24.2287 7.19281 24.2287 6.50464V5.64513C24.2287 4.97663 24.7706 4.4347 25.4391 4.4347H26.3902C26.5334 4.4347 26.6496 4.55083 26.6496 4.69409C26.6496 4.83734 26.5334 4.95347 26.3902 4.95347H25.2815C25.0427 4.95347 24.8492 5.14701 24.8492 5.38576C24.8492 5.62451 25.0427 5.81805 25.2815 5.81805H26.1918C26.3323 5.81805 26.4461 5.9319 26.4461 6.07234C26.4461 6.21278 26.3323 6.32663 26.1918 6.32663H25.3069C25.0541 6.32663 24.8492 6.53157 24.8492 6.78436C24.8492 7.03716 25.0541 7.24209 25.3069 7.24209H26.7106C26.7162 7.24209 26.7208 7.23753 26.7208 7.23191Z" fill="#EF18A2"/>
<path d="M28.5416 7.57795C28.267 7.43554 28.0636 7.23212 27.911 6.96765C27.7584 6.71336 27.677 6.41838 27.677 6.09289C27.677 5.7674 27.7584 5.47242 27.911 5.21813C28.0636 4.96384 28.2772 4.7604 28.5518 4.60782C28.8264 4.46542 29.1214 4.38404 29.4571 4.38404C29.7317 4.38404 29.9758 4.4349 30.1996 4.52645C30.3399 4.58382 30.4681 4.66117 30.5819 4.75599C30.6966 4.85156 30.685 5.02343 30.5767 5.12616C30.4637 5.23331 30.2874 5.22534 30.1589 5.13745C29.9618 5.00265 29.738 4.93332 29.4876 4.93332C29.2638 4.93332 29.0604 4.98418 28.8773 5.08589C28.6942 5.18761 28.5518 5.31984 28.4603 5.50293C28.3586 5.67585 28.3077 5.87928 28.3077 6.10306C28.3077 6.32683 28.3586 6.53026 28.4603 6.70318C28.562 6.8761 28.7044 7.01851 28.8773 7.12022C29.0604 7.22194 29.2638 7.27281 29.4876 7.27281C29.7385 7.27281 29.9627 7.20319 30.1601 7.06394C30.2878 6.97387 30.4653 6.96408 30.5786 7.07163C30.6858 7.17333 30.697 7.34334 30.5825 7.43676C30.4686 7.52973 30.3401 7.60563 30.1996 7.6695C29.9758 7.76105 29.7215 7.8119 29.4571 7.8119C29.1112 7.80173 28.8163 7.72035 28.5416 7.57795Z" fill="#EF18A2"/>
<path d="M32.5189 5.50274C32.5189 5.19939 32.273 4.95347 31.9697 4.95347H31.6798C31.5365 4.95347 31.4204 4.83734 31.4204 4.69409C31.4204 4.55083 31.5365 4.4347 31.6798 4.4347H33.9786C34.1218 4.4347 34.2379 4.55083 34.2379 4.69409C34.2379 4.83734 34.1218 4.95347 33.9786 4.95347H33.6887C33.3853 4.95347 33.1394 5.19939 33.1394 5.50274V7.44044C33.1394 7.61178 33.0005 7.75068 32.8292 7.75068C32.6578 7.75068 32.5189 7.61178 32.5189 7.44044V5.50274Z" fill="#EF18A2"/>
</svg>
