<svg width="58" height="67" viewBox="0 0 58 67" fill="none" xmlns="http://www.w3.org/2000/svg">
<path d="M16.3245 1.89144C16.2044 1.89144 16.0943 1.92147 16.0142 1.97151C15.9341 2.02156 15.8941 2.10163 15.8941 2.20172C15.8941 2.30181 15.9341 2.38188 16.0142 2.44194C16.0943 2.49198 16.2644 2.55203 16.5247 2.61209C16.7849 2.67214 16.9851 2.76222 17.1152 2.87232C17.2453 2.98242 17.3154 3.15257 17.3154 3.37277C17.3154 3.59297 17.2353 3.77313 17.0651 3.91326C16.895 4.05338 16.6748 4.12344 16.4045 4.12344C16.0042 4.12344 15.6539 3.98332 15.3536 3.71308L15.6238 3.39279C15.8841 3.61299 16.1443 3.72308 16.4246 3.72308C16.5647 3.72308 16.6748 3.69306 16.7549 3.633C16.8349 3.57295 16.875 3.49288 16.875 3.39279C16.875 3.2927 16.8349 3.22264 16.7649 3.16258C16.6848 3.11254 16.5547 3.06249 16.3745 3.01245C16.1844 2.97241 16.0442 2.93238 15.9541 2.89234C15.8541 2.8523 15.774 2.80226 15.6939 2.7422C15.5438 2.63211 15.4737 2.45194 15.4737 2.22174C15.4737 1.99153 15.5638 1.80136 15.7339 1.68125C15.9041 1.55114 16.1143 1.49108 16.3645 1.49108C16.5247 1.49108 16.6848 1.52111 16.8449 1.57116C17.0051 1.6212 17.1452 1.70127 17.2553 1.79135L17.0251 2.11164C16.955 2.04158 16.8449 1.99153 16.7248 1.94149C16.5747 1.91146 16.4546 1.89144 16.3245 1.89144Z" fill="white"/>
<path d="M19.4574 4.09357H19.0871V3.83334C18.9269 4.02351 18.7168 4.1236 18.4465 4.1236C18.2463 4.1236 18.0762 4.06354 17.9461 3.95345C17.816 3.84335 17.7459 3.69322 17.7459 3.50304C17.7459 3.31287 17.8159 3.17275 17.9561 3.07266C18.0962 2.98258 18.2864 2.93253 18.5266 2.93253H19.0471V2.86247C19.0471 2.60223 18.9069 2.48213 18.6167 2.48213C18.4365 2.48213 18.2563 2.55219 18.0562 2.68231L17.876 2.43208C18.1062 2.24191 18.3765 2.15183 18.6767 2.15183C18.9069 2.15183 19.0871 2.21189 19.2372 2.32199C19.3774 2.43208 19.4574 2.61224 19.4574 2.86247V4.09357ZM19.0471 3.37293V3.21278H18.5866C18.2964 3.21278 18.1462 3.30286 18.1462 3.49303C18.1462 3.58311 18.1863 3.66319 18.2563 3.70322C18.3264 3.75327 18.4265 3.77328 18.5566 3.77328C18.6867 3.77328 18.7968 3.73325 18.8969 3.66319C19.007 3.59313 19.0471 3.49303 19.0471 3.37293Z" fill="white"/>
<path d="M20.5383 3.04284V4.08378H20.1279V2.15205H20.5383V2.50236C20.5983 2.38225 20.6884 2.29217 20.7985 2.22211C20.9186 2.15204 21.0387 2.12202 21.1788 2.12202C21.4791 2.12202 21.6893 2.24213 21.7994 2.50236C21.9896 2.25214 22.2298 2.12202 22.51 2.12202C22.7302 2.12202 22.9004 2.19208 23.0405 2.3222C23.1706 2.45232 23.2407 2.64248 23.2407 2.90272V4.08378H22.8303V3.02282C22.8303 2.67251 22.6802 2.49235 22.3899 2.49235C22.2498 2.49235 22.1297 2.53239 22.0296 2.62247C21.9295 2.71255 21.8695 2.84266 21.8695 3.01282V4.08378H21.4591V3.02282C21.4591 2.84266 21.4291 2.70254 21.359 2.62247C21.2889 2.53239 21.1889 2.49235 21.0487 2.49235C20.9086 2.49235 20.7885 2.54239 20.6784 2.63248C20.5883 2.73256 20.5383 2.86268 20.5383 3.04284Z" fill="white"/>
<path d="M24.9422 2.13179C25.2025 2.13179 25.4227 2.22187 25.6028 2.40204C25.783 2.5822 25.8731 2.82241 25.8731 3.11267C25.8731 3.41294 25.783 3.65316 25.6028 3.83332C25.4227 4.02349 25.2125 4.11357 24.9623 4.11357C24.722 4.11357 24.5018 4.00347 24.3117 3.79328V4.78417H23.9013V2.15181H24.3117V2.49212C24.4818 2.2519 24.692 2.13179 24.9422 2.13179ZM24.3117 3.13269C24.3117 3.31285 24.3717 3.46299 24.4818 3.5831C24.5919 3.7032 24.7321 3.76326 24.8922 3.76326C25.0523 3.76326 25.1925 3.7032 25.3126 3.5931C25.4327 3.473 25.4927 3.32286 25.4927 3.1427C25.4927 2.96254 25.4327 2.80239 25.3226 2.68229C25.2025 2.56218 25.0724 2.50213 24.9022 2.50213C24.7421 2.50213 24.6019 2.56218 24.4918 2.68229C24.3717 2.79239 24.3117 2.94252 24.3117 3.13269Z" fill="white"/>
<path d="M26.8638 4.09357H26.4534V1.40116H26.8638V4.09357Z" fill="white"/>
<path d="M29.3562 3.30285H27.8449C27.8549 3.44297 27.9149 3.55307 28.0351 3.64315C28.1552 3.73323 28.2853 3.77326 28.4454 3.77326C28.6856 3.77326 28.8658 3.69319 28.9959 3.54306L29.2261 3.79328C29.0159 4.00347 28.7457 4.11357 28.4154 4.11357C28.1452 4.11357 27.9149 4.02349 27.7248 3.84333C27.5346 3.66317 27.4445 3.42295 27.4445 3.12268C27.4445 2.82241 27.5446 2.5822 27.7348 2.40204C27.925 2.22187 28.1552 2.13179 28.4154 2.13179C28.6756 2.13179 28.8958 2.21187 29.086 2.37201C29.2662 2.53215 29.3662 2.75235 29.3662 3.02259V3.30285H29.3562ZM27.8449 2.98256H28.9459C28.9459 2.82242 28.8958 2.6923 28.7957 2.61222C28.6956 2.52214 28.5655 2.48211 28.4154 2.48211C28.2653 2.48211 28.1351 2.52215 28.015 2.62224C27.9049 2.70231 27.8449 2.83242 27.8449 2.98256Z" fill="white"/>
<path d="M32.0285 1.95181V4.09373H31.5981V1.95181H30.8274V1.56146H32.7892V1.95181H32.0285Z" fill="white"/>
<path d="M35.1011 3.30285H33.5898C33.5998 3.44297 33.6598 3.55307 33.7799 3.64315C33.9001 3.73323 34.0302 3.77326 34.1903 3.77326C34.4305 3.77326 34.6107 3.69319 34.7408 3.54306L34.971 3.79328C34.7608 4.00347 34.4906 4.11357 34.1603 4.11357C33.89 4.11357 33.6598 4.02349 33.4697 3.84333C33.2795 3.66317 33.1894 3.42295 33.1894 3.12268C33.1894 2.82241 33.2895 2.5822 33.4797 2.40204C33.6699 2.22187 33.9001 2.13179 34.1603 2.13179C34.4205 2.13179 34.6407 2.21187 34.8309 2.37201C35.0111 2.53215 35.1111 2.75235 35.1111 3.02259V3.30285H35.1011ZM33.5898 2.98256H34.6908C34.6908 2.82242 34.6407 2.6923 34.5406 2.61222C34.4405 2.52214 34.3104 2.48211 34.1603 2.48211C34.0102 2.48211 33.88 2.52215 33.7599 2.62224C33.6498 2.70231 33.5898 2.83242 33.5898 2.98256Z" fill="white"/>
<path d="M35.9221 2.16161L36.3324 2.79217L36.7628 2.16161H37.2432L36.5726 3.10245L37.2733 4.09333H36.7728L36.3124 3.45276L35.862 4.09333H35.3916L36.0722 3.11245L35.4216 2.16161H35.9221Z" fill="white"/>
<path d="M38.2441 2.49229V3.47317C38.2441 3.56325 38.2641 3.64333 38.3142 3.69337C38.3642 3.74342 38.4343 3.77344 38.5143 3.77344C38.6044 3.77344 38.6845 3.73341 38.7646 3.64333L38.9347 3.93358C38.7946 4.0637 38.6345 4.12376 38.4643 4.12376C38.2942 4.12376 38.144 4.0637 38.0239 3.94359C37.9038 3.82349 37.8437 3.66334 37.8437 3.46316V2.49229H37.6035V2.162H37.8437V1.56146H38.2541V2.162H38.7646V2.49229H38.2441Z" fill="white"/>
<path d="M40.5363 4.09373V1.56146H40.9667V2.66245H42.2279V1.56146H42.6582V4.09373H42.2279V3.0528H40.9667V4.09373H40.5363Z" fill="white"/>
<path d="M45.1903 3.30285H43.6789C43.6889 3.44297 43.749 3.55307 43.8691 3.64315C43.9892 3.73323 44.1193 3.77326 44.2794 3.77326C44.5197 3.77326 44.6998 3.69319 44.8299 3.54306L45.0601 3.79328C44.8499 4.00347 44.5797 4.11357 44.2494 4.11357C43.9792 4.11357 43.749 4.02349 43.5588 3.84333C43.3686 3.66317 43.2785 3.42295 43.2785 3.12268C43.2785 2.82241 43.3786 2.5822 43.5688 2.40204C43.759 2.22187 43.9892 2.13179 44.2494 2.13179C44.5096 2.13179 44.7298 2.21187 44.92 2.37201C45.1002 2.53215 45.2003 2.75235 45.2003 3.02259V3.30285H45.1903ZM43.6789 2.98256H44.7799C44.7799 2.82242 44.7298 2.6923 44.6298 2.61222C44.5297 2.52214 44.3995 2.48211 44.2494 2.48211C44.0993 2.48211 43.9692 2.52215 43.8491 2.62224C43.739 2.70231 43.6789 2.83242 43.6789 2.98256Z" fill="white"/>
<path d="M46.7619 2.54241C46.5617 2.54241 46.4116 2.60247 46.3115 2.74259C46.2114 2.87271 46.1613 3.05287 46.1613 3.27307V4.10381H45.751V2.17208H46.1613V2.56243C46.2314 2.44232 46.3115 2.34224 46.4316 2.26216C46.5417 2.18209 46.6618 2.14206 46.7919 2.14206V2.55242C46.7719 2.54242 46.7619 2.54241 46.7619 2.54241Z" fill="white"/>
<path d="M49.0839 3.30285H47.5725C47.5825 3.44297 47.6426 3.55307 47.7627 3.64315C47.8828 3.73323 48.0129 3.77326 48.1731 3.77326C48.4133 3.77326 48.5934 3.69319 48.7236 3.54306L48.9538 3.79328C48.7436 4.00347 48.4733 4.11357 48.143 4.11357C47.8728 4.11357 47.6426 4.02349 47.4524 3.84333C47.2623 3.66317 47.1722 3.42295 47.1722 3.12268C47.1722 2.82241 47.2723 2.5822 47.4624 2.40204C47.6526 2.22187 47.8828 2.13179 48.143 2.13179C48.4033 2.13179 48.6235 2.21187 48.8136 2.37201C48.9938 2.53215 49.0939 2.75235 49.0939 3.02259V3.30285H49.0839ZM47.5725 2.98256H48.6735C48.6735 2.82242 48.6235 2.6923 48.5234 2.61222C48.4233 2.52214 48.2932 2.48211 48.143 2.48211C47.9929 2.48211 47.8628 2.52215 47.7427 2.62224C47.6326 2.70231 47.5725 2.83242 47.5725 2.98256Z" fill="white"/>
<path d="M2.4522 5.45489L0 3.00269L1.06095 1.94174L2.4522 3.32298L5.77518 0L6.83613 1.06095L2.4522 5.45489Z" fill="#378D00"/>
<path d="M16.3245 63.387C16.2044 63.387 16.0943 63.417 16.0142 63.4671C15.9341 63.5171 15.8941 63.5972 15.8941 63.6973C15.8941 63.7974 15.9341 63.8774 16.0142 63.9375C16.0943 63.9875 16.2644 64.0476 16.5247 64.1076C16.7849 64.1677 16.9851 64.2578 17.1152 64.3679C17.2453 64.478 17.3154 64.6481 17.3154 64.8683C17.3154 65.0885 17.2353 65.2687 17.0651 65.4088C16.895 65.5489 16.6748 65.619 16.4045 65.619C16.0042 65.619 15.6539 65.4789 15.3536 65.2086L15.6238 64.8883C15.8841 65.1085 16.1443 65.2186 16.4246 65.2186C16.5647 65.2186 16.6748 65.1886 16.7549 65.1286C16.8349 65.0685 16.875 64.9884 16.875 64.8883C16.875 64.7883 16.8349 64.7182 16.7649 64.6581C16.6848 64.6081 16.5547 64.558 16.3745 64.508C16.1844 64.468 16.0442 64.4279 15.9541 64.3879C15.8541 64.3479 15.774 64.2978 15.6939 64.2378C15.5438 64.1277 15.4737 63.9475 15.4737 63.7173C15.4737 63.4871 15.5638 63.3069 15.7339 63.1768C15.9041 63.0467 16.1143 62.9866 16.3645 62.9866C16.5247 62.9866 16.6848 63.0167 16.8449 63.0667C17.0051 63.1167 17.1452 63.1968 17.2553 63.2869L17.0251 63.6072C16.955 63.5371 16.8449 63.4871 16.7248 63.437C16.5747 63.407 16.4546 63.387 16.3245 63.387Z" fill="white"/>
<path d="M19.4574 65.5891H19.0871V65.3289C18.9269 65.5191 18.7168 65.6192 18.4465 65.6192C18.2463 65.6192 18.0762 65.5591 17.9461 65.449C17.816 65.3389 17.7459 65.1888 17.7459 64.9986C17.7459 64.8084 17.8159 64.6683 17.9561 64.5682C18.0962 64.4781 18.2864 64.4281 18.5266 64.4281H19.0471V64.358C19.0471 64.0978 18.9069 63.9777 18.6167 63.9777C18.4365 63.9777 18.2563 64.0477 18.0562 64.1779L17.876 63.9276C18.1062 63.7375 18.3765 63.6474 18.6767 63.6474C18.9069 63.6474 19.0871 63.7074 19.2372 63.8175C19.3774 63.9276 19.4574 64.1078 19.4574 64.358V65.5891ZM19.0471 64.8685V64.7083H18.5866C18.2964 64.7083 18.1462 64.7984 18.1462 64.9886C18.1462 65.0787 18.1863 65.1587 18.2563 65.1988C18.3264 65.2488 18.4265 65.2688 18.5566 65.2688C18.6867 65.2688 18.7968 65.2288 18.8969 65.1587C19.007 65.0887 19.0471 64.9886 19.0471 64.8685Z" fill="white"/>
<path d="M20.5383 64.5482V65.5891H20.1279V63.6574H20.5383V64.0077C20.5983 63.8876 20.6884 63.7975 20.7985 63.7274C20.9186 63.6574 21.0387 63.6273 21.1788 63.6273C21.4791 63.6273 21.6893 63.7475 21.7994 64.0077C21.9896 63.7575 22.2298 63.6273 22.51 63.6273C22.7302 63.6273 22.9004 63.6974 23.0405 63.8275C23.1706 63.9576 23.2407 64.1478 23.2407 64.408V65.5891H22.8303V64.5282C22.8303 64.1778 22.6802 63.9977 22.3899 63.9977C22.2498 63.9977 22.1297 64.0377 22.0296 64.1278C21.9295 64.2179 21.8695 64.348 21.8695 64.5181V65.5891H21.4591V64.5282C21.4591 64.348 21.4291 64.2079 21.359 64.1278C21.2889 64.0377 21.1889 63.9977 21.0487 63.9977C20.9086 63.9977 20.7885 64.0477 20.6784 64.1378C20.5883 64.2279 20.5383 64.368 20.5383 64.5482Z" fill="white"/>
<path d="M24.9422 63.6273C25.2025 63.6273 25.4227 63.7174 25.6028 63.8976C25.783 64.0777 25.8731 64.318 25.8731 64.6082C25.8731 64.9085 25.783 65.1487 25.6028 65.3289C25.4227 65.519 25.2125 65.6091 24.9623 65.6091C24.722 65.6091 24.5018 65.499 24.3117 65.2888V66.2797H23.9013V63.6474H24.3117V63.9877C24.4818 63.7475 24.692 63.6273 24.9422 63.6273ZM24.3117 64.6282C24.3117 64.8084 24.3717 64.9585 24.4818 65.0786C24.5919 65.1988 24.7321 65.2588 24.8922 65.2588C25.0523 65.2588 25.1925 65.1988 25.3126 65.0887C25.4327 64.9685 25.4927 64.8184 25.4927 64.6383C25.4927 64.4581 25.4327 64.2979 25.3226 64.1778C25.2025 64.0577 25.0724 63.9977 24.9022 63.9977C24.7421 63.9977 24.6019 64.0577 24.4918 64.1778C24.3717 64.2879 24.3117 64.4381 24.3117 64.6282Z" fill="white"/>
<path d="M26.8638 65.5891H26.4534V62.8967H26.8638V65.5891Z" fill="white"/>
<path d="M29.3562 64.7984H27.8449C27.8549 64.9385 27.9149 65.0486 28.0351 65.1387C28.1552 65.2288 28.2853 65.2688 28.4454 65.2688C28.6856 65.2688 28.8658 65.1887 28.9959 65.0386L29.2261 65.2888C29.0159 65.499 28.7457 65.6091 28.4154 65.6091C28.1452 65.6091 27.9149 65.519 27.7248 65.3389C27.5346 65.1587 27.4445 64.9185 27.4445 64.6182C27.4445 64.318 27.5446 64.0777 27.7348 63.8976C27.925 63.7174 28.1552 63.6273 28.4154 63.6273C28.6756 63.6273 28.8958 63.7074 29.086 63.8676C29.2662 64.0277 29.3662 64.2479 29.3662 64.5181V64.7984H29.3562ZM27.8449 64.4781H28.9459C28.9459 64.318 28.8958 64.1878 28.7957 64.1078C28.6956 64.0177 28.5655 63.9777 28.4154 63.9777C28.2653 63.9777 28.1351 64.0177 28.015 64.1178C27.9049 64.2079 27.8449 64.328 27.8449 64.4781Z" fill="white"/>
<path d="M32.0285 63.4474V65.5893H31.5981V63.4474H30.8274V63.057H32.7892V63.4474H32.0285Z" fill="white"/>
<path d="M35.1011 64.7984H33.5898C33.5998 64.9385 33.6598 65.0486 33.7799 65.1387C33.9001 65.2288 34.0302 65.2688 34.1903 65.2688C34.4305 65.2688 34.6107 65.1887 34.7408 65.0386L34.971 65.2888C34.7608 65.499 34.4906 65.6091 34.1603 65.6091C33.89 65.6091 33.6598 65.519 33.4697 65.3389C33.2795 65.1587 33.1894 64.9185 33.1894 64.6182C33.1894 64.318 33.2895 64.0777 33.4797 63.8976C33.6699 63.7174 33.9001 63.6273 34.1603 63.6273C34.4205 63.6273 34.6407 63.7074 34.8309 63.8676C35.0111 64.0277 35.1111 64.2479 35.1111 64.5181V64.7984H35.1011ZM33.5898 64.4781H34.6908C34.6908 64.318 34.6407 64.1878 34.5406 64.1078C34.4405 64.0177 34.3104 63.9777 34.1603 63.9777C34.0102 63.9777 33.88 64.0177 33.7599 64.1178C33.6498 64.2079 33.5898 64.328 33.5898 64.4781Z" fill="white"/>
<path d="M35.9221 63.6572L36.3324 64.2877L36.7628 63.6572H37.2432L36.5726 64.598L37.2733 65.5889H36.7728L36.3124 64.9483L35.862 65.5889H35.3916L36.0722 64.608L35.4216 63.6572H35.9221Z" fill="white"/>
<path d="M38.2441 63.9878V64.9687C38.2441 65.0588 38.2641 65.1389 38.3142 65.1889C38.3642 65.239 38.4343 65.269 38.5143 65.269C38.6044 65.269 38.6845 65.229 38.7646 65.1389L38.9347 65.4291C38.7946 65.5593 38.6345 65.6193 38.4643 65.6193C38.2942 65.6193 38.144 65.5593 38.0239 65.4391C37.9038 65.319 37.8437 65.1589 37.8437 64.9587V63.9878H37.6035V63.6575H37.8437V63.057H38.2541V63.6575H38.7646V63.9878H38.2441Z" fill="white"/>
<path d="M40.5363 65.5893V63.057H40.9667V64.158H42.2279V63.057H42.6582V65.5893H42.2279V64.5483H40.9667V65.5893H40.5363Z" fill="white"/>
<path d="M45.1903 64.7984H43.6789C43.6889 64.9385 43.749 65.0486 43.8691 65.1387C43.9892 65.2288 44.1193 65.2688 44.2794 65.2688C44.5197 65.2688 44.6998 65.1887 44.8299 65.0386L45.0601 65.2888C44.8499 65.499 44.5797 65.6091 44.2494 65.6091C43.9792 65.6091 43.749 65.519 43.5588 65.3389C43.3686 65.1587 43.2785 64.9185 43.2785 64.6182C43.2785 64.318 43.3786 64.0777 43.5688 63.8976C43.759 63.7174 43.9892 63.6273 44.2494 63.6273C44.5096 63.6273 44.7298 63.7074 44.92 63.8676C45.1002 64.0277 45.2003 64.2479 45.2003 64.5181V64.7984H45.1903ZM43.6789 64.4781H44.7799C44.7799 64.318 44.7298 64.1878 44.6298 64.1078C44.5297 64.0177 44.3995 63.9777 44.2494 63.9777C44.0993 63.9777 43.9692 64.0177 43.8491 64.1178C43.739 64.2079 43.6789 64.328 43.6789 64.4781Z" fill="white"/>
<path d="M46.7619 64.038C46.5617 64.038 46.4116 64.098 46.3115 64.2381C46.2114 64.3683 46.1613 64.5484 46.1613 64.7686V65.5994H45.751V63.6676H46.1613V64.058C46.2314 63.9379 46.3115 63.8378 46.4316 63.7577C46.5417 63.6776 46.6618 63.6376 46.7919 63.6376V64.048C46.7719 64.038 46.7619 64.038 46.7619 64.038Z" fill="white"/>
<path d="M49.0839 64.7984H47.5725C47.5825 64.9385 47.6426 65.0486 47.7627 65.1387C47.8828 65.2288 48.0129 65.2688 48.1731 65.2688C48.4133 65.2688 48.5934 65.1887 48.7236 65.0386L48.9538 65.2888C48.7436 65.499 48.4733 65.6091 48.143 65.6091C47.8728 65.6091 47.6426 65.519 47.4524 65.3389C47.2623 65.1587 47.1722 64.9185 47.1722 64.6182C47.1722 64.318 47.2723 64.0777 47.4624 63.8976C47.6526 63.7174 47.8828 63.6273 48.143 63.6273C48.4033 63.6273 48.6235 63.7074 48.8136 63.8676C48.9938 64.0277 49.0939 64.2479 49.0939 64.5181V64.7984H49.0839ZM47.5725 64.4781H48.6735C48.6735 64.318 48.6235 64.1878 48.5234 64.1078C48.4233 64.0177 48.2932 63.9777 48.143 63.9777C47.9929 63.9777 47.8628 64.0177 47.7427 64.1178C47.6326 64.2079 47.5725 64.328 47.5725 64.4781Z" fill="white"/>
<path d="M5.54474 63.0567L4.46377 61.9657L3.03248 63.407L1.59119 61.9657L0.510223 63.0567L1.94151 64.488L0.510223 65.9193L1.59119 67.0002L3.03248 65.5689L4.46377 67.0002L5.54474 65.9193L4.11345 64.488L5.54474 63.0567Z" fill="#FF3B3B"/>
<path d="M17.6757 19.1874C17.4155 19.4376 17.1052 19.5677 16.7249 19.5677C16.3445 19.5677 16.0343 19.4476 15.774 19.1874C15.5138 18.9371 15.3937 18.6269 15.3937 18.2565C15.3937 17.8862 15.5238 17.5759 15.774 17.3257C16.0343 17.0755 16.3445 16.9454 16.7249 16.9454C17.1052 16.9454 17.4155 17.0655 17.6757 17.3257C17.936 17.5759 18.0561 17.8862 18.0561 18.2565C18.0661 18.6269 17.936 18.9371 17.6757 19.1874ZM17.3654 17.606C17.1953 17.4258 16.9851 17.3357 16.7249 17.3357C16.4646 17.3357 16.2645 17.4258 16.0843 17.606C15.9141 17.7861 15.8241 18.0063 15.8241 18.2565C15.8241 18.5068 15.9141 18.727 16.0843 18.9071C16.2545 19.0873 16.4646 19.1774 16.7249 19.1774C16.9851 19.1774 17.1853 19.0873 17.3654 18.9071C17.5356 18.727 17.6257 18.5068 17.6257 18.2565C17.6257 17.9963 17.5356 17.7861 17.3654 17.606Z" fill="white"/>
<path d="M19.1572 17.9363V18.9172C19.1572 19.0073 19.1772 19.0873 19.2272 19.1374C19.2773 19.1874 19.3473 19.2175 19.4274 19.2175C19.5175 19.2175 19.5976 19.1774 19.6776 19.0873L19.8478 19.3776C19.7077 19.5077 19.5475 19.5678 19.3774 19.5678C19.2072 19.5678 19.0571 19.5077 18.937 19.3876C18.8169 19.2675 18.7568 19.1074 18.7568 18.9072V17.9363H18.5166V17.606H18.7568V17.0055H19.1672V17.606H19.6776V17.9363H19.1572Z" fill="white"/>
<path d="M20.6883 18.4964V19.5374H20.2779V16.855H20.6883V17.9659C20.7484 17.8458 20.8384 17.7558 20.9485 17.6857C21.0687 17.6156 21.1888 17.5856 21.3289 17.5856C21.5491 17.5856 21.7192 17.6557 21.8594 17.7858C21.9895 17.9159 22.0595 18.1061 22.0595 18.3663V19.5474H21.6492V18.4864C21.6492 18.1361 21.499 17.9559 21.2088 17.9559C21.0687 17.9559 20.9485 18.006 20.8384 18.0961C20.7384 18.1761 20.6883 18.3163 20.6883 18.4964Z" fill="white"/>
<path d="M24.5218 18.7566H23.0105C23.0205 18.8968 23.0805 19.0069 23.2006 19.0969C23.3207 19.187 23.4509 19.2271 23.611 19.2271C23.8512 19.2271 24.0314 19.147 24.1615 18.9968L24.3917 19.2471C24.1815 19.4573 23.9113 19.5674 23.581 19.5674C23.3107 19.5674 23.0805 19.4773 22.8904 19.2971C22.7002 19.117 22.6101 18.8767 22.6101 18.5765C22.6101 18.2762 22.7102 18.036 22.9004 17.8558C23.0905 17.6757 23.3207 17.5856 23.581 17.5856C23.8412 17.5856 24.0614 17.6657 24.2516 17.8258C24.4317 17.9859 24.5318 18.2061 24.5318 18.4764V18.7566H24.5218ZM23.0105 18.4363H24.1115C24.1115 18.2762 24.0614 18.1461 23.9613 18.066C23.8612 17.9759 23.7311 17.9359 23.581 17.9359C23.4308 17.9359 23.3007 17.9759 23.1806 18.076C23.0705 18.1561 23.0105 18.2762 23.0105 18.4363Z" fill="white"/>
<path d="M26.0934 17.9962C25.8933 17.9962 25.7431 18.0563 25.643 18.1964C25.543 18.3265 25.4929 18.5067 25.4929 18.7269V19.5576H25.0825V17.6259H25.4929V18.0162C25.563 17.8961 25.643 17.796 25.7632 17.716C25.8733 17.6359 25.9934 17.5959 26.1235 17.5959V18.0062C26.1035 17.9962 26.0934 17.9962 26.0934 17.9962Z" fill="white"/>
<path d="M28.7458 17.3958V19.5377H28.3154V17.3958H27.5447V17.0055H29.5065V17.3958H28.7458Z" fill="white"/>
<path d="M31.8184 18.7566H30.307C30.3171 18.8968 30.3771 19.0069 30.4972 19.0969C30.6173 19.187 30.7474 19.2271 30.9076 19.2271C31.1478 19.2271 31.328 19.147 31.4581 18.9968L31.6883 19.2471C31.4781 19.4573 31.2079 19.5674 30.8776 19.5674C30.6073 19.5674 30.3771 19.4773 30.1869 19.2971C29.9968 19.117 29.9067 18.8767 29.9067 18.5765C29.9067 18.2762 30.0068 18.036 30.1969 17.8558C30.3871 17.6757 30.6173 17.5856 30.8776 17.5856C31.1378 17.5856 31.358 17.6657 31.5482 17.8258C31.7283 17.9859 31.8284 18.2061 31.8284 18.4764V18.7566H31.8184ZM30.307 18.4363H31.408C31.408 18.2762 31.358 18.1461 31.2579 18.066C31.1578 17.9759 31.0277 17.9359 30.8776 17.9359C30.7274 17.9359 30.5973 17.9759 30.4772 18.076C30.3671 18.1561 30.307 18.2762 30.307 18.4363Z" fill="white"/>
<path d="M32.6393 17.6056L33.0497 18.2362L33.4801 17.6056H33.9605L33.2899 18.5465L33.9905 19.5374H33.4901L33.0297 18.8968L32.5793 19.5374H32.1089L32.7895 18.5565L32.1389 17.6056H32.6393Z" fill="white"/>
<path d="M34.9614 17.9363V18.9172C34.9614 19.0073 34.9814 19.0873 35.0314 19.1374C35.0815 19.1874 35.1515 19.2175 35.2316 19.2175C35.3217 19.2175 35.4018 19.1774 35.4818 19.0873L35.652 19.3776C35.5119 19.5077 35.3517 19.5678 35.1816 19.5678C35.0114 19.5678 34.8613 19.5077 34.7412 19.3876C34.6211 19.2675 34.561 19.1074 34.561 18.9072V17.9363H34.3208V17.606H34.561V17.0055H34.9714V17.606H35.4818V17.9363H34.9614Z" fill="white"/>
<path d="M38.204 17.3958V19.5377H37.7736V17.3958H37.0029V17.0055H38.9647V17.3958H38.204Z" fill="white"/>
<path d="M39.4953 17.2255C39.4452 17.1754 39.4152 17.1154 39.4152 17.0453C39.4152 16.9752 39.4452 16.9152 39.4953 16.8651C39.5453 16.8151 39.6054 16.7851 39.6754 16.7851C39.7455 16.7851 39.8056 16.8051 39.8556 16.8651C39.9057 16.9152 39.9357 16.9752 39.9357 17.0453C39.9357 17.1154 39.9057 17.1754 39.8556 17.2255C39.8056 17.2755 39.7455 17.3055 39.6754 17.3055C39.6054 17.3055 39.5453 17.2755 39.4953 17.2255ZM39.8756 19.5375H39.4653V17.6058H39.8756V19.5375Z" fill="white"/>
<path d="M41.0767 17.9363V18.9172C41.0767 19.0073 41.0967 19.0873 41.1468 19.1374C41.1968 19.1874 41.2669 19.2175 41.347 19.2175C41.437 19.2175 41.5171 19.1774 41.5972 19.0873L41.7673 19.3776C41.6272 19.5077 41.4671 19.5678 41.2969 19.5678C41.1268 19.5678 40.9766 19.5077 40.8565 19.3876C40.7364 19.2675 40.6764 19.1074 40.6764 18.9072V17.9363H40.4361V17.606H40.6764V17.0055H41.0867V17.606H41.5972V17.9363H41.0767Z" fill="white"/>
<path d="M42.5981 19.5376H42.1877V16.8452H42.5981V19.5376Z" fill="white"/>
<path d="M45.0901 18.7566H43.5787C43.5887 18.8968 43.6488 19.0069 43.7689 19.0969C43.889 19.187 44.0191 19.2271 44.1793 19.2271C44.4195 19.2271 44.5996 19.147 44.7297 18.9968L44.9599 19.2471C44.7498 19.4573 44.4795 19.5674 44.1492 19.5674C43.879 19.5674 43.6488 19.4773 43.4586 19.2971C43.2684 19.117 43.1784 18.8767 43.1784 18.5765C43.1784 18.2762 43.2784 18.036 43.4686 17.8558C43.6588 17.6757 43.889 17.5856 44.1492 17.5856C44.4095 17.5856 44.6297 17.6657 44.8198 17.8258C45 17.9859 45.1001 18.2061 45.1001 18.4764V18.7566H45.0901ZM43.5787 18.4363H44.6797C44.6797 18.2762 44.6297 18.1461 44.5296 18.066C44.4295 17.9759 44.2994 17.9359 44.1492 17.9359C43.9991 17.9359 43.869 17.9759 43.7489 18.076C43.6388 18.1561 43.5787 18.2762 43.5787 18.4363Z" fill="white"/>
<path d="M5.54474 16.9353L4.46377 15.8443L3.03248 17.2856L1.59119 15.8443L0.510223 16.9353L1.94151 18.3665L0.510223 19.7978L1.59119 20.8788L3.03248 19.4475L4.46377 20.8788L5.54474 19.7978L4.11345 18.3665L5.54474 16.9353Z" fill="#FF3B3B"/>
<path d="M16.5146 32.8394V34.9813H16.0842V32.8394H15.3135V32.449H17.2753V32.8394H16.5146Z" fill="white"/>
<path d="M19.5975 34.2007H18.0861C18.0961 34.3408 18.1562 34.4509 18.2763 34.541C18.3964 34.631 18.5265 34.6711 18.6867 34.6711C18.9269 34.6711 19.1071 34.591 19.2372 34.4409L19.4674 34.6911C19.2572 34.9013 18.9869 35.0114 18.6566 35.0114C18.3864 35.0114 18.1562 34.9213 17.966 34.7411C17.7759 34.561 17.6858 34.3208 17.6858 34.0205C17.6858 33.7202 17.7859 33.48 17.976 33.2998C18.1662 33.1197 18.3964 33.0296 18.6566 33.0296C18.9169 33.0296 19.1371 33.1097 19.3272 33.2698C19.5074 33.43 19.6075 33.6502 19.6075 33.9204V34.2007H19.5975ZM18.0861 33.8804H19.1871C19.1871 33.7202 19.1371 33.5901 19.037 33.51C18.9369 33.42 18.8068 33.3799 18.6566 33.3799C18.5065 33.3799 18.3764 33.42 18.2563 33.52C18.1462 33.6001 18.0861 33.7302 18.0861 33.8804Z" fill="white"/>
<path d="M20.4179 33.0594L20.8283 33.69L21.2587 33.0594H21.7391L21.0685 34.0003L21.7691 34.9912H21.2687L20.8083 34.3506L20.3579 34.9912H19.8875L20.5681 34.0103L19.9175 33.0594H20.4179Z" fill="white"/>
<path d="M22.74 33.3798V34.3607C22.74 34.4508 22.76 34.5309 22.81 34.5809C22.8601 34.631 22.9301 34.661 23.0102 34.661C23.0903 34.661 23.1804 34.621 23.2604 34.5309L23.4306 34.8211C23.2905 34.9513 23.1303 35.0113 22.9602 35.0113C22.79 35.0113 22.6399 34.9512 22.5198 34.8311C22.3997 34.711 22.3396 34.5509 22.3396 34.3507V33.3798H22.0994V33.0495H22.3396V32.449H22.75V33.0495H23.2604V33.3798H22.74Z" fill="white"/>
<path d="M25.7929 32.7892C25.6728 32.7892 25.5627 32.8193 25.4826 32.8693C25.4026 32.9194 25.3625 32.9994 25.3625 33.0995C25.3625 33.1996 25.4026 33.2797 25.4826 33.3397C25.5627 33.3898 25.7329 33.4498 25.9931 33.5099C26.2533 33.57 26.4535 33.66 26.5836 33.7701C26.7138 33.8802 26.7838 34.0504 26.7838 34.2706C26.7838 34.4908 26.7037 34.6709 26.5336 34.8111C26.3634 34.9512 26.1432 35.0213 25.873 35.0213C25.4726 35.0213 25.1223 34.8811 24.8221 34.6109L25.0923 34.2906C25.3525 34.5108 25.6128 34.6209 25.893 34.6209C26.0331 34.6209 26.1432 34.5909 26.2233 34.5308C26.3034 34.4708 26.3434 34.3907 26.3434 34.2906C26.3434 34.1905 26.3034 34.1204 26.2333 34.0604C26.1532 34.0103 26.0231 33.9603 25.843 33.9103C25.6528 33.8702 25.5127 33.8302 25.4226 33.7901C25.3225 33.7501 25.2424 33.7001 25.1624 33.64C25.0122 33.5299 24.9422 33.3498 24.9422 33.1195C24.9422 32.8893 25.0322 32.6992 25.2024 32.5791C25.3725 32.4489 25.5827 32.3889 25.833 32.3889C25.9931 32.3889 26.1533 32.4189 26.3134 32.469C26.4735 32.519 26.6137 32.5991 26.7238 32.6892L26.4936 33.0094C26.4235 32.9394 26.3134 32.8893 26.1933 32.8393C26.0431 32.8093 25.913 32.7892 25.7929 32.7892Z" fill="white"/>
<path d="M28.3853 33.0296C28.6455 33.0296 28.8657 33.1197 29.0459 33.2998C29.226 33.48 29.3161 33.7202 29.3161 34.0105C29.3161 34.3108 29.226 34.551 29.0459 34.7311C28.8657 34.9213 28.6555 35.0114 28.4053 35.0114C28.1651 35.0114 27.9449 34.9013 27.7547 34.6911V35.682H27.3443V33.0496H27.7547V33.3899C27.9249 33.1497 28.135 33.0296 28.3853 33.0296ZM27.7547 34.0205C27.7547 34.2007 27.8148 34.3508 27.9249 34.4709C28.035 34.591 28.1751 34.6511 28.3352 34.6511C28.4954 34.6511 28.6355 34.591 28.7556 34.4809C28.8757 34.3608 28.9358 34.2107 28.9358 34.0305C28.9358 33.8503 28.8757 33.6902 28.7656 33.5701C28.6455 33.45 28.5154 33.3899 28.3452 33.3899C28.1851 33.3899 28.045 33.45 27.9349 33.5701C27.8148 33.6902 27.7547 33.8403 27.7547 34.0205Z" fill="white"/>
<path d="M31.4682 34.9811H31.0979V34.7209C30.9377 34.9111 30.7275 35.0112 30.4573 35.0112C30.2571 35.0112 30.087 34.9511 29.9568 34.841C29.8267 34.7309 29.7567 34.5808 29.7567 34.3906C29.7567 34.2004 29.8267 34.0603 29.9668 33.9602C30.107 33.8701 30.2971 33.8201 30.5374 33.8201H31.0578V33.75C31.0578 33.4898 30.9177 33.3697 30.6274 33.3697C30.4473 33.3697 30.2671 33.4397 30.0669 33.5699L29.8868 33.3196C30.117 33.1295 30.3872 33.0394 30.6875 33.0394C30.9177 33.0394 31.0979 33.0994 31.248 33.2095C31.3881 33.3196 31.4682 33.4998 31.4682 33.75V34.9811ZM31.0578 34.2705V34.1003H30.5974C30.3071 34.1003 30.157 34.1904 30.157 34.3806C30.157 34.4707 30.1971 34.5507 30.2671 34.5908C30.3372 34.6408 30.4373 34.6608 30.5674 34.6608C30.6975 34.6608 30.8076 34.6208 30.9077 34.5507C31.0078 34.4907 31.0578 34.3906 31.0578 34.2705Z" fill="white"/>
<path d="M32.9896 35.0111C32.7193 35.0111 32.4891 34.9211 32.2989 34.7409C32.1088 34.5607 32.0087 34.3205 32.0087 34.0202C32.0087 33.73 32.1088 33.4898 32.3089 33.2996C32.5091 33.1194 32.7593 33.0193 33.0496 33.0193C33.3399 33.0193 33.5801 33.1194 33.7803 33.3196L33.54 33.6099C33.3699 33.4597 33.2097 33.3897 33.0396 33.3897C32.8694 33.3897 32.7193 33.4497 32.5992 33.5598C32.4791 33.6699 32.409 33.8201 32.409 33.9902C32.409 34.1704 32.4691 34.3205 32.5892 34.4406C32.7093 34.5607 32.8594 34.6208 33.0396 34.6208C33.2198 34.6208 33.3899 34.5407 33.5501 34.3706L33.7903 34.6308C33.5701 34.901 33.2998 35.0111 32.9896 35.0111Z" fill="white"/>
<path d="M36.1323 34.2007H34.621C34.631 34.3408 34.691 34.4509 34.8111 34.541C34.9313 34.631 35.0614 34.6711 35.2215 34.6711C35.4617 34.6711 35.6419 34.591 35.772 34.4409L36.0022 34.6911C35.792 34.9013 35.5218 35.0114 35.1915 35.0114C34.9212 35.0114 34.691 34.9213 34.5009 34.7411C34.3107 34.561 34.2206 34.3208 34.2206 34.0205C34.2206 33.7202 34.3207 33.48 34.5109 33.2998C34.701 33.1197 34.9313 33.0296 35.1915 33.0296C35.4517 33.0296 35.6719 33.1097 35.8621 33.2698C36.0423 33.43 36.1423 33.6502 36.1423 33.9204V34.2007H36.1323ZM34.621 33.8804H35.722C35.722 33.7202 35.6719 33.5901 35.5718 33.51C35.4717 33.42 35.3416 33.3799 35.1915 33.3799C35.0414 33.3799 34.9112 33.42 34.7911 33.52C34.681 33.6001 34.621 33.7302 34.621 33.8804Z" fill="white"/>
<path d="M39.5954 33.7499H40.0258V34.6207C39.7856 34.8809 39.4453 35.021 39.0049 35.021C38.6345 35.021 38.3142 34.9009 38.064 34.6507C37.8138 34.4005 37.6837 34.0902 37.6837 33.7199C37.6837 33.3395 37.8138 33.0292 38.074 32.779C38.3343 32.5288 38.6445 32.3987 39.0049 32.3987C39.3652 32.3987 39.6755 32.5088 39.9157 32.719L39.6855 33.0493C39.5854 32.9692 39.4853 32.9091 39.3852 32.8691C39.2851 32.8391 39.165 32.8191 39.0349 32.8191C38.7747 32.8191 38.5645 32.8991 38.3943 33.0693C38.2242 33.2394 38.1341 33.4496 38.1341 33.7199C38.1341 33.9901 38.2142 34.2003 38.3843 34.3704C38.5545 34.5306 38.7546 34.6207 38.9949 34.6207C39.2351 34.6207 39.4353 34.5706 39.5954 34.4605V33.7499Z" fill="white"/>
<path d="M42.2479 34.7311C42.0577 34.9213 41.8175 35.0214 41.5272 35.0214C41.2369 35.0214 40.9967 34.9213 40.8066 34.7311C40.6164 34.541 40.5163 34.3007 40.5163 34.0305C40.5163 33.7503 40.6164 33.52 40.8066 33.3199C40.9967 33.1297 41.2369 33.0296 41.5272 33.0296C41.8175 33.0296 42.0577 33.1297 42.2479 33.3199C42.438 33.51 42.5381 33.7503 42.5381 34.0305C42.5381 34.3007 42.448 34.531 42.2479 34.7311ZM41.0868 34.4809C41.1969 34.601 41.347 34.6611 41.5272 34.6611C41.7074 34.6611 41.8475 34.601 41.9676 34.4809C42.0777 34.3608 42.1378 34.2107 42.1378 34.0305C42.1378 33.8403 42.0777 33.6902 41.9676 33.5701C41.8575 33.45 41.7074 33.3899 41.5272 33.3899C41.347 33.3899 41.2069 33.45 41.0868 33.5701C40.9767 33.6902 40.9167 33.8403 40.9167 34.0305C40.9167 34.2107 40.9767 34.3608 41.0868 34.4809Z" fill="white"/>
<path d="M44.9 34.2007H43.3886C43.3986 34.3408 43.4587 34.4509 43.5788 34.541C43.6989 34.631 43.829 34.6711 43.9891 34.6711C44.2294 34.6711 44.4095 34.591 44.5396 34.4409L44.7698 34.6911C44.5597 34.9013 44.2894 35.0114 43.9591 35.0114C43.6889 35.0114 43.4587 34.9213 43.2685 34.7411C43.0783 34.561 42.9882 34.3208 42.9882 34.0205C42.9882 33.7202 43.0883 33.48 43.2785 33.2998C43.4687 33.1197 43.6989 33.0296 43.9591 33.0296C44.2193 33.0296 44.4395 33.1097 44.6297 33.2698C44.8099 33.43 44.91 33.6502 44.91 33.9204V34.2007H44.9ZM43.3886 33.8804H44.4896C44.4896 33.7202 44.4395 33.5901 44.3395 33.51C44.2394 33.42 44.1092 33.3799 43.9591 33.3799C43.809 33.3799 43.6789 33.42 43.5588 33.52C43.4487 33.6001 43.3886 33.7302 43.3886 33.8804Z" fill="white"/>
<path d="M46.8317 34.4106C46.8317 34.5908 46.7617 34.7409 46.6315 34.851C46.5014 34.9611 46.3313 35.0212 46.1211 35.0212C45.981 35.0212 45.8308 34.9911 45.6807 34.9411C45.5306 34.891 45.4004 34.821 45.2803 34.7309L45.4805 34.4106C45.7007 34.5808 45.9209 34.6608 46.1311 34.6608C46.2212 34.6608 46.2912 34.6408 46.3513 34.6008C46.4113 34.5608 46.4314 34.5007 46.4314 34.4406C46.4314 34.3405 46.3013 34.2605 46.051 34.1804C46.031 34.1704 46.021 34.1704 46.011 34.1704C45.6106 34.0603 45.4105 33.8801 45.4105 33.6299C45.4105 33.4498 45.4805 33.3096 45.6206 33.1995C45.7608 33.0894 45.9409 33.0394 46.1611 33.0394C46.3813 33.0394 46.5915 33.0994 46.7917 33.2396L46.6416 33.5398C46.4814 33.4397 46.3113 33.3797 46.1311 33.3797C46.031 33.3797 45.9609 33.3997 45.8909 33.4297C45.8308 33.4698 45.8008 33.5198 45.8008 33.5899C45.8008 33.6499 45.8308 33.7 45.8909 33.73C45.9309 33.75 45.991 33.77 46.071 33.7901C46.1511 33.8101 46.2212 33.8301 46.2812 33.8501C46.3413 33.8701 46.4013 33.8901 46.4614 33.9102C46.5214 33.9302 46.5815 33.9702 46.6416 34.0103C46.7617 34.0903 46.8317 34.2305 46.8317 34.4106Z" fill="white"/>
<path d="M48.5636 34.9813V32.449H48.9939V33.55H50.2551V32.449H50.6855V34.9813H50.2451V33.9403H48.9839V34.9813H48.5636Z" fill="white"/>
<path d="M53.2175 34.2007H51.7061C51.7161 34.3408 51.7762 34.4509 51.8963 34.541C52.0164 34.631 52.1465 34.6711 52.3067 34.6711C52.5469 34.6711 52.727 34.591 52.8571 34.4409L53.0874 34.6911C52.8772 34.9013 52.6069 35.0114 52.2766 35.0114C52.0064 35.0114 51.7762 34.9213 51.586 34.7411C51.3958 34.561 51.3058 34.3208 51.3058 34.0205C51.3058 33.7202 51.4058 33.48 51.596 33.2998C51.7862 33.1197 52.0164 33.0296 52.2766 33.0296C52.5369 33.0296 52.7571 33.1097 52.9472 33.2698C53.1274 33.43 53.2275 33.6502 53.2275 33.9204V34.2007H53.2175ZM51.7061 33.8804H52.8071C52.8071 33.7202 52.7571 33.5901 52.657 33.51C52.5569 33.42 52.4268 33.3799 52.2766 33.3799C52.1265 33.3799 51.9964 33.42 51.8763 33.52C51.7662 33.6001 51.7061 33.7302 51.7061 33.8804Z" fill="white"/>
<path d="M54.7891 33.4397C54.5889 33.4397 54.4388 33.4998 54.3387 33.6399C54.2386 33.77 54.1886 33.9502 54.1886 34.1704V35.0011H53.7782V33.0694H54.1886V33.4598C54.2586 33.3397 54.3387 33.2396 54.4588 33.1595C54.5689 33.0794 54.689 33.0394 54.8191 33.0394V33.4498C54.7991 33.4397 54.7991 33.4397 54.7891 33.4397Z" fill="white"/>
<path d="M57.1209 34.2007H55.6095C55.6195 34.3408 55.6796 34.4509 55.7997 34.541C55.9198 34.631 56.0499 34.6711 56.2101 34.6711C56.4503 34.6711 56.6304 34.591 56.7605 34.4409L56.9908 34.6911C56.7806 34.9013 56.5103 35.0114 56.18 35.0114C55.9098 35.0114 55.6796 34.9213 55.4894 34.7411C55.2992 34.561 55.2092 34.3208 55.2092 34.0205C55.2092 33.7202 55.3092 33.48 55.4994 33.2998C55.6896 33.1197 55.9198 33.0296 56.18 33.0296C56.4403 33.0296 56.6605 33.1097 56.8506 33.2698C57.0308 33.43 57.1309 33.6502 57.1309 33.9204V34.2007H57.1209ZM55.6095 33.8804H56.7105C56.7105 33.7202 56.6605 33.5901 56.5604 33.51C56.4603 33.42 56.3302 33.3799 56.18 33.3799C56.0299 33.3799 55.8998 33.42 55.7797 33.52C55.6596 33.6001 55.6095 33.7302 55.6095 33.8804Z" fill="white"/>
<path d="M5.54474 32.3089L4.46377 31.2179L3.03248 32.6592L1.59119 31.2179L0.510223 32.3089L1.94151 33.7402L0.510223 35.1715L1.59119 36.2524L3.03248 34.8212L4.46377 36.2524L5.54474 35.1715L4.11345 33.7402L5.54474 32.3089Z" fill="#FF3B3B"/>
<path d="M17.4755 48.2328C17.7157 48.453 17.8458 48.7633 17.8458 49.1537C17.8458 49.544 17.7257 49.8643 17.4955 50.0845C17.2553 50.3147 16.8949 50.4248 16.4045 50.4248H15.5638V47.8925H16.4345C16.8849 47.9025 17.2353 48.0126 17.4755 48.2328ZM17.4154 49.1637C17.4154 48.5832 17.0851 48.2929 16.4145 48.2929H15.9841V50.0244H16.4546C16.7648 50.0244 16.995 49.9544 17.1552 49.8042C17.3253 49.6641 17.4154 49.4539 17.4154 49.1637Z" fill="white"/>
<path d="M20.2377 49.6442H18.7264C18.7364 49.7843 18.7964 49.8944 18.9165 49.9845C19.0366 50.0746 19.1668 50.1146 19.3269 50.1146C19.5671 50.1146 19.7473 50.0345 19.8774 49.8844L20.1076 50.1346C19.8974 50.3448 19.6272 50.4549 19.2969 50.4549C19.0266 50.4549 18.7964 50.3648 18.6062 50.1847C18.4161 50.0045 18.326 49.7643 18.326 49.464C18.326 49.1638 18.4261 48.9235 18.6163 48.7434C18.8064 48.5632 19.0366 48.4731 19.2969 48.4731C19.5571 48.4731 19.7773 48.5532 19.9675 48.7134C20.1476 48.8735 20.2477 49.0937 20.2477 49.3639V49.6442H20.2377ZM18.7264 49.3239H19.8273C19.8273 49.1638 19.7773 49.0336 19.6772 48.9536C19.5771 48.8635 19.447 48.8235 19.2969 48.8235C19.1467 48.8235 19.0166 48.8635 18.8965 48.9636C18.7864 49.0537 18.7264 49.1738 18.7264 49.3239Z" fill="white"/>
<path d="M22.1695 49.8541C22.1695 50.0343 22.0994 50.1844 21.9693 50.2945C21.8392 50.4046 21.669 50.4647 21.4588 50.4647C21.3187 50.4647 21.1686 50.4347 21.0185 50.3846C20.8683 50.3346 20.7382 50.2645 20.6181 50.1744L20.8183 49.8541C21.0385 50.0243 21.2587 50.1044 21.4689 50.1044C21.5589 50.1044 21.629 50.0844 21.6891 50.0443C21.7391 50.0043 21.7691 49.9442 21.7691 49.8842C21.7691 49.7841 21.639 49.704 21.3888 49.6239C21.3688 49.6139 21.3588 49.6139 21.3487 49.6139C20.9484 49.5038 20.7482 49.3237 20.7482 49.0734C20.7482 48.8933 20.8183 48.7532 20.9584 48.6431C21.0985 48.533 21.2787 48.4829 21.4989 48.4829C21.7191 48.4829 21.9293 48.543 22.1294 48.6831L21.9793 48.9834C21.8192 48.8833 21.649 48.8232 21.4689 48.8232C21.3688 48.8232 21.2987 48.8432 21.2286 48.8733C21.1686 48.9133 21.1386 48.9633 21.1386 49.0334C21.1386 49.0935 21.1686 49.1435 21.2286 49.1735C21.2687 49.1936 21.3287 49.2136 21.4088 49.2336C21.4889 49.2536 21.5589 49.2736 21.619 49.2936C21.679 49.3137 21.7391 49.3337 21.7992 49.3537C21.8592 49.3737 21.9193 49.4137 21.9793 49.4538C22.0994 49.5339 22.1695 49.674 22.1695 49.8541Z" fill="white"/>
<path d="M23.591 50.4649C23.3207 50.4649 23.0905 50.3748 22.9004 50.1947C22.7102 50.0145 22.6101 49.7743 22.6101 49.474C22.6101 49.1838 22.7102 48.9436 22.9104 48.7534C23.1106 48.5732 23.3608 48.4731 23.651 48.4731C23.9413 48.4731 24.1815 48.5732 24.3817 48.7734L24.1415 49.0637C23.9713 48.9135 23.8112 48.8435 23.641 48.8435C23.4709 48.8435 23.3207 48.9035 23.2006 49.0136C23.0805 49.1237 23.0105 49.2739 23.0105 49.444C23.0105 49.6242 23.0705 49.7743 23.1906 49.8944C23.3107 50.0145 23.4609 50.0746 23.641 50.0746C23.8212 50.0746 23.9914 49.9945 24.1515 49.8243L24.3917 50.0846C24.1715 50.3448 23.9013 50.4649 23.591 50.4649Z" fill="white"/>
<path d="M25.9429 48.8833C25.7427 48.8833 25.5926 48.9433 25.4925 49.0835C25.3924 49.2136 25.3424 49.3937 25.3424 49.6139V50.4447H24.932V48.5129H25.3424V48.9033C25.4124 48.7832 25.4925 48.6831 25.6126 48.603C25.7227 48.523 25.8428 48.4829 25.973 48.4829V48.8933C25.9629 48.8833 25.9529 48.8833 25.9429 48.8833Z" fill="white"/>
<path d="M26.5037 48.1228C26.4536 48.0727 26.4236 48.0127 26.4236 47.9426C26.4236 47.8726 26.4536 47.8125 26.5037 47.7625C26.5537 47.7124 26.6138 47.6824 26.6838 47.6824C26.7539 47.6824 26.8139 47.7024 26.864 47.7625C26.914 47.8125 26.9441 47.8726 26.9441 47.9426C26.9441 48.0127 26.914 48.0727 26.864 48.1228C26.8139 48.1728 26.7539 48.2029 26.6838 48.2029C26.6138 48.2029 26.5537 48.1728 26.5037 48.1228ZM26.884 50.4349H26.4736V48.5031H26.884V50.4349Z" fill="white"/>
<path d="M28.6155 48.4731C28.8757 48.4731 29.0959 48.5632 29.276 48.7434C29.4562 48.9235 29.5463 49.1638 29.5463 49.454C29.5463 49.7543 29.4562 49.9945 29.276 50.1747C29.0959 50.3648 28.8857 50.4549 28.6355 50.4549C28.3953 50.4549 28.1751 50.3448 27.9849 50.1346V51.1255H27.5745V48.4932H27.9849V48.8335C28.145 48.6033 28.3552 48.4731 28.6155 48.4731ZM27.9849 49.474C27.9849 49.6542 28.0449 49.8043 28.155 49.9244C28.2651 50.0445 28.4053 50.1046 28.5654 50.1046C28.7256 50.1046 28.8657 50.0445 28.9858 49.9344C29.1059 49.8143 29.1659 49.6642 29.1659 49.484C29.1659 49.3039 29.1059 49.1437 28.9958 49.0236C28.8757 48.9035 28.7456 48.8435 28.5754 48.8435C28.4153 48.8435 28.2752 48.9035 28.1651 49.0236C28.0349 49.1337 27.9849 49.2939 27.9849 49.474Z" fill="white"/>
<path d="M30.6274 48.8336V49.8145C30.6274 49.9046 30.6474 49.9847 30.6975 50.0347C30.7475 50.0848 30.8176 50.1148 30.8977 50.1148C30.9877 50.1148 31.0678 50.0747 31.1479 49.9847L31.318 50.2749C31.1779 50.405 31.0178 50.4651 30.8476 50.4651C30.6775 50.4651 30.5273 50.405 30.4072 50.2849C30.2871 50.1648 30.2271 50.0047 30.2271 49.8045V48.8336H29.9868V48.5033H30.2271V47.9028H30.6374V48.5033H31.1479V48.8336H30.6274Z" fill="white"/>
<path d="M31.7784 48.1228C31.7284 48.0727 31.6983 48.0127 31.6983 47.9426C31.6983 47.8726 31.7284 47.8125 31.7784 47.7625C31.8285 47.7124 31.8885 47.6824 31.9586 47.6824C32.0286 47.6824 32.0887 47.7024 32.1387 47.7625C32.1888 47.8125 32.2188 47.8726 32.2188 47.9426C32.2188 48.0127 32.1888 48.0727 32.1387 48.1228C32.0887 48.1728 32.0286 48.2029 31.9586 48.2029C31.8885 48.2029 31.8285 48.1728 31.7784 48.1228ZM32.1588 50.4349H31.7484V48.5031H32.1588V50.4349Z" fill="white"/>
<path d="M34.4606 50.1747C34.2704 50.3648 34.0302 50.4649 33.7399 50.4649C33.4497 50.4649 33.2095 50.3648 33.0193 50.1747C32.8291 49.9845 32.729 49.7443 32.729 49.474C32.729 49.1938 32.8291 48.9636 33.0193 48.7634C33.2095 48.5732 33.4497 48.4731 33.7399 48.4731C34.0302 48.4731 34.2704 48.5732 34.4606 48.7634C34.6508 48.9536 34.7509 49.1938 34.7509 49.474C34.7509 49.7443 34.6608 49.9845 34.4606 50.1747ZM33.2996 49.9244C33.4097 50.0445 33.5598 50.1046 33.7399 50.1046C33.9201 50.1046 34.0602 50.0445 34.1803 49.9244C34.2904 49.8043 34.3505 49.6542 34.3505 49.474C34.3505 49.2839 34.2904 49.1337 34.1803 49.0136C34.0702 48.8935 33.9201 48.8335 33.7399 48.8335C33.5598 48.8335 33.4197 48.8935 33.2996 49.0136C33.1895 49.1337 33.1294 49.2839 33.1294 49.474C33.1294 49.6542 33.1895 49.8043 33.2996 49.9244Z" fill="white"/>
<path d="M35.7321 49.394V50.4349H35.3217V48.5032H35.7321V48.8535C35.8021 48.7334 35.8922 48.6433 36.0023 48.5732C36.1124 48.5032 36.2425 48.4731 36.3726 48.4731C36.5928 48.4731 36.763 48.5432 36.9031 48.6733C37.0332 48.8034 37.1033 48.9936 37.1033 49.2538V50.4349H36.6929V49.3739C36.6929 49.0236 36.5428 48.8435 36.2525 48.8435C36.1124 48.8435 35.9923 48.8935 35.8822 48.9836C35.7821 49.0737 35.7321 49.2138 35.7321 49.394Z" fill="white"/>
<path d="M39.7053 48.2328C39.5852 48.2328 39.4751 48.2628 39.395 48.3129C39.3149 48.3629 39.2749 48.443 39.2749 48.5431C39.2749 48.6432 39.3149 48.7232 39.395 48.7833C39.4751 48.8333 39.6452 48.8934 39.9055 48.9534C40.1657 49.0135 40.3559 49.1036 40.496 49.2137C40.6261 49.3238 40.6962 49.4939 40.6962 49.7141C40.6962 49.9343 40.6161 50.1145 40.446 50.2546C40.2758 50.3947 40.0556 50.4648 39.7854 50.4648C39.385 50.4648 39.0347 50.3247 38.7344 50.0544L39.0047 49.7341C39.2649 49.9543 39.5251 50.0644 39.8054 50.0644C39.9455 50.0644 40.0556 50.0344 40.1357 49.9743C40.2158 49.9143 40.2558 49.8342 40.2558 49.7341C40.2558 49.634 40.2158 49.564 40.1457 49.5039C40.0656 49.4539 39.9355 49.4038 39.7553 49.3538C39.5652 49.3138 39.425 49.2737 39.335 49.2337C39.2349 49.1936 39.1548 49.1436 39.0747 49.0835C38.9246 48.9735 38.8545 48.7933 38.8545 48.5631C38.8545 48.3329 38.9446 48.1427 39.1148 48.0226C39.2849 47.8925 39.4951 47.8324 39.7453 47.8324C39.9055 47.8324 40.0656 47.8624 40.2258 47.9125C40.3859 47.9625 40.526 48.0426 40.6361 48.1327L40.4059 48.453C40.3359 48.3829 40.2258 48.3329 40.1057 48.2828C39.9555 48.2528 39.8254 48.2328 39.7053 48.2328Z" fill="white"/>
<path d="M42.2976 48.4731C42.5579 48.4731 42.7781 48.5632 42.9582 48.7434C43.1384 48.9235 43.2285 49.1638 43.2285 49.454C43.2285 49.7543 43.1384 49.9945 42.9582 50.1747C42.7781 50.3648 42.5679 50.4549 42.3177 50.4549C42.0774 50.4549 41.8572 50.3448 41.6671 50.1346V51.1255H41.2567V48.4932H41.6671V48.8335C41.8372 48.6033 42.0374 48.4731 42.2976 48.4731ZM41.6671 49.474C41.6671 49.6542 41.7271 49.8043 41.8372 49.9244C41.9473 50.0445 42.0875 50.1046 42.2476 50.1046C42.4077 50.1046 42.5479 50.0445 42.668 49.9344C42.7881 49.8143 42.8481 49.6642 42.8481 49.484C42.8481 49.3039 42.7881 49.1437 42.678 49.0236C42.5579 48.9035 42.4278 48.8435 42.2576 48.8435C42.0975 48.8435 41.9573 48.9035 41.8472 49.0236C41.7271 49.1337 41.6671 49.2939 41.6671 49.474Z" fill="white"/>
<path d="M45.3703 50.4349H45V50.1747C44.8398 50.3649 44.6296 50.4649 44.3594 50.4649C44.1592 50.4649 43.9891 50.4049 43.8589 50.2948C43.7288 50.1847 43.6588 50.0346 43.6588 49.8444C43.6588 49.6542 43.7288 49.5141 43.869 49.414C44.0091 49.3239 44.1992 49.2739 44.4395 49.2739H44.9599V49.2038C44.9599 48.9436 44.8198 48.8235 44.5295 48.8235C44.3494 48.8235 44.1692 48.8935 43.969 49.0237L43.7889 48.7734C44.0191 48.5833 44.2893 48.4932 44.5896 48.4932C44.8198 48.4932 45 48.5532 45.1501 48.6633C45.2902 48.7734 45.3703 48.9536 45.3703 49.2038V50.4349ZM44.9699 49.7143V49.5541H44.5095C44.2193 49.5541 44.0691 49.6442 44.0691 49.8344C44.0691 49.9245 44.1092 50.0045 44.1792 50.0446C44.2493 50.0946 44.3494 50.1146 44.4795 50.1146C44.6096 50.1146 44.7197 50.0746 44.8198 50.0045C44.9199 49.9345 44.9699 49.8444 44.9699 49.7143Z" fill="white"/>
<path d="M46.9019 50.4649C46.6317 50.4649 46.4015 50.3748 46.2113 50.1947C46.0211 50.0145 45.921 49.7743 45.921 49.474C45.921 49.1838 46.0211 48.9436 46.2213 48.7534C46.4215 48.5732 46.6717 48.4731 46.962 48.4731C47.2522 48.4731 47.4925 48.5732 47.6926 48.7734L47.4524 49.0637C47.2823 48.9135 47.1221 48.8435 46.952 48.8435C46.7818 48.8435 46.6317 48.9035 46.5116 49.0136C46.3915 49.1237 46.3214 49.2739 46.3214 49.444C46.3214 49.6242 46.3815 49.7743 46.5016 49.8944C46.6217 50.0145 46.7718 50.0746 46.952 50.0746C47.1321 50.0746 47.3023 49.9945 47.4624 49.8243L47.7026 50.0846C47.4825 50.3448 47.2122 50.4649 46.9019 50.4649Z" fill="white"/>
<path d="M50.0447 49.6442H48.5334C48.5434 49.7843 48.6034 49.8944 48.7235 49.9845C48.8436 50.0746 48.9737 50.1146 49.1339 50.1146C49.3741 50.1146 49.5543 50.0345 49.6844 49.8844L49.9146 50.1346C49.7044 50.3448 49.4342 50.4549 49.1039 50.4549C48.8336 50.4549 48.6034 50.3648 48.4132 50.1847C48.2231 50.0045 48.133 49.7643 48.133 49.464C48.133 49.1638 48.2331 48.9235 48.4233 48.7434C48.6134 48.5632 48.8436 48.4731 49.1039 48.4731C49.3641 48.4731 49.5843 48.5532 49.7745 48.7134C49.9546 48.8735 50.0547 49.0937 50.0547 49.3639V49.6442H50.0447ZM48.5334 49.3239H49.6343C49.6343 49.1638 49.5843 49.0336 49.4842 48.9536C49.3841 48.8635 49.254 48.8235 49.1039 48.8235C48.9537 48.8235 48.8236 48.8635 48.7035 48.9636C48.5834 49.0537 48.5334 49.1738 48.5334 49.3239Z" fill="white"/>
<path d="M5.54474 47.6826L4.46377 46.5916L3.03248 48.0329L1.59119 46.5916L0.510223 47.6826L1.94151 49.1138L0.510223 50.5451L1.59119 51.6261L3.03248 50.1948L4.46377 51.6261L5.54474 50.5451L4.11345 49.1138L5.54474 47.6826Z" fill="#FF3B3B"/>
</svg>
