<svg width="37" height="10" viewBox="0 0 37 10" fill="none" xmlns="http://www.w3.org/2000/svg">
<path d="M35.7591 9.80475H1.24072C0.554795 9.80475 0 9.24996 0 8.56403V1.24072C0 0.554791 0.554795 0 1.24072 0H35.7591C36.445 0 36.9998 0.554791 36.9998 1.24072V8.56403C37.0099 9.24996 36.4551 9.80475 35.7591 9.80475Z" fill="white"/>
<path d="M10.7633 5.92102C10.5817 5.8605 10.4304 5.78989 10.3295 5.6991L10.4909 5.32588C10.5918 5.40658 10.7229 5.47719 10.8742 5.52762C11.0255 5.57806 11.1768 5.60832 11.3282 5.60832C11.5198 5.60832 11.661 5.57806 11.7518 5.51754C11.8426 5.45702 11.893 5.37632 11.893 5.27544C11.893 5.20483 11.8628 5.14432 11.8123 5.09388C11.7619 5.04345 11.6913 5.01318 11.6106 4.98292C11.5299 4.95266 11.4189 4.9224 11.2777 4.89214C11.0861 4.8417 10.9247 4.80134 10.8036 4.75091C10.6826 4.70047 10.5817 4.62987 10.4909 4.529C10.4001 4.42813 10.3598 4.29699 10.3598 4.1255C10.3598 3.98428 10.4001 3.85315 10.4707 3.74219C10.5514 3.63123 10.6624 3.53037 10.8137 3.46984C10.965 3.39923 11.1567 3.36896 11.3786 3.36896C11.5299 3.36896 11.6913 3.38914 11.8426 3.42949C11.9939 3.46983 12.125 3.52027 12.236 3.60097L12.0847 3.9742C11.9737 3.90359 11.8527 3.85315 11.7316 3.82289C11.6106 3.79262 11.4895 3.77246 11.3786 3.77246C11.1869 3.77246 11.0558 3.80272 10.965 3.86324C10.8742 3.92377 10.8238 4.01455 10.8238 4.11542C10.8238 4.18603 10.8541 4.24655 10.9045 4.29698C10.9549 4.34742 11.0255 4.37768 11.1062 4.40794C11.1869 4.43821 11.2979 4.46846 11.4391 4.49873C11.6308 4.53907 11.7821 4.58952 11.9031 4.63996C12.0242 4.6904 12.125 4.761 12.2158 4.85178C12.3066 4.95266 12.347 5.08379 12.347 5.24518C12.347 5.3864 12.3066 5.51754 12.236 5.6285C12.1553 5.73946 12.0443 5.83025 11.8829 5.90086C11.7316 5.97147 11.54 6.00172 11.3181 6.00172C11.1365 6.00172 10.9448 5.97146 10.7633 5.92102Z" fill="#005ABF"/>
<path d="M15.1614 5.56777V5.96117H13.2449V3.39901H15.111V3.79241H13.719V4.45817H14.9496V4.85157H13.719V5.55767H15.1614V5.56777Z" fill="#005ABF"/>
<path d="M16.0893 3.40935H16.5634V5.56801H17.905V5.97149H16.0893V3.40935Z" fill="#005ABF"/>
<path d="M20.5981 5.56777V5.96117H18.6815V3.39901H20.5476V3.79241H19.1556V4.45817H20.3862V4.85157H19.1556V5.55767H20.5981V5.56777Z" fill="#005ABF"/>
<path d="M22.0106 5.83024C21.7988 5.71928 21.6374 5.55789 21.5164 5.35614C21.3953 5.1544 21.3348 4.93248 21.3348 4.6803C21.3348 4.42812 21.3953 4.20621 21.5164 4.00446C21.6374 3.80272 21.7988 3.6514 22.0106 3.54045C22.2225 3.42949 22.4545 3.36896 22.7067 3.36896C22.9185 3.36896 23.1102 3.40931 23.2816 3.47992C23.4531 3.55053 23.6044 3.6615 23.7154 3.80272L23.4128 4.09524C23.2312 3.8935 22.9992 3.79262 22.7268 3.79262C22.5554 3.79262 22.394 3.83297 22.2527 3.90358C22.1115 3.98428 22.0006 4.08516 21.93 4.22638C21.8493 4.3676 21.8089 4.5189 21.8089 4.69038C21.8089 4.86187 21.8493 5.02327 21.93 5.1544C22.0106 5.29562 22.1115 5.39649 22.2527 5.47718C22.394 5.55788 22.5453 5.58814 22.7268 5.58814C22.9992 5.58814 23.2211 5.48728 23.4128 5.28554L23.7154 5.57806C23.5943 5.71928 23.4531 5.82016 23.2715 5.90086C23.1001 5.97147 22.9084 6.0118 22.6966 6.0118C22.4444 6.00172 22.2124 5.95129 22.0106 5.83024Z" fill="#005ABF"/>
<path d="M25.0669 3.81283H24.2196V3.40935H26.3883V3.81283H25.541V5.97149H25.0669V3.81283Z" fill="#005ABF"/>
</svg>
