<svg width="32" height="32" viewBox="0 0 32 32" fill="none" xmlns="http://www.w3.org/2000/svg">
<path d="M0.00503221 10.6248C0.118257 10.5493 0.093096 10.4209 0.115741 10.3177C0.603866 8.19382 2.43056 6.69901 4.60699 6.67888C6.59472 6.66127 8.58496 6.66882 10.5727 6.67636C12.1981 6.6814 13.3178 7.80376 13.3228 9.42942C13.3278 12.3863 13.3278 15.3432 13.3178 18.3026C13.3178 18.6046 13.3932 18.6876 13.6952 18.6826C14.7368 18.6625 15.7785 18.6751 16.8177 18.6751C17.5775 18.6751 17.8216 18.9896 17.6253 19.7144C17.4995 20.1875 17.3913 20.6631 17.341 21.1513C17.263 21.8937 17.8291 22.558 18.5991 22.6109C19.3313 22.6612 20.0131 22.0195 19.9905 21.2771C19.9729 20.7034 19.8194 20.1472 19.6634 19.5986C19.603 19.3872 19.6005 19.1884 19.7187 18.9972C19.8571 18.7732 20.0634 18.6776 20.3226 18.6776C21.1554 18.6801 21.9883 18.6625 22.8211 18.6876C24.1496 18.7279 25.2919 19.8503 25.307 21.1815C25.3322 23.3356 25.3473 25.4923 25.302 27.6464C25.2592 29.7577 23.4627 31.6728 21.3693 31.9446C21.0699 31.9848 20.7679 31.9999 20.466 31.9999C15.2703 31.9999 10.0745 31.9999 4.87873 31.9999C2.40791 31.9999 0.611414 30.5655 0.070451 28.1623C0.0578705 28.1044 0.0729671 28.0339 0 28.0012C0.00503221 22.2057 0.00503221 16.4152 0.00503221 10.6248ZM12.0018 27.8276C11.6773 27.8779 11.3804 27.9282 11.0809 27.971C9.71217 28.1673 8.39877 27.2865 8.07922 25.9578C7.75213 24.5964 8.51451 23.2375 9.85811 22.7946C10.4846 22.5882 11.1136 22.6662 11.7376 22.7971C11.9389 22.8399 12.0094 22.8021 12.0043 22.5807C11.9918 21.8106 11.9918 21.0406 12.0043 20.2705C12.0094 20.0491 11.9465 19.9937 11.7276 19.9962C10.6255 20.0063 9.52095 20.0038 8.41638 20.0012C7.79993 19.9987 7.52316 19.6439 7.67916 19.0475C7.82006 18.5039 7.97606 17.9629 7.99367 17.3967C8.01632 16.6317 7.35961 16.0227 6.57962 16.0654C5.83988 16.1057 5.28382 16.7675 5.34924 17.5099C5.39453 18.0208 5.51531 18.514 5.64614 19.0072C5.81221 19.6414 5.54047 19.9987 4.8888 20.0012C3.80687 20.0038 2.72243 20.0088 1.6405 19.9962C1.4065 19.9937 1.32096 20.0415 1.32347 20.2982C1.33354 22.6083 1.3285 24.921 1.33102 27.2312C1.33102 27.586 1.37631 27.9358 1.47695 28.278C1.90973 29.7225 3.19294 30.6637 4.76551 30.6687C7.07529 30.6763 9.3876 30.6712 11.6974 30.6712C11.7502 30.6712 11.8005 30.6687 11.8534 30.6712C11.9616 30.6763 11.9993 30.6209 11.9993 30.5177C12.0018 29.6244 12.0018 28.7285 12.0018 27.8276ZM16.1685 20.0012C15.3231 20.0012 14.5129 20.0138 13.7027 19.9937C13.4109 19.9861 13.3127 20.0465 13.3203 20.3611C13.3429 21.4331 13.3303 22.5052 13.3278 23.5772C13.3253 24.2114 12.9705 24.4781 12.3516 24.312C11.8282 24.1736 11.3074 24.0277 10.7639 24.0025C10.0091 23.9698 9.36998 24.6115 9.39263 25.3538C9.41779 26.144 10.0971 26.7279 10.8771 26.6448C11.3753 26.592 11.8609 26.4762 12.3415 26.3504C12.9907 26.1793 13.3278 26.4334 13.3278 27.1003C13.3303 28.1925 13.3329 29.2871 13.3253 30.3793C13.3228 30.5857 13.3656 30.6712 13.597 30.6712C15.9395 30.6637 18.282 30.6813 20.622 30.6612C22.4839 30.6461 23.9634 29.2418 23.9886 27.4551C24.0188 25.4042 24.0037 23.3532 23.9936 21.3048C23.9911 20.5725 23.4073 20.0138 22.6701 20.0012C22.255 19.9937 21.8373 20.0113 21.4221 19.9962C21.2058 19.9887 21.1504 20.0566 21.2007 20.263C21.2913 20.6279 21.3265 21.0003 21.3215 21.3778C21.3089 22.7342 20.2572 23.8741 18.9085 23.9924C17.5574 24.1132 16.322 23.1821 16.0528 21.8584C15.9295 21.2369 16.0704 20.6379 16.1685 20.0012ZM12.0018 13.8459C12.0018 12.3687 12.0043 10.889 12.0018 9.4118C11.9993 8.56374 11.4407 8.00256 10.5928 8.00256C8.63528 8.00005 6.68026 8.00256 4.72273 8.00005C4.44093 8.00005 4.16164 8.03024 3.8899 8.09819C2.33998 8.48825 1.33857 9.79431 1.33354 11.4477C1.32599 13.2495 1.33102 15.0488 1.33102 16.8506C1.33102 17.3816 1.33354 17.9126 1.3285 18.4435C1.3285 18.5895 1.35367 18.6776 1.53231 18.6751C2.35508 18.67 3.17784 18.67 3.99809 18.6751C4.13145 18.6751 4.18177 18.6499 4.14654 18.4964C4.09119 18.2422 4.061 17.983 4.02577 17.7263C3.82952 16.2869 4.78815 14.9607 6.20724 14.704C7.60368 14.4524 8.95483 15.3633 9.26682 16.7801C9.38508 17.3187 9.31714 17.8572 9.2014 18.3882C9.1536 18.6121 9.20644 18.6801 9.43792 18.6751C10.1877 18.6625 10.9375 18.6574 11.6848 18.6776C11.9565 18.6851 12.0043 18.5895 12.0018 18.3429C11.9968 16.843 12.0018 15.3457 12.0018 13.8459Z" fill="black"/>
<path d="M27.9339 0.0025165C28.2182 0.0830446 28.5075 0.148474 28.7893 0.241584C30.694 0.87071 31.9848 2.62975 31.9923 4.62785C32.0024 6.62595 31.9999 8.62405 31.9923 10.6247C31.9873 12.1597 30.84 13.3048 29.3102 13.3224C28.8824 13.3274 28.4572 13.3274 28.0295 13.3198C27.8659 13.3173 27.8206 13.3475 27.8533 13.5312C27.9565 14.0723 28.0496 14.6133 27.9414 15.1695C27.6772 16.5309 26.4393 17.4419 25.0076 17.3085C23.7294 17.1902 22.6878 16.0352 22.6702 14.7215C22.6651 14.334 22.7029 13.9515 22.7934 13.5765C22.8387 13.3928 22.7985 13.3123 22.5871 13.3173C22.1292 13.3299 21.6713 13.3299 21.2133 13.3173C19.8496 13.2796 18.7148 12.1648 18.6771 10.8033C18.6545 9.97038 18.662 9.13742 18.6721 8.30446C18.6771 7.80619 19.057 7.52686 19.5426 7.6552C20.0459 7.78858 20.5491 7.91692 21.0649 7.98486C21.8499 8.08552 22.5016 7.56964 22.5972 6.77946C22.6802 6.09497 22.1393 5.41803 21.4121 5.34757C20.9542 5.30479 20.5063 5.43313 20.061 5.54134C19.8597 5.58915 19.6609 5.65962 19.4571 5.68981C18.9966 5.75776 18.6796 5.49604 18.6746 5.03049C18.6645 4.21766 18.6595 3.40734 18.6771 2.59451C18.6997 1.43944 19.4395 0.473103 20.5365 0.120792C20.6296 0.0905941 20.7479 0.103177 20.8108 0C23.186 0.0025165 25.5612 0.0025165 27.9339 0.0025165ZM24.371 1.34633C24.371 1.3413 24.371 1.33375 24.371 1.32871C23.3822 1.32871 22.3934 1.32116 21.4046 1.33123C20.5516 1.33878 20.0031 1.89996 19.9981 2.74802C19.9955 3.14311 20.0031 3.5382 19.9955 3.93581C19.9905 4.11448 20.0106 4.20256 20.2295 4.13965C20.4585 4.07673 20.7 4.05409 20.9366 4.02137C22.3456 3.8276 23.6892 4.78136 23.9408 6.14782C24.2075 7.59481 23.3394 8.93358 21.9153 9.26325C21.3769 9.38907 20.8384 9.32616 20.3075 9.20788C20.0584 9.15252 19.9804 9.20788 19.9955 9.46708C20.0157 9.83953 19.9981 10.217 20.0006 10.592C20.0056 11.44 20.5617 11.9962 21.4121 11.9987C22.1518 12.0012 22.8891 12.0037 23.6288 11.9987C23.8603 11.9962 24.0616 12.0566 24.2151 12.2352C24.3836 12.434 24.4088 12.658 24.3383 12.9097C24.1823 13.4608 24.0289 14.0144 24.0087 14.5882C23.9811 15.3582 24.6277 15.9697 25.4077 15.937C26.1625 15.9043 26.7236 15.2399 26.6506 14.4749C26.6003 13.954 26.4745 13.4532 26.3412 12.9499C26.1877 12.3762 26.477 12.0037 27.0658 12.0012C27.8055 11.9962 28.5428 12.0037 29.2825 11.9987C30.0902 11.9937 30.6638 11.435 30.6689 10.6247C30.6789 8.66683 30.689 6.709 30.6663 4.75367C30.6462 2.8663 29.4083 1.50487 27.5288 1.36143C26.4795 1.2809 25.4228 1.34633 24.371 1.34633Z" fill="black"/>
</svg>
