<svg width="17" height="20" viewBox="0 0 17 20" fill="none" xmlns="http://www.w3.org/2000/svg">
<path d="M8.5 20C16.0544 15.623 17.0332 8.39048 16.9992 4.733C16.8367 4.8042 16.6477 4.84542 16.4361 4.84542C15.4535 4.84542 15.0227 4.00225 15.1361 3.25651C14.5012 3.37643 13.6622 3.41016 12.5701 3.22653C10.1023 2.81432 8.54535 0.0524639 8.5 0C8.45465 0.0524639 6.89767 2.81057 4.42992 3.22653C3.33777 3.41016 2.49881 3.37643 1.86392 3.25651C1.98107 4.00225 1.54648 4.84542 0.563918 4.84542C0.34851 4.84542 0.163333 4.8042 0.000831974 4.733C-0.0331798 8.39423 0.945606 15.623 8.5 20Z" fill="#FEDA00"/>
</svg>
