<svg width="13" height="8" viewBox="0 0 13 8" fill="none" xmlns="http://www.w3.org/2000/svg">
<g clip-path="url(#clip0_1_904)">
<path d="M12.9914 1.30724C12.9339 1.56587 12.7608 1.74041 12.5884 1.91942C10.7484 3.83413 8.91071 5.75125 7.07203 7.66734C6.78534 7.96615 6.45436 8.02709 6.1439 7.84045C6.07009 7.7962 6.00882 7.73576 5.94888 7.67361C4.05457 5.70941 2.15993 3.74555 0.265953 1.78066C-0.0857522 1.41597 -0.0863042 0.988948 0.263133 0.623358C0.4002 0.480151 0.532628 0.330761 0.679963 0.199918C0.960098 -0.0490274 1.33615 -0.0381683 1.61528 0.214866C1.65336 0.249543 1.68913 0.286973 1.72523 0.324059C3.28737 1.94384 4.8505 3.56293 6.40967 5.18581C6.49081 5.27029 6.52685 5.2613 6.60215 5.18247C8.16636 3.54729 9.73389 1.91486 11.3011 0.28209C11.5821 -0.0108654 11.9286 -0.0931435 12.214 0.125845C12.5159 0.357877 12.8189 0.607786 12.9649 0.994052C12.9686 1.00402 12.9821 1.00985 12.9911 1.0174C12.9912 1.11401 12.9913 1.21063 12.9914 1.30724Z" fill="black"/>
</g>
<defs>
<clipPath id="clip0_1_904">
<rect width="7.74627" height="12.6757" fill="white" transform="translate(12.9897) scale(1.02477) rotate(89.9258)"/>
</clipPath>
</defs>
</svg>
