<svg width="35" height="25" viewBox="0 0 35 25" fill="none" xmlns="http://www.w3.org/2000/svg">
<path d="M0 7.66428C0.774539 5.5939 2.43337 4.12519 3.70023 2.39112C4.15805 1.76476 4.66919 1.17234 5.2838 0.681745C6.24962 -0.08655 7.19036 -0.185287 8.29416 0.388621C8.99344 0.752712 9.58296 1.27108 10.1913 1.75551C10.4359 1.9499 10.6774 2.01469 10.9721 2.00235C12.2139 1.95607 13.4463 1.82647 14.6818 1.70922C15.8483 1.59815 17.0116 1.40993 18.1813 1.66911C19.0091 1.85424 19.7711 2.20291 20.5488 2.52072C20.6868 2.57626 20.8185 2.62871 20.9753 2.61328C21.8596 2.52997 22.747 2.50529 23.625 2.34484C23.9668 2.28313 24.271 2.15971 24.5501 1.94681C25.1898 1.46238 25.8075 0.944015 26.5005 0.527469C27.8395 -0.280938 28.9151 -0.163688 30.0597 0.903903C30.8405 1.63209 31.4457 2.50837 32.0916 3.34764C32.8881 4.38437 33.7536 5.37174 34.4372 6.4887C34.8637 7.18294 35.1428 7.92347 34.9233 8.75656C34.7351 9.46314 34.2679 9.98768 33.7034 10.4166C32.9101 11.0213 32.1544 11.657 31.4645 12.3759C30.7307 13.1411 29.8025 13.6564 28.8398 14.1038C28.7364 14.1501 28.636 14.1994 28.5043 14.2611C28.8147 14.6869 28.9872 15.1374 28.9998 15.6589C29.0374 17.143 27.4381 18.6426 25.7699 18.0563C25.4375 17.9391 25.5284 18.1952 25.5065 18.3186C25.2807 19.5651 24.133 20.497 22.8944 20.4322C22.4303 20.4075 22.4303 20.4075 22.3362 20.8734C22.0853 22.1076 20.9345 22.9901 19.6614 22.9037C19.4576 22.8883 19.4293 22.9592 19.3854 23.1228C19.1095 24.1286 18.4792 24.7889 17.4099 24.971C16.9082 25.0574 16.4378 24.9525 16.0301 24.6347C15.6821 24.3631 15.3277 24.1009 14.9828 23.8263C14.8605 23.7275 14.7664 23.6843 14.6441 23.8263C13.5905 25.0358 11.4895 24.3631 11.0066 22.7895C10.9251 22.5211 10.8341 22.4347 10.5331 22.4409C9.20667 22.4779 8.05897 21.4103 7.95863 20.065C7.94295 19.849 7.91473 19.7688 7.66073 19.7688C6.2998 19.778 5.18032 18.7259 5.1176 17.3806C5.1082 17.143 5.02353 17.1214 4.81657 17.1214C3.01349 17.1276 1.70587 15.2146 2.46473 13.6872C2.66542 13.283 3.00408 12.993 3.3208 12.6906C3.54344 12.4777 3.52776 12.3203 3.34588 12.0982C3.14206 11.8513 2.91315 11.6384 2.66228 11.444C2.18878 11.0769 1.72155 10.7004 1.2355 10.3456C0.658515 9.92289 0.257135 9.38601 0.0689873 8.69793C0.05958 8.66399 0.0533084 8.6208 0 8.60537C0 8.29065 0 7.97901 0 7.66428ZM18.8555 2.82618C18.3757 2.62562 17.9492 2.52072 17.5071 2.48061C16.4535 2.38187 15.4187 2.56083 14.3744 2.65339C13.0825 2.76447 11.7937 2.94652 10.4923 2.87555C10.2289 2.86012 10.0816 2.94035 9.9279 3.13474C7.98058 5.59081 6.02385 8.04072 4.07025 10.4906C3.6187 11.0584 3.6187 11.0522 4.0922 11.5952C4.18628 11.7032 4.24272 11.731 4.36188 11.6323C4.6002 11.4348 4.87615 11.3021 5.18032 11.2311C6.66668 10.8794 8.175 12.0303 8.25653 13.5885C8.26593 13.7921 8.30984 13.8446 8.52307 13.8446C9.90281 13.8508 10.969 14.8104 11.1007 16.168C11.1258 16.421 11.1822 16.492 11.4519 16.4951C12.9414 16.5105 14.1299 17.8558 13.9323 19.306C13.8978 19.5528 13.9386 19.633 14.18 19.7133C15.588 20.1853 16.2402 21.7806 15.5096 22.879C15.4155 23.0178 15.4877 23.0734 15.5849 23.1474C15.911 23.3943 16.2308 23.6411 16.5538 23.891C16.742 24.0361 16.9521 24.0916 17.1904 24.0854C17.9022 24.0608 18.567 23.3357 18.52 22.6352C18.5106 22.4748 18.4353 22.3668 18.3099 22.2711C17.9022 21.9626 17.5008 21.651 17.0994 21.3393C16.7953 21.1017 16.7388 20.8549 16.9333 20.6235C17.1151 20.4075 17.3629 20.4013 17.6545 20.6235C18.1405 20.9937 18.6203 21.3733 19.1095 21.7404C19.7398 22.2125 20.5927 22.049 21.1164 21.3671C21.6369 20.6914 21.5711 19.883 20.9439 19.3954C20.5237 19.0684 20.1035 18.7444 19.6802 18.4204C19.6175 18.371 19.5548 18.3248 19.4921 18.2754C19.2318 18.0563 19.1785 17.7817 19.3572 17.575C19.5328 17.3713 19.7868 17.3621 20.0565 17.5657C20.7871 18.1211 21.5115 18.6827 22.2359 19.2412C22.3895 19.3615 22.5526 19.4602 22.747 19.5003C23.4337 19.6392 24.1393 19.2566 24.4654 18.5685C24.7821 17.902 24.6285 17.3189 24.017 16.8468C23.3083 16.3007 22.5996 15.7545 21.8941 15.2084C21.6808 15.0418 21.593 14.835 21.7435 14.5913C21.8815 14.366 22.0979 14.3259 22.3362 14.4216C22.4177 14.4555 22.4899 14.5203 22.5589 14.5728C23.625 15.3935 24.6943 16.2174 25.7605 17.0381C25.8765 17.1276 25.9894 17.2263 26.1368 17.2664C26.7577 17.4361 27.5479 17.0381 27.896 16.384C28.244 15.7268 28.1155 15.0881 27.5416 14.6468C26.2779 13.6718 25.0173 12.6937 23.7505 11.7217C22.4679 10.7344 21.1885 9.74393 19.8903 8.77507C19.3039 8.33693 18.6454 8.11786 17.874 8.25053C16.9333 8.41407 15.9862 8.54366 15.033 8.62697C13.7285 8.74113 12.5651 8.42024 11.731 7.3403C11.0223 6.4239 11.1477 4.88731 12.8097 4.68675C13.4525 4.60962 14.0797 4.48002 14.6974 4.25478C16.0584 3.77035 17.3973 3.24581 18.8555 2.82618ZM12.2452 6.19249C12.286 6.56275 12.4648 6.86513 12.7501 7.10889C13.324 7.59949 14.0044 7.80005 14.7445 7.73525C15.5817 7.66428 16.4127 7.53161 17.25 7.42978C17.8364 7.35882 18.4196 7.24465 19.0123 7.3835C19.7649 7.55938 20.3826 7.97592 20.9753 8.43258C23.1358 10.0957 25.2964 11.7619 27.4569 13.428C27.5792 13.5206 27.6765 13.6286 27.874 13.5453C29.1346 13.0208 30.2886 12.345 31.2293 11.3453C31.3924 11.1725 31.3641 11.0676 31.2293 10.8979C30.1286 9.50017 29.0343 8.09317 27.9399 6.68926C26.9834 5.46431 26.027 4.23627 25.0675 3.01131C24.9797 2.90024 24.9264 2.76756 24.7194 2.86321C23.6532 3.35381 22.4993 3.42169 21.3547 3.48957C19.9875 3.57288 18.6579 3.77035 17.3566 4.2517C16.0113 4.74846 14.7006 5.381 13.2456 5.54453C13.0417 5.56613 12.841 5.60624 12.6435 5.65561C12.3707 5.72658 12.2735 5.93331 12.2452 6.19249ZM0.928193 8.20116C0.940736 8.74113 1.24804 9.18545 1.69019 9.55262C2.01945 9.82724 2.37693 10.071 2.70618 10.3456C2.87238 10.4845 2.94764 10.4505 3.06994 10.2931C3.91973 9.21322 4.77894 8.13945 5.63814 7.06569C6.83915 5.55996 8.04016 4.05422 9.23803 2.54232C9.31329 2.44975 9.50457 2.35101 9.29134 2.19674C8.83351 1.8635 8.41332 1.48398 7.91473 1.20937C7.14959 0.789739 6.55693 0.839107 5.86392 1.37907C5.63187 1.56112 5.41237 1.75859 5.22736 1.98384C4.79462 2.5022 4.35561 3.02057 3.94168 3.55128C3.08561 4.65281 2.14488 5.69572 1.37975 6.86513C1.12888 7.25391 0.931329 7.66737 0.928193 8.20116ZM28.128 0.925502C27.6984 0.91933 27.3535 1.06435 27.0368 1.27108C26.6667 1.51175 26.3249 1.79253 25.9518 2.03012C25.6946 2.19365 25.6664 2.31707 25.8671 2.567C27.065 4.07582 28.244 5.60007 29.4294 7.12123C30.2541 8.17957 31.0788 9.2379 31.9066 10.2901C31.9756 10.3765 32.0195 10.577 32.2108 10.4227C32.6906 10.0432 33.208 9.71307 33.6188 9.25641C34.0891 8.73496 34.1863 8.15488 33.9229 7.51001C33.7317 7.03792 33.4557 6.61212 33.1453 6.211C32.1418 4.90891 31.1321 3.60682 30.1192 2.3109C29.8276 1.93755 29.5078 1.5858 29.1189 1.30194C28.8179 1.08286 28.4886 0.906988 28.128 0.925502ZM10.1913 16.3408C10.2039 15.9458 10.0596 15.6249 9.82128 15.3411C9.15963 14.5512 8.2189 14.5296 7.50394 15.2824C7.13705 15.665 6.76076 16.0384 6.39701 16.4241C5.84197 17.0103 5.89842 17.8311 6.53184 18.4266C7.16841 19.0252 8.00566 19.0529 8.57324 18.4852C9.00284 18.0532 9.42304 17.612 9.84324 17.1739C10.069 16.9363 10.2039 16.6586 10.1913 16.3408ZM4.84793 16.2174C5.1176 16.2204 5.36847 16.1803 5.56602 15.9736C6.04893 15.4676 6.53812 14.9677 7.02103 14.4648C7.25308 14.2241 7.34715 13.9341 7.33461 13.607C7.31265 12.9128 6.75135 12.2525 6.0458 12.1013C5.54407 11.9933 5.11447 12.0735 4.76012 12.487C4.37756 12.9313 3.95423 13.3386 3.54344 13.7582C3.38351 13.9217 3.26122 14.1038 3.20164 14.329C2.96645 15.2578 3.80685 16.2266 4.84793 16.2174ZM10.5551 21.543C10.8498 21.5491 11.154 21.4288 11.4049 21.1665C11.8251 20.7284 12.2484 20.2902 12.6749 19.8552C13.0637 19.4602 13.1515 19.0005 12.9633 18.4945C12.5494 17.3929 11.0944 16.9826 10.3732 17.9175C10.0377 18.3525 9.61746 18.7197 9.22862 19.1147C9.00598 19.343 8.88368 19.6053 8.87741 19.9262C8.8586 20.7808 9.61432 21.5399 10.5551 21.543ZM13.2362 23.5393C13.8602 23.5362 14.9138 22.4594 14.8981 21.8453C14.8981 21.8237 14.8981 21.7991 14.895 21.7775C14.8417 21.1943 14.3149 20.6235 13.7285 20.5217C13.4839 20.4785 13.2769 20.5093 13.0919 20.7222C12.7438 21.1202 12.3675 21.4998 11.9881 21.8669C11.8282 22.0212 11.8 22.1878 11.8313 22.3822C11.9348 23.0086 12.5839 23.5424 13.2362 23.5393Z" fill="black"/>
</svg>
