<svg width="58" height="67" viewBox="0 0 58 67" fill="none" xmlns="http://www.w3.org/2000/svg">
<path d="M16.3366 1.89285C16.2164 1.89285 16.1063 1.9229 16.0261 1.97298C15.946 2.02306 15.9059 2.10319 15.9059 2.20336C15.9059 2.30352 15.946 2.38366 16.0261 2.44375C16.1063 2.49384 16.2765 2.55393 16.537 2.61403C16.7974 2.67413 16.9977 2.76428 17.1279 2.87446C17.2581 2.98464 17.3283 3.15492 17.3283 3.37528C17.3283 3.59564 17.2481 3.77594 17.0778 3.91617C16.9076 4.0564 16.6872 4.12651 16.4168 4.12651C16.0161 4.12651 15.6655 3.98628 15.365 3.71584L15.6355 3.39532C15.8959 3.61568 16.1563 3.72586 16.4368 3.72586C16.577 3.72586 16.6872 3.69581 16.7673 3.63571C16.8475 3.57561 16.8875 3.49548 16.8875 3.39532C16.8875 3.29515 16.8475 3.22504 16.7774 3.16494C16.6972 3.11486 16.567 3.06477 16.3867 3.01469C16.1964 2.97462 16.0562 2.93456 15.966 2.89449C15.8659 2.85443 15.7857 2.80434 15.7056 2.74425C15.5554 2.63407 15.4852 2.45377 15.4852 2.22339C15.4852 1.99301 15.5754 1.8027 15.7457 1.6825C15.9159 1.55229 16.1263 1.49219 16.3767 1.49219C16.537 1.49219 16.6972 1.52224 16.8575 1.57233C17.0178 1.62241 17.158 1.70254 17.2682 1.79268L17.0378 2.11321C16.9677 2.0431 16.8575 1.99301 16.7373 1.94293C16.587 1.91288 16.4668 1.89285 16.3366 1.89285Z" fill="white"/>
<path d="M19.4719 4.09662H19.1013V3.83619C18.941 4.02651 18.7307 4.12667 18.4603 4.12667C18.2599 4.12667 18.0896 4.06657 17.9594 3.95639C17.8292 3.84621 17.7591 3.69597 17.7591 3.50565C17.7591 3.31534 17.8292 3.17511 17.9694 3.07495C18.1097 2.9848 18.3 2.93471 18.5404 2.93471H19.0612V2.8646C19.0612 2.60417 18.921 2.48398 18.6305 2.48398C18.4502 2.48398 18.2699 2.55409 18.0696 2.6843L17.8893 2.43389C18.1197 2.24358 18.3901 2.15343 18.6906 2.15343C18.921 2.15343 19.1013 2.21353 19.2515 2.32371C19.3918 2.4339 19.4719 2.61419 19.4719 2.8646V4.09662ZM19.0612 3.37544V3.21518H18.6005C18.31 3.21518 18.1598 3.30532 18.1598 3.49563C18.1598 3.58578 18.1998 3.66591 18.2699 3.70598C18.3401 3.75606 18.4402 3.77609 18.5704 3.77609C18.7006 3.77609 18.8108 3.73603 18.911 3.66592C19.0112 3.5958 19.0612 3.49564 19.0612 3.37544Z" fill="white"/>
<path d="M20.5536 3.04511V4.08682H20.1429V2.15365H20.5536V2.50422C20.6137 2.38403 20.7038 2.29388 20.814 2.22376C20.9342 2.15365 21.0544 2.1236 21.1946 2.1236C21.4951 2.1236 21.7055 2.2438 21.8156 2.50422C22.0059 2.25381 22.2463 2.1236 22.5268 2.1236C22.7472 2.1236 22.9174 2.19372 23.0577 2.32393C23.1879 2.45414 23.258 2.64445 23.258 2.90488V4.08682H22.8473V3.02508C22.8473 2.6745 22.6971 2.49421 22.4066 2.49421C22.2664 2.49421 22.1462 2.53427 22.046 2.62442C21.9458 2.71457 21.8857 2.84478 21.8857 3.01506V4.08682H21.4751V3.02508C21.4751 2.84478 21.445 2.70455 21.3749 2.62442C21.3048 2.53427 21.2046 2.49421 21.0644 2.49421C20.9242 2.49421 20.804 2.54429 20.6938 2.63444C20.6036 2.7346 20.5536 2.86481 20.5536 3.04511Z" fill="white"/>
<path d="M24.9608 2.13338C25.2212 2.13338 25.4416 2.22353 25.6219 2.40382C25.8022 2.58412 25.8923 2.82451 25.8923 3.11499C25.8923 3.41548 25.8022 3.65588 25.6219 3.83617C25.4416 4.02649 25.2313 4.11663 24.9808 4.11663C24.7404 4.11663 24.5201 4.00645 24.3298 3.79611V4.78774H23.9191V2.15341H24.3298V2.49397C24.5001 2.25358 24.7104 2.13338 24.9608 2.13338ZM24.3298 3.13502C24.3298 3.31532 24.3899 3.46557 24.5001 3.58576C24.6102 3.70596 24.7505 3.76606 24.9107 3.76606C25.071 3.76606 25.2112 3.70596 25.3314 3.59578C25.4516 3.47558 25.5117 3.32534 25.5117 3.14504C25.5117 2.96475 25.4516 2.80448 25.3414 2.68428C25.2212 2.56409 25.091 2.50399 24.9207 2.50399C24.7605 2.50399 24.6203 2.56409 24.5101 2.68428C24.3899 2.79446 24.3298 2.94471 24.3298 3.13502Z" fill="white"/>
<path d="M26.8838 4.09662H26.4731V1.4022H26.8838V4.09662Z" fill="white"/>
<path d="M29.3781 3.3053H27.8656C27.8756 3.44553 27.9357 3.55572 28.0559 3.64586C28.1761 3.73601 28.3063 3.77607 28.4666 3.77607C28.707 3.77607 28.8873 3.69594 29.0175 3.5457L29.2479 3.79611C29.0375 4.00645 28.7671 4.11663 28.4366 4.11663C28.1661 4.11663 27.9357 4.02648 27.7454 3.84619C27.5551 3.66589 27.465 3.4255 27.465 3.12501C27.465 2.82452 27.5651 2.58412 27.7554 2.40382C27.9457 2.22353 28.1761 2.13338 28.4366 2.13338C28.697 2.13338 28.9173 2.21351 29.1077 2.37378C29.288 2.53404 29.3881 2.7544 29.3881 3.02484V3.3053H29.3781ZM27.8656 2.98478H28.9674C28.9674 2.82452 28.9173 2.6943 28.8172 2.61417C28.717 2.52402 28.5868 2.48396 28.4366 2.48396C28.2863 2.48396 28.1561 2.52402 28.0359 2.62419C27.9257 2.70432 27.8656 2.83453 27.8656 2.98478Z" fill="white"/>
<path d="M32.0524 1.95326V4.09678H31.6217V1.95326H30.8504V1.56262H32.8136V1.95326H32.0524Z" fill="white"/>
<path d="M35.1273 3.3053H33.6148C33.6248 3.44553 33.6849 3.55572 33.8051 3.64586C33.9253 3.73601 34.0555 3.77607 34.2158 3.77607C34.4562 3.77607 34.6365 3.69594 34.7667 3.5457L34.9971 3.79611C34.7867 4.00645 34.5163 4.11663 34.1857 4.11663C33.9153 4.11663 33.6849 4.02648 33.4946 3.84619C33.3043 3.66589 33.2141 3.4255 33.2141 3.12501C33.2141 2.82452 33.3143 2.58412 33.5046 2.40382C33.6949 2.22353 33.9253 2.13338 34.1857 2.13338C34.4462 2.13338 34.6665 2.21351 34.8568 2.37378C35.0371 2.53404 35.1373 2.7544 35.1373 3.02484V3.3053H35.1273ZM33.6148 2.98478H34.7166C34.7166 2.82452 34.6665 2.6943 34.5663 2.61417C34.4662 2.52402 34.336 2.48396 34.1857 2.48396C34.0355 2.48396 33.9053 2.52402 33.7851 2.62419C33.6749 2.70432 33.6148 2.83453 33.6148 2.98478Z" fill="white"/>
<path d="M35.9488 2.16322L36.3595 2.79425L36.7902 2.16322H37.271L36.5999 3.10476L37.301 4.09638H36.8002L36.3394 3.45533L35.8887 4.09638H35.4179L36.0991 3.11477L35.448 2.16322H35.9488Z" fill="white"/>
<path d="M38.2726 2.49415V3.47576C38.2726 3.56591 38.2926 3.64604 38.3427 3.69612C38.3928 3.7462 38.4629 3.77625 38.543 3.77625C38.6332 3.77625 38.7133 3.73619 38.7934 3.64604L38.9637 3.93651C38.8235 4.06673 38.6632 4.12683 38.4929 4.12683C38.3227 4.12683 38.1724 4.06673 38.0522 3.94653C37.932 3.82633 37.8719 3.66607 37.8719 3.46574V2.49415H37.6315V2.16361H37.8719V1.56262H38.2826V2.16361H38.7934V2.49415H38.2726Z" fill="white"/>
<path d="M40.5665 4.09678V1.56262H40.9972V2.66443H42.2593V1.56262H42.69V4.09678H42.2593V3.05507H40.9972V4.09678H40.5665Z" fill="white"/>
<path d="M45.2239 3.3053H43.7114C43.7214 3.44553 43.7815 3.55572 43.9017 3.64586C44.0219 3.73601 44.1521 3.77607 44.3124 3.77607C44.5528 3.77607 44.7331 3.69594 44.8633 3.5457L45.0937 3.79611C44.8833 4.00645 44.6129 4.11663 44.2824 4.11663C44.0119 4.11663 43.7815 4.02648 43.5912 3.84619C43.4009 3.66589 43.3108 3.4255 43.3108 3.12501C43.3108 2.82452 43.4109 2.58412 43.6012 2.40382C43.7916 2.22353 44.0219 2.13338 44.2824 2.13338C44.5428 2.13338 44.7631 2.21351 44.9535 2.37378C45.1338 2.53404 45.2339 2.7544 45.2339 3.02484V3.3053H45.2239ZM43.7114 2.98478H44.8132C44.8132 2.82452 44.7631 2.6943 44.663 2.61417C44.5628 2.52402 44.4326 2.48396 44.2824 2.48396C44.1321 2.48396 44.0019 2.52402 43.8817 2.62419C43.7715 2.70432 43.7114 2.83453 43.7114 2.98478Z" fill="white"/>
<path d="M46.7967 2.54431C46.5964 2.54431 46.4461 2.60441 46.346 2.74464C46.2458 2.87485 46.1957 3.05514 46.1957 3.2755V4.10687H45.785V2.1737H46.1957V2.56434C46.2658 2.44414 46.346 2.34398 46.4662 2.26385C46.5763 2.18372 46.6965 2.14365 46.8267 2.14365V2.55433C46.8067 2.54431 46.7967 2.54431 46.7967 2.54431Z" fill="white"/>
<path d="M49.1204 3.3053H47.6079C47.618 3.44553 47.6781 3.55572 47.7983 3.64586C47.9185 3.73601 48.0487 3.77607 48.2089 3.77607C48.4493 3.77607 48.6296 3.69594 48.7598 3.5457L48.9902 3.79611C48.7799 4.00645 48.5094 4.11663 48.1789 4.11663C47.9084 4.11663 47.6781 4.02648 47.4878 3.84619C47.2974 3.66589 47.2073 3.4255 47.2073 3.12501C47.2073 2.82452 47.3075 2.58412 47.4978 2.40382C47.6881 2.22353 47.9185 2.13338 48.1789 2.13338C48.4393 2.13338 48.6597 2.21351 48.85 2.37378C49.0303 2.53404 49.1305 2.7544 49.1305 3.02484V3.3053H49.1204ZM47.6079 2.98478H48.7098C48.7098 2.82452 48.6597 2.6943 48.5595 2.61417C48.4594 2.52402 48.3291 2.48396 48.1789 2.48396C48.0286 2.48396 47.8984 2.52402 47.7782 2.62419C47.668 2.70432 47.6079 2.83453 47.6079 2.98478Z" fill="white"/>
<path d="M2.45402 5.45895L0 3.00493L1.06174 1.94318L2.45402 3.32545L5.77948 0L6.84122 1.06174L2.45402 5.45895Z" fill="#378D00"/>
<path d="M16.3366 63.4337C16.2164 63.4337 16.1063 63.4637 16.0261 63.5138C15.946 63.5639 15.9059 63.644 15.9059 63.7442C15.9059 63.8444 15.946 63.9245 16.0261 63.9846C16.1063 64.0347 16.2765 64.0948 16.537 64.1549C16.7974 64.215 16.9977 64.3051 17.1279 64.4153C17.2581 64.5255 17.3283 64.6958 17.3283 64.9161C17.3283 65.1365 17.2481 65.3168 17.0778 65.457C16.9076 65.5972 16.6872 65.6674 16.4168 65.6674C16.0161 65.6674 15.6655 65.5271 15.365 65.2567L15.6355 64.9362C15.8959 65.1565 16.1563 65.2667 16.4368 65.2667C16.577 65.2667 16.6872 65.2367 16.7673 65.1766C16.8475 65.1165 16.8875 65.0363 16.8875 64.9362C16.8875 64.836 16.8475 64.7659 16.7774 64.7058C16.6972 64.6557 16.567 64.6056 16.3867 64.5555C16.1964 64.5155 16.0562 64.4754 15.966 64.4353C15.8659 64.3953 15.7857 64.3452 15.7056 64.2851C15.5554 64.1749 15.4852 63.9946 15.4852 63.7642C15.4852 63.5339 15.5754 63.3536 15.7457 63.2234C15.9159 63.0931 16.1263 63.033 16.3767 63.033C16.537 63.033 16.6972 63.0631 16.8575 63.1132C17.0178 63.1633 17.158 63.2434 17.2682 63.3335L17.0378 63.6541C16.9677 63.5839 16.8575 63.5339 16.7373 63.4838C16.587 63.4537 16.4668 63.4337 16.3366 63.4337Z" fill="white"/>
<path d="M19.4719 65.6375H19.1013V65.377C18.941 65.5674 18.7307 65.6675 18.4603 65.6675C18.2599 65.6675 18.0896 65.6074 17.9594 65.4972C17.8292 65.3871 17.7591 65.2368 17.7591 65.0465C17.7591 64.8562 17.8292 64.716 17.9694 64.6158C18.1097 64.5256 18.3 64.4756 18.5404 64.4756H19.0612V64.4055C19.0612 64.145 18.921 64.0248 18.6305 64.0248C18.4502 64.0248 18.2699 64.0949 18.0696 64.2252L17.8893 63.9747C18.1197 63.7844 18.3901 63.6943 18.6906 63.6943C18.921 63.6943 19.1013 63.7544 19.2515 63.8646C19.3918 63.9747 19.4719 64.155 19.4719 64.4055V65.6375ZM19.0612 64.9163V64.756H18.6005C18.31 64.756 18.1598 64.8462 18.1598 65.0365C18.1598 65.1266 18.1998 65.2068 18.2699 65.2468C18.3401 65.2969 18.4402 65.3169 18.5704 65.3169C18.7006 65.3169 18.8108 65.2769 18.911 65.2068C19.0112 65.1367 19.0612 65.0365 19.0612 64.9163Z" fill="white"/>
<path d="M20.5536 64.5957V65.6375H20.1429V63.7043H20.5536V64.0549C20.6137 63.9347 20.7038 63.8445 20.814 63.7744C20.9342 63.7043 21.0544 63.6742 21.1946 63.6742C21.4951 63.6742 21.7055 63.7944 21.8156 64.0549C22.0059 63.8044 22.2463 63.6742 22.5268 63.6742C22.7472 63.6742 22.9174 63.7443 23.0577 63.8746C23.1879 64.0048 23.258 64.1951 23.258 64.4555V65.6375H22.8473V64.5757C22.8473 64.2251 22.6971 64.0448 22.4066 64.0448C22.2664 64.0448 22.1462 64.0849 22.046 64.1751C21.9458 64.2652 21.8857 64.3954 21.8857 64.5657V65.6375H21.4751V64.5757C21.4751 64.3954 21.445 64.2552 21.3749 64.1751C21.3048 64.0849 21.2046 64.0448 21.0644 64.0448C20.9242 64.0448 20.804 64.0949 20.6938 64.1851C20.6036 64.2752 20.5536 64.4154 20.5536 64.5957Z" fill="white"/>
<path d="M24.9608 63.6742C25.2212 63.6742 25.4416 63.7644 25.6219 63.9447C25.8022 64.125 25.8923 64.3654 25.8923 64.6558C25.8923 64.9563 25.8022 65.1967 25.6219 65.377C25.4416 65.5673 25.2313 65.6575 24.9808 65.6575C24.7404 65.6575 24.5201 65.5473 24.3298 65.337V66.3286H23.9191V63.6943H24.3298V64.0348C24.5001 63.7944 24.7104 63.6742 24.9608 63.6742ZM24.3298 64.6759C24.3298 64.8562 24.3899 65.0064 24.5001 65.1266C24.6102 65.2468 24.7505 65.3069 24.9107 65.3069C25.071 65.3069 25.2112 65.2468 25.3314 65.1366C25.4516 65.0164 25.5117 64.8662 25.5117 64.6859C25.5117 64.5056 25.4516 64.3453 25.3414 64.2251C25.2212 64.1049 25.091 64.0448 24.9207 64.0448C24.7605 64.0448 24.6203 64.1049 24.5101 64.2251C24.3899 64.3353 24.3298 64.4856 24.3298 64.6759Z" fill="white"/>
<path d="M26.8838 65.6375H26.4731V62.9431H26.8838V65.6375Z" fill="white"/>
<path d="M29.3781 64.8462H27.8656C27.8756 64.9864 27.9357 65.0966 28.0559 65.1867C28.1761 65.2769 28.3063 65.3169 28.4666 65.3169C28.707 65.3169 28.8873 65.2368 29.0175 65.0865L29.2479 65.337C29.0375 65.5473 28.7671 65.6575 28.4366 65.6575C28.1661 65.6575 27.9357 65.5673 27.7454 65.387C27.5551 65.2067 27.465 64.9664 27.465 64.6659C27.465 64.3654 27.5651 64.125 27.7554 63.9447C27.9457 63.7644 28.1761 63.6742 28.4366 63.6742C28.697 63.6742 28.9173 63.7544 29.1077 63.9146C29.288 64.0749 29.3881 64.2953 29.3881 64.5657V64.8462H29.3781ZM27.8656 64.5256H28.9674C28.9674 64.3654 28.9173 64.2351 28.8172 64.155C28.717 64.0649 28.5868 64.0248 28.4366 64.0248C28.2863 64.0248 28.1561 64.0649 28.0359 64.165C27.9257 64.2552 27.8656 64.3754 27.8656 64.5256Z" fill="white"/>
<path d="M32.0524 63.4941V65.6376H31.6217V63.4941H30.8504V63.1035H32.8136V63.4941H32.0524Z" fill="white"/>
<path d="M35.1273 64.8462H33.6148C33.6248 64.9864 33.6849 65.0966 33.8051 65.1867C33.9253 65.2769 34.0555 65.3169 34.2158 65.3169C34.4562 65.3169 34.6365 65.2368 34.7667 65.0865L34.9971 65.337C34.7867 65.5473 34.5163 65.6575 34.1857 65.6575C33.9153 65.6575 33.6849 65.5673 33.4946 65.387C33.3043 65.2067 33.2141 64.9664 33.2141 64.6659C33.2141 64.3654 33.3143 64.125 33.5046 63.9447C33.6949 63.7644 33.9253 63.6742 34.1857 63.6742C34.4462 63.6742 34.6665 63.7544 34.8568 63.9146C35.0371 64.0749 35.1373 64.2953 35.1373 64.5657V64.8462H35.1273ZM33.6148 64.5256H34.7166C34.7166 64.3654 34.6665 64.2351 34.5663 64.155C34.4662 64.0649 34.336 64.0248 34.1857 64.0248C34.0355 64.0248 33.9053 64.0649 33.7851 64.165C33.6749 64.2552 33.6148 64.3754 33.6148 64.5256Z" fill="white"/>
<path d="M35.9488 63.7041L36.3595 64.3351L36.7902 63.7041H37.271L36.5999 64.6456L37.301 65.6372H36.8002L36.3394 64.9962L35.8887 65.6372H35.4179L36.0991 64.6556L35.448 63.7041H35.9488Z" fill="white"/>
<path d="M38.2726 64.035V65.0166C38.2726 65.1068 38.2926 65.1869 38.3427 65.237C38.3928 65.2871 38.4629 65.3171 38.543 65.3171C38.6332 65.3171 38.7133 65.277 38.7934 65.1869L38.9637 65.4774C38.8235 65.6076 38.6632 65.6677 38.4929 65.6677C38.3227 65.6677 38.1724 65.6076 38.0522 65.4874C37.932 65.3672 37.8719 65.2069 37.8719 65.0066V64.035H37.6315V63.7045H37.8719V63.1035H38.2826V63.7045H38.7934V64.035H38.2726Z" fill="white"/>
<path d="M40.5665 65.6376V63.1035H40.9972V64.2053H42.2593V63.1035H42.69V65.6376H42.2593V64.5959H40.9972V65.6376H40.5665Z" fill="white"/>
<path d="M45.2239 64.8462H43.7114C43.7214 64.9864 43.7815 65.0966 43.9017 65.1867C44.0219 65.2769 44.1521 65.3169 44.3124 65.3169C44.5528 65.3169 44.7331 65.2368 44.8633 65.0865L45.0937 65.337C44.8833 65.5473 44.6129 65.6575 44.2824 65.6575C44.0119 65.6575 43.7815 65.5673 43.5912 65.387C43.4009 65.2067 43.3108 64.9664 43.3108 64.6659C43.3108 64.3654 43.4109 64.125 43.6012 63.9447C43.7916 63.7644 44.0219 63.6742 44.2824 63.6742C44.5428 63.6742 44.7631 63.7544 44.9535 63.9146C45.1338 64.0749 45.2339 64.2953 45.2339 64.5657V64.8462H45.2239ZM43.7114 64.5256H44.8132C44.8132 64.3654 44.7631 64.2351 44.663 64.155C44.5628 64.0649 44.4326 64.0248 44.2824 64.0248C44.1321 64.0248 44.0019 64.0649 43.8817 64.165C43.7715 64.2552 43.7114 64.3754 43.7114 64.5256Z" fill="white"/>
<path d="M46.7967 64.0852C46.5964 64.0852 46.4461 64.1453 46.346 64.2855C46.2458 64.4157 46.1957 64.596 46.1957 64.8164V65.6477H45.785V63.7146H46.1957V64.1052C46.2658 63.985 46.346 63.8848 46.4662 63.8047C46.5763 63.7246 46.6965 63.6845 46.8267 63.6845V64.0952C46.8067 64.0852 46.7967 64.0852 46.7967 64.0852Z" fill="white"/>
<path d="M49.1204 64.8462H47.6079C47.618 64.9864 47.6781 65.0966 47.7983 65.1867C47.9185 65.2769 48.0487 65.3169 48.2089 65.3169C48.4493 65.3169 48.6296 65.2368 48.7598 65.0865L48.9902 65.337C48.7799 65.5473 48.5094 65.6575 48.1789 65.6575C47.9084 65.6575 47.6781 65.5673 47.4878 65.387C47.2974 65.2067 47.2073 64.9664 47.2073 64.6659C47.2073 64.3654 47.3075 64.125 47.4978 63.9447C47.6881 63.7644 47.9185 63.6742 48.1789 63.6742C48.4393 63.6742 48.6597 63.7544 48.85 63.9146C49.0303 64.0749 49.1305 64.2953 49.1305 64.5657V64.8462H49.1204ZM47.6079 64.5256H48.7098C48.7098 64.3654 48.6597 64.2351 48.5595 64.155C48.4594 64.0649 48.3291 64.0248 48.1789 64.0248C48.0286 64.0248 47.8984 64.0649 47.7782 64.165C47.668 64.2552 47.6079 64.3754 47.6079 64.5256Z" fill="white"/>
<path d="M2.45402 66.9998L0 64.5458L1.06174 63.484L2.45402 64.8663L5.77948 61.5409L6.84122 62.6026L2.45402 66.9998Z" fill="#378D00"/>
<path d="M17.6889 19.2017C17.4285 19.4521 17.1179 19.5823 16.7373 19.5823C16.3567 19.5823 16.0462 19.4621 15.7858 19.2017C15.5253 18.9512 15.4051 18.6407 15.4051 18.2701C15.4051 17.8995 15.5354 17.589 15.7858 17.3386C16.0462 17.0882 16.3567 16.958 16.7373 16.958C17.1179 16.958 17.4285 17.0782 17.6889 17.3386C17.9493 17.589 18.0695 17.8995 18.0695 18.2701C18.0795 18.6407 17.9493 18.9512 17.6889 19.2017ZM17.3784 17.6191C17.2081 17.4388 16.9978 17.3486 16.7373 17.3486C16.4769 17.3486 16.2766 17.4388 16.0963 17.6191C15.926 17.7994 15.8358 18.0197 15.8358 18.2701C15.8358 18.5205 15.926 18.7409 16.0963 18.9212C16.2666 19.1015 16.4769 19.1916 16.7373 19.1916C16.9978 19.1916 17.1981 19.1015 17.3784 18.9212C17.5487 18.7409 17.6388 18.5205 17.6388 18.2701C17.6388 18.0097 17.5487 17.7994 17.3784 17.6191Z" fill="white"/>
<path d="M19.1714 17.9497V18.9313C19.1714 19.0214 19.1915 19.1016 19.2416 19.1516C19.2916 19.2017 19.3617 19.2318 19.4419 19.2318C19.532 19.2318 19.6122 19.1917 19.6923 19.1016L19.8626 19.392C19.7223 19.5222 19.5621 19.5823 19.3918 19.5823C19.2215 19.5823 19.0713 19.5222 18.9511 19.402C18.8309 19.2818 18.7708 19.1216 18.7708 18.9213V17.9497H18.5304V17.6191H18.7708V17.0181H19.1815V17.6191H19.6923V17.9497H19.1714Z" fill="white"/>
<path d="M20.7037 18.5102V19.5519H20.293V16.8675H20.7037V17.9793C20.7638 17.8591 20.854 17.769 20.9641 17.6989C21.0843 17.6288 21.2045 17.5987 21.3448 17.5987C21.5651 17.5987 21.7354 17.6688 21.8756 17.799C22.0059 17.9292 22.076 18.1196 22.076 18.38V19.5619H21.6653V18.5002C21.6653 18.1496 21.515 17.9693 21.2246 17.9693C21.0843 17.9693 20.9641 18.0194 20.854 18.1095C20.7538 18.1897 20.7037 18.3299 20.7037 18.5102Z" fill="white"/>
<path d="M24.5401 18.7706H23.0276C23.0376 18.9108 23.0977 19.021 23.2179 19.1112C23.3381 19.2013 23.4683 19.2414 23.6286 19.2414C23.869 19.2414 24.0493 19.1612 24.1795 19.011L24.4099 19.2614C24.1995 19.4717 23.9291 19.5819 23.5985 19.5819C23.3281 19.5819 23.0977 19.4918 22.9074 19.3115C22.7171 19.1312 22.6269 18.8908 22.6269 18.5903C22.6269 18.2898 22.7271 18.0494 22.9174 17.8691C23.1077 17.6888 23.3381 17.5987 23.5985 17.5987C23.859 17.5987 24.0793 17.6788 24.2696 17.8391C24.4499 17.9993 24.5501 18.2197 24.5501 18.4901V18.7706H24.5401ZM23.0276 18.4501H24.1294C24.1294 18.2898 24.0793 18.1596 23.9792 18.0795C23.879 17.9893 23.7488 17.9493 23.5985 17.9493C23.4483 17.9493 23.3181 17.9893 23.1979 18.0895C23.0877 18.1696 23.0276 18.2898 23.0276 18.4501Z" fill="white"/>
<path d="M26.1129 18.0096C25.9125 18.0096 25.7623 18.0697 25.6621 18.2099C25.562 18.3401 25.5119 18.5204 25.5119 18.7408V19.5722H25.1012V17.639H25.5119V18.0296C25.582 17.9094 25.6621 17.8093 25.7823 17.7291C25.8925 17.649 26.0127 17.609 26.1429 17.609V18.0196C26.1229 18.0096 26.1129 18.0096 26.1129 18.0096Z" fill="white"/>
<path d="M28.7672 17.4088V19.5523H28.3365V17.4088H27.5652V17.0181H29.5284V17.4088H28.7672Z" fill="white"/>
<path d="M31.8421 18.7706H30.3296C30.3396 18.9108 30.3997 19.021 30.5199 19.1112C30.6401 19.2013 30.7703 19.2414 30.9306 19.2414C31.171 19.2414 31.3513 19.1612 31.4815 19.011L31.7119 19.2614C31.5015 19.4717 31.2311 19.5819 30.9005 19.5819C30.6301 19.5819 30.3997 19.4918 30.2094 19.3115C30.0191 19.1312 29.929 18.8908 29.929 18.5903C29.929 18.2898 30.0291 18.0494 30.2194 17.8691C30.4097 17.6888 30.6401 17.5987 30.9005 17.5987C31.161 17.5987 31.3813 17.6788 31.5717 17.8391C31.7519 17.9993 31.8521 18.2197 31.8521 18.4901V18.7706H31.8421ZM30.3296 18.4501H31.4314C31.4314 18.2898 31.3813 18.1596 31.2812 18.0795C31.181 17.9893 31.0508 17.9493 30.9005 17.9493C30.7503 17.9493 30.6201 17.9893 30.4999 18.0895C30.3897 18.1696 30.3296 18.2898 30.3296 18.4501Z" fill="white"/>
<path d="M32.6636 17.6187L33.0743 18.2498L33.505 17.6187H33.9858L33.3147 18.5603L34.0159 19.5519H33.515L33.0543 18.9109L32.6035 19.5519H32.1328L32.8139 18.5703L32.1628 17.6187H32.6636Z" fill="white"/>
<path d="M34.9874 17.9497V18.9313C34.9874 19.0214 35.0074 19.1016 35.0575 19.1516C35.1076 19.2017 35.1777 19.2318 35.2579 19.2318C35.348 19.2318 35.4281 19.1917 35.5083 19.1016L35.6785 19.392C35.5383 19.5222 35.3781 19.5823 35.2078 19.5823C35.0375 19.5823 34.8872 19.5222 34.767 19.402C34.6468 19.2818 34.5868 19.1216 34.5868 18.9213V17.9497H34.3464V17.6191H34.5868V17.0181H34.9974V17.6191H35.5083V17.9497H34.9874Z" fill="white"/>
<path d="M38.2324 17.4088V19.5523H37.8017V17.4088H37.0304V17.0181H38.9937V17.4088H38.2324Z" fill="white"/>
<path d="M39.5247 17.2383C39.4746 17.1882 39.4446 17.1281 39.4446 17.058C39.4446 16.9879 39.4746 16.9278 39.5247 16.8777C39.5748 16.8276 39.6349 16.7976 39.705 16.7976C39.7751 16.7976 39.8352 16.8176 39.8853 16.8777C39.9354 16.9278 39.9654 16.9879 39.9654 17.058C39.9654 17.1281 39.9354 17.1882 39.8853 17.2383C39.8352 17.2884 39.7751 17.3184 39.705 17.3184C39.6349 17.3184 39.5748 17.2884 39.5247 17.2383ZM39.9053 19.5521H39.4946V17.6189H39.9053V19.5521Z" fill="white"/>
<path d="M41.097 17.9497V18.9313C41.097 19.0214 41.1171 19.1016 41.1672 19.1516C41.2172 19.2017 41.2873 19.2318 41.3675 19.2318C41.4576 19.2318 41.5378 19.1917 41.6179 19.1016L41.7882 19.392C41.6479 19.5222 41.4877 19.5823 41.3174 19.5823C41.1471 19.5823 40.9969 19.5222 40.8767 19.402C40.7565 19.2818 40.6964 19.1216 40.6964 18.9213V17.9497H40.456V17.6191H40.6964V17.0181H41.1071V17.6191H41.6179V17.9497H41.097Z" fill="white"/>
<path d="M42.6298 19.5521H42.2191V16.8577H42.6298V19.5521Z" fill="white"/>
<path d="M45.1236 18.7706H43.6112C43.6212 18.9108 43.6813 19.021 43.8015 19.1112C43.9217 19.2013 44.0519 19.2414 44.2121 19.2414C44.4525 19.2414 44.6328 19.1612 44.7631 19.011L44.9934 19.2614C44.7831 19.4717 44.5126 19.5819 44.1821 19.5819C43.9117 19.5819 43.6813 19.4918 43.491 19.3115C43.3006 19.1312 43.2105 18.8908 43.2105 18.5903C43.2105 18.2898 43.3107 18.0494 43.501 17.8691C43.6913 17.6888 43.9217 17.5987 44.1821 17.5987C44.4425 17.5987 44.6629 17.6788 44.8532 17.8391C45.0335 17.9993 45.1337 18.2197 45.1337 18.4901V18.7706H45.1236ZM43.6112 18.4501H44.713C44.713 18.2898 44.6629 18.1596 44.5627 18.0795C44.4626 17.9893 44.3323 17.9493 44.1821 17.9493C44.0319 17.9493 43.9016 17.9893 43.7814 18.0895C43.6713 18.1696 43.6112 18.2898 43.6112 18.4501Z" fill="white"/>
<path d="M2.45402 20.844L0 18.39L1.06174 17.3283L2.45402 18.7105L5.77948 15.3851L6.84122 16.4468L2.45402 20.844Z" fill="#378D00"/>
<path d="M16.5269 32.8643V35.0078H16.0962V32.8643H15.3249V32.4737H17.2882V32.8643H16.5269Z" fill="white"/>
<path d="M19.6121 34.2266H18.0996C18.1096 34.3668 18.1697 34.477 18.2899 34.5672C18.4101 34.6573 18.5403 34.6974 18.7006 34.6974C18.941 34.6974 19.1213 34.6172 19.2515 34.467L19.4819 34.7174C19.2715 34.9278 19.0011 35.0379 18.6705 35.0379C18.4001 35.0379 18.1697 34.9478 17.9794 34.7675C17.7891 34.5872 17.6989 34.3468 17.6989 34.0463C17.6989 33.7458 17.7991 33.5054 17.9894 33.3251C18.1797 33.1448 18.4101 33.0547 18.6705 33.0547C18.931 33.0547 19.1513 33.1348 19.3416 33.2951C19.5219 33.4553 19.6221 33.6757 19.6221 33.9462V34.2266H19.6121ZM18.0996 33.9061H19.2014C19.2014 33.7458 19.1513 33.6156 19.0512 33.5355C18.951 33.4453 18.8208 33.4053 18.6705 33.4053C18.5203 33.4053 18.3901 33.4453 18.2699 33.5455C18.1497 33.6256 18.0996 33.7558 18.0996 33.9061Z" fill="white"/>
<path d="M20.4331 33.0845L20.8438 33.7156L21.2745 33.0845H21.7553L21.0842 34.0261L21.7854 35.0177H21.2845L20.8238 34.3766L20.373 35.0177H19.9023L20.5834 34.0361L19.9323 33.0845H20.4331Z" fill="white"/>
<path d="M22.7569 33.4052V34.3868C22.7569 34.4769 22.7769 34.5571 22.827 34.6072C22.8771 34.6572 22.9472 34.6873 23.0273 34.6873C23.1175 34.6873 23.1976 34.6472 23.2778 34.5571L23.448 34.8476C23.3078 34.9778 23.1475 35.0379 22.9773 35.0379C22.807 35.0379 22.6567 34.9778 22.5365 34.8576C22.4163 34.7374 22.3562 34.5771 22.3562 34.3768V33.4052H22.1159V33.0746H22.3562V32.4737H22.7669V33.0746H23.2778V33.4052H22.7569Z" fill="white"/>
<path d="M25.8121 32.8142C25.6919 32.8142 25.5818 32.8442 25.5016 32.8943C25.4215 32.9444 25.3814 33.0245 25.3814 33.1247C25.3814 33.2248 25.4215 33.305 25.5016 33.3651C25.5818 33.4151 25.752 33.4752 26.0125 33.5353C26.2729 33.5954 26.4732 33.6856 26.6034 33.7958C26.7336 33.9059 26.8038 34.0762 26.8038 34.2966C26.8038 34.5169 26.7236 34.6972 26.5533 34.8375C26.3831 34.9777 26.1627 35.0478 25.8923 35.0478C25.4916 35.0478 25.141 34.9076 24.8405 34.6371L25.111 34.3166C25.3714 34.537 25.6318 34.6472 25.9123 34.6472C26.0525 34.6472 26.1627 34.6171 26.2428 34.557C26.323 34.4969 26.363 34.4168 26.363 34.3166C26.363 34.2165 26.323 34.1463 26.2529 34.0862C26.1727 34.0362 26.0425 33.9861 25.8622 33.936C25.6719 33.8959 25.5317 33.8559 25.4415 33.8158C25.3414 33.7757 25.2612 33.7257 25.1811 33.6656C25.0308 33.5554 24.9607 33.3751 24.9607 33.1447C24.9607 32.9143 25.0509 32.724 25.2212 32.6038C25.3914 32.4736 25.6018 32.4135 25.8522 32.4135C26.0125 32.4135 26.1727 32.4435 26.333 32.4936C26.4932 32.5437 26.6335 32.6238 26.7437 32.714L26.5133 33.0345C26.4432 32.9644 26.333 32.9143 26.2128 32.8642C26.0625 32.8342 25.9323 32.8142 25.8121 32.8142Z" fill="white"/>
<path d="M28.4064 33.0547C28.6668 33.0547 28.8872 33.1448 29.0675 33.3251C29.2478 33.5054 29.3379 33.7458 29.3379 34.0363C29.3379 34.3368 29.2478 34.5772 29.0675 34.7575C28.8872 34.9478 28.6768 35.0379 28.4264 35.0379C28.186 35.0379 27.9657 34.9278 27.7754 34.7174V35.709H27.3647V33.0747H27.7754V33.4153C27.9456 33.1749 28.156 33.0547 28.4064 33.0547ZM27.7754 34.0463C27.7754 34.2266 27.8355 34.3769 27.9456 34.497C28.0558 34.6172 28.1961 34.6773 28.3563 34.6773C28.5166 34.6773 28.6568 34.6172 28.777 34.5071C28.8972 34.3869 28.9573 34.2366 28.9573 34.0563C28.9573 33.876 28.8972 33.7158 28.787 33.5956C28.6668 33.4754 28.5366 33.4153 28.3663 33.4153C28.2061 33.4153 28.0658 33.4754 27.9557 33.5956C27.8355 33.7158 27.7754 33.866 27.7754 34.0463Z" fill="white"/>
<path d="M31.4916 35.0077H31.121V34.7472C30.9607 34.9375 30.7504 35.0377 30.48 35.0377C30.2796 35.0377 30.1094 34.9776 29.9791 34.8674C29.8489 34.7573 29.7788 34.607 29.7788 34.4167C29.7788 34.2264 29.8489 34.0862 29.9892 33.986C30.1294 33.8958 30.3197 33.8458 30.5601 33.8458H31.0809V33.7756C31.0809 33.5152 30.9407 33.395 30.6502 33.395C30.4699 33.395 30.2896 33.4651 30.0893 33.5953L29.909 33.3449C30.1394 33.1546 30.4098 33.0645 30.7103 33.0645C30.9407 33.0645 31.121 33.1246 31.2713 33.2348C31.4115 33.3449 31.4916 33.5252 31.4916 33.7756V35.0077ZM31.0809 34.2965V34.1262H30.6202C30.3297 34.1262 30.1795 34.2164 30.1795 34.4067C30.1795 34.4968 30.2195 34.577 30.2897 34.617C30.3598 34.6671 30.4599 34.6871 30.5901 34.6871C30.7204 34.6871 30.8305 34.6471 30.9307 34.577C31.0309 34.5169 31.0809 34.4167 31.0809 34.2965Z" fill="white"/>
<path d="M33.0141 35.0377C32.7437 35.0377 32.5133 34.9475 32.323 34.7672C32.1327 34.5869 32.0325 34.3466 32.0325 34.0461C32.0325 33.7556 32.1327 33.5152 32.333 33.3249C32.5333 33.1446 32.7837 33.0444 33.0742 33.0444C33.3647 33.0444 33.6051 33.1446 33.8054 33.3449L33.565 33.6354C33.3947 33.4851 33.2345 33.415 33.0642 33.415C32.8939 33.415 32.7437 33.4751 32.6235 33.5853C32.5033 33.6955 32.4332 33.8457 32.4332 34.016C32.4332 34.1963 32.4933 34.3466 32.6135 34.4667C32.7337 34.5869 32.8839 34.647 33.0642 34.647C33.2445 34.647 33.4148 34.5669 33.575 34.3966L33.8154 34.6571C33.5951 34.9275 33.3246 35.0377 33.0141 35.0377Z" fill="white"/>
<path d="M36.1592 34.2266H34.6468C34.6568 34.3668 34.7169 34.477 34.8371 34.5672C34.9573 34.6573 35.0875 34.6974 35.2477 34.6974C35.4881 34.6974 35.6684 34.6172 35.7986 34.467L36.029 34.7174C35.8187 34.9278 35.5482 35.0379 35.2177 35.0379C34.9472 35.0379 34.7169 34.9478 34.5266 34.7675C34.3362 34.5872 34.2461 34.3468 34.2461 34.0463C34.2461 33.7458 34.3463 33.5054 34.5366 33.3251C34.7269 33.1448 34.9573 33.0547 35.2177 33.0547C35.4781 33.0547 35.6985 33.1348 35.8888 33.2951C36.0691 33.4553 36.1693 33.6757 36.1693 33.9462V34.2266H36.1592ZM34.6468 33.9061H35.7486C35.7486 33.7458 35.6985 33.6156 35.5983 33.5355C35.4982 33.4453 35.3679 33.4053 35.2177 33.4053C35.0674 33.4053 34.9372 33.4453 34.817 33.5455C34.6968 33.6256 34.6468 33.7558 34.6468 33.9061Z" fill="white"/>
<path d="M39.6249 33.7755H40.0556V34.6469C39.8152 34.9074 39.4746 35.0476 39.0339 35.0476C38.6633 35.0476 38.3428 34.9274 38.0924 34.677C37.842 34.4266 37.7117 34.1161 37.7117 33.7455C37.7117 33.3648 37.842 33.0543 38.1024 32.8039C38.3628 32.5535 38.6733 32.4233 39.0339 32.4233C39.3945 32.4233 39.705 32.5335 39.9454 32.7438L39.715 33.0744C39.6149 32.9942 39.5147 32.9341 39.4145 32.8941C39.3144 32.864 39.1942 32.844 39.064 32.844C38.8035 32.844 38.5932 32.9241 38.4229 33.0944C38.2526 33.2647 38.1625 33.475 38.1625 33.7455C38.1625 34.0159 38.2426 34.2262 38.4129 34.3965C38.5832 34.5568 38.7835 34.6469 39.0239 34.6469C39.2643 34.6469 39.4646 34.5969 39.6249 34.4867V33.7755Z" fill="white"/>
<path d="M42.2793 34.7575C42.089 34.9478 41.8486 35.048 41.5581 35.048C41.2677 35.048 41.0273 34.9478 40.8369 34.7575C40.6466 34.5672 40.5465 34.3268 40.5465 34.0563C40.5465 33.7759 40.6466 33.5455 40.8369 33.3452C41.0273 33.1549 41.2677 33.0547 41.5581 33.0547C41.8486 33.0547 42.089 33.1549 42.2793 33.3452C42.4696 33.5355 42.5698 33.7759 42.5698 34.0563C42.5698 34.3268 42.4796 34.5572 42.2793 34.7575ZM41.1174 34.5071C41.2276 34.6273 41.3778 34.6874 41.5581 34.6874C41.7384 34.6874 41.8787 34.6273 41.9988 34.5071C42.109 34.3869 42.1691 34.2366 42.1691 34.0563C42.1691 33.866 42.109 33.7158 41.9988 33.5956C41.8887 33.4754 41.7384 33.4153 41.5581 33.4153C41.3778 33.4153 41.2376 33.4754 41.1174 33.5956C41.0072 33.7158 40.9471 33.866 40.9471 34.0563C40.9471 34.2366 41.0072 34.3869 41.1174 34.5071Z" fill="white"/>
<path d="M44.9334 34.2266H43.4209C43.4309 34.3668 43.491 34.477 43.6112 34.5672C43.7314 34.6573 43.8616 34.6974 44.0219 34.6974C44.2623 34.6974 44.4426 34.6172 44.5728 34.467L44.8032 34.7174C44.5928 34.9278 44.3224 35.0379 43.9918 35.0379C43.7214 35.0379 43.491 34.9478 43.3007 34.7675C43.1104 34.5872 43.0202 34.3468 43.0202 34.0463C43.0202 33.7458 43.1204 33.5054 43.3107 33.3251C43.501 33.1448 43.7314 33.0547 43.9918 33.0547C44.2523 33.0547 44.4726 33.1348 44.6629 33.2951C44.8432 33.4553 44.9434 33.6757 44.9434 33.9462V34.2266H44.9334ZM43.4209 33.9061H44.5227C44.5227 33.7458 44.4726 33.6156 44.3725 33.5355C44.2723 33.4453 44.1421 33.4053 43.9918 33.4053C43.8416 33.4053 43.7114 33.4453 43.5912 33.5455C43.481 33.6256 43.4209 33.7558 43.4209 33.9061Z" fill="white"/>
<path d="M46.8666 34.4367C46.8666 34.617 46.7965 34.7673 46.6663 34.8774C46.5361 34.9876 46.3658 35.0477 46.1554 35.0477C46.0152 35.0477 45.865 35.0177 45.7147 34.9676C45.5645 34.9175 45.4342 34.8474 45.314 34.7572L45.5144 34.4367C45.7347 34.607 45.9551 34.6871 46.1654 34.6871C46.2556 34.6871 46.3257 34.6671 46.3858 34.627C46.4359 34.587 46.4659 34.5269 46.4659 34.4668C46.4659 34.3666 46.3357 34.2865 46.0853 34.2064C46.0653 34.1963 46.0553 34.1963 46.0453 34.1963C45.6446 34.0862 45.4443 33.9059 45.4443 33.6554C45.4443 33.4751 45.5144 33.3349 45.6546 33.2247C45.7948 33.1146 45.9751 33.0645 46.1955 33.0645C46.4159 33.0645 46.6262 33.1246 46.8265 33.2648L46.6763 33.5653C46.516 33.4651 46.3457 33.405 46.1654 33.405C46.0653 33.405 45.9952 33.4251 45.9251 33.4551C45.865 33.4952 45.8349 33.5453 45.8349 33.6154C45.8349 33.6755 45.865 33.7256 45.9251 33.7556C45.9651 33.7756 46.0252 33.7957 46.1053 33.8157C46.1855 33.8357 46.2556 33.8558 46.3157 33.8758C46.3758 33.8958 46.4359 33.9159 46.496 33.9359C46.5561 33.9559 46.6162 33.996 46.6763 34.0361C46.7965 34.1162 46.8666 34.2564 46.8666 34.4367Z" fill="white"/>
<path d="M48.5997 35.0078V32.4737H49.0304V33.5755H50.2925V32.4737H50.7232V35.0078H50.2825V33.9661H49.0204V35.0078H48.5997Z" fill="white"/>
<path d="M53.2571 34.2266H51.7446C51.7546 34.3668 51.8147 34.477 51.9349 34.5672C52.0551 34.6573 52.1853 34.6974 52.3456 34.6974C52.586 34.6974 52.7663 34.6172 52.8965 34.467L53.1269 34.7174C52.9165 34.9278 52.6461 35.0379 52.3156 35.0379C52.0451 35.0379 51.8147 34.9478 51.6244 34.7675C51.4341 34.5872 51.344 34.3468 51.344 34.0463C51.344 33.7458 51.4441 33.5054 51.6344 33.3251C51.8247 33.1448 52.0551 33.0547 52.3156 33.0547C52.576 33.0547 52.7963 33.1348 52.9866 33.2951C53.1669 33.4553 53.2671 33.6757 53.2671 33.9462V34.2266H53.2571ZM51.7446 33.9061H52.8464C52.8464 33.7458 52.7963 33.6156 52.6962 33.5355C52.596 33.4453 52.4658 33.4053 52.3156 33.4053C52.1653 33.4053 52.0351 33.4453 51.9149 33.5455C51.8047 33.6256 51.7446 33.7558 51.7446 33.9061Z" fill="white"/>
<path d="M54.8299 33.4651C54.6296 33.4651 54.4793 33.5252 54.3791 33.6655C54.279 33.7957 54.2289 33.976 54.2289 34.1963V35.0277H53.8182V33.0945H54.2289V33.4852C54.299 33.365 54.3791 33.2648 54.4993 33.1847C54.6095 33.1045 54.7297 33.0645 54.8599 33.0645V33.4751C54.8399 33.4651 54.8299 33.4651 54.8299 33.4651Z" fill="white"/>
<path d="M57.1634 34.2266H55.6509C55.6609 34.3668 55.721 34.477 55.8412 34.5672C55.9614 34.6573 56.0916 34.6974 56.2519 34.6974C56.4923 34.6974 56.6726 34.6172 56.8028 34.467L57.0332 34.7174C56.8228 34.9278 56.5524 35.0379 56.2219 35.0379C55.9514 35.0379 55.721 34.9478 55.5307 34.7675C55.3404 34.5872 55.2503 34.3468 55.2503 34.0463C55.2503 33.7458 55.3504 33.5054 55.5407 33.3251C55.731 33.1448 55.9614 33.0547 56.2219 33.0547C56.4823 33.0547 56.7026 33.1348 56.893 33.2951C57.0733 33.4553 57.1734 33.6757 57.1734 33.9462V34.2266H57.1634ZM55.6509 33.9061H56.7527C56.7527 33.7458 56.7026 33.6156 56.6025 33.5355C56.5023 33.4453 56.3721 33.4053 56.2219 33.4053C56.0716 33.4053 55.9414 33.4453 55.8212 33.5455C55.701 33.6256 55.6509 33.7558 55.6509 33.9061Z" fill="white"/>
<path d="M2.45402 36.2296L0 33.7756L1.06174 32.7139L2.45402 34.0961L5.77948 30.7707L6.84122 31.8324L2.45402 36.2296Z" fill="#378D00"/>
<path d="M17.4885 48.2692C17.7289 48.4896 17.8591 48.8001 17.8591 49.1908C17.8591 49.5814 17.7389 49.9019 17.5085 50.1223C17.2681 50.3527 16.9075 50.4628 16.4167 50.4628H15.5753V47.9287H16.4468C16.8975 47.9387 17.2481 48.0489 17.4885 48.2692ZM17.4284 49.2008C17.4284 48.6198 17.0978 48.3293 16.4267 48.3293H15.996V50.0622H16.4668C16.7773 50.0622 17.0077 49.9921 17.168 49.8418C17.3382 49.7016 17.4284 49.4912 17.4284 49.2008Z" fill="white"/>
<path d="M20.2528 49.6816H18.7403C18.7503 49.8219 18.8104 49.932 18.9306 50.0222C19.0508 50.1123 19.181 50.1524 19.3413 50.1524C19.5817 50.1524 19.762 50.0723 19.8922 49.922L20.1226 50.1724C19.9122 50.3828 19.6418 50.493 19.3112 50.493C19.0408 50.493 18.8104 50.4028 18.6201 50.2225C18.4298 50.0422 18.3396 49.8018 18.3396 49.5013C18.3396 49.2009 18.4398 48.9605 18.6301 48.7802C18.8204 48.5999 19.0508 48.5097 19.3112 48.5097C19.5717 48.5097 19.792 48.5898 19.9823 48.7501C20.1626 48.9104 20.2628 49.1307 20.2628 49.4012V49.6816H20.2528ZM18.7403 49.3611H19.8421C19.8421 49.2009 19.792 49.0706 19.6919 48.9905C19.5917 48.9004 19.4615 48.8603 19.3112 48.8603C19.161 48.8603 19.0308 48.9004 18.9106 49.0005C18.8004 49.0907 18.7403 49.2109 18.7403 49.3611Z" fill="white"/>
<path d="M22.186 49.8918C22.186 50.072 22.1159 50.2223 21.9857 50.3325C21.8554 50.4427 21.6852 50.5028 21.4748 50.5028C21.3346 50.5028 21.1843 50.4727 21.0341 50.4226C20.8839 50.3725 20.7536 50.3024 20.6334 50.2123L20.8338 49.8918C21.0541 50.062 21.2745 50.1422 21.4848 50.1422C21.575 50.1422 21.6451 50.1221 21.7052 50.0821C21.7653 50.042 21.7853 49.9819 21.7853 49.9218C21.7853 49.8216 21.6551 49.7415 21.4047 49.6614C21.3847 49.6514 21.3747 49.6514 21.3646 49.6514C20.964 49.5412 20.7637 49.3609 20.7637 49.1105C20.7637 48.9302 20.8338 48.7899 20.974 48.6798C21.1142 48.5696 21.2945 48.5195 21.5149 48.5195C21.7353 48.5195 21.9456 48.5796 22.1459 48.7198L21.9957 49.0203C21.8354 48.9202 21.6651 48.8601 21.4848 48.8601C21.3847 48.8601 21.3146 48.8801 21.2444 48.9101C21.1843 48.9502 21.1543 49.0003 21.1543 49.0704C21.1543 49.1305 21.1843 49.1806 21.2444 49.2106C21.2845 49.2307 21.3446 49.2507 21.4247 49.2707C21.5049 49.2908 21.575 49.3108 21.6351 49.3308C21.6952 49.3509 21.7553 49.3709 21.8154 49.3909C21.8755 49.411 21.9356 49.451 21.9957 49.4911C22.1159 49.5712 22.186 49.7115 22.186 49.8918Z" fill="white"/>
<path d="M23.6086 50.503C23.3381 50.503 23.1077 50.4128 22.9174 50.2325C22.7271 50.0523 22.6269 49.8119 22.6269 49.5114C22.6269 49.2209 22.7271 48.9805 22.9274 48.7902C23.1278 48.6099 23.3782 48.5097 23.6687 48.5097C23.9591 48.5097 24.1995 48.6099 24.3999 48.8102L24.1595 49.1007C23.9892 48.9504 23.8289 48.8803 23.6586 48.8803C23.4884 48.8803 23.3381 48.9404 23.2179 49.0506C23.0977 49.1608 23.0276 49.311 23.0276 49.4813C23.0276 49.6616 23.0877 49.8119 23.2079 49.9321C23.3281 50.0522 23.4783 50.1123 23.6586 50.1123C23.8389 50.1123 24.0092 50.0322 24.1695 49.8619L24.4099 50.1224C24.1895 50.3828 23.9191 50.503 23.6086 50.503Z" fill="white"/>
<path d="M25.9622 48.9202C25.7619 48.9202 25.6117 48.9803 25.5115 49.1205C25.4113 49.2507 25.3613 49.431 25.3613 49.6514V50.4827H24.9506V48.5496H25.3613V48.9402C25.4314 48.82 25.5115 48.7198 25.6317 48.6397C25.7419 48.5596 25.8621 48.5195 25.9923 48.5195V48.9302C25.9823 48.9202 25.9723 48.9202 25.9622 48.9202Z" fill="white"/>
<path d="M26.5234 48.1591C26.4733 48.109 26.4433 48.0489 26.4433 47.9788C26.4433 47.9087 26.4733 47.8486 26.5234 47.7985C26.5735 47.7484 26.6336 47.7184 26.7037 47.7184C26.7738 47.7184 26.8339 47.7384 26.884 47.7985C26.9341 47.8486 26.9641 47.9087 26.9641 47.9788C26.9641 48.0489 26.9341 48.109 26.884 48.1591C26.8339 48.2092 26.7738 48.2392 26.7037 48.2392C26.6336 48.2392 26.5735 48.2092 26.5234 48.1591ZM26.904 50.4729H26.4933V48.5397H26.904V50.4729Z" fill="white"/>
<path d="M28.6368 48.5097C28.8972 48.5097 29.1176 48.5999 29.2978 48.7802C29.4781 48.9605 29.5683 49.2008 29.5683 49.4913C29.5683 49.7918 29.4781 50.0322 29.2978 50.2125C29.1176 50.4028 28.9072 50.493 28.6568 50.493C28.4164 50.493 28.196 50.3828 28.0057 50.1724V51.1641H27.5951V48.5297H28.0057V48.8703C28.166 48.6399 28.3763 48.5097 28.6368 48.5097ZM28.0057 49.5114C28.0057 49.6917 28.0658 49.8419 28.176 49.9621C28.2862 50.0823 28.4264 50.1424 28.5867 50.1424C28.7469 50.1424 28.8872 50.0823 29.0074 49.9721C29.1276 49.8519 29.1877 49.7017 29.1877 49.5214C29.1877 49.3411 29.1276 49.1808 29.0174 49.0606C28.8972 48.9404 28.767 48.8803 28.5967 48.8803C28.4364 48.8803 28.2962 48.9404 28.186 49.0606C28.0558 49.1708 28.0057 49.3311 28.0057 49.5114Z" fill="white"/>
<path d="M30.6502 48.8705V49.8521C30.6502 49.9422 30.6703 50.0224 30.7203 50.0725C30.7704 50.1225 30.8405 50.1526 30.9207 50.1526C31.0108 50.1526 31.0909 50.1125 31.1711 50.0224L31.3414 50.3128C31.2011 50.4431 31.0409 50.5032 30.8706 50.5032C30.7003 50.5032 30.5501 50.4431 30.4299 50.3229C30.3097 50.2027 30.2496 50.0424 30.2496 49.8421V48.8705H30.0092V48.5399H30.2496V47.939H30.6602V48.5399H31.1711V48.8705H30.6502Z" fill="white"/>
<path d="M31.8021 48.1591C31.752 48.109 31.7219 48.0489 31.7219 47.9788C31.7219 47.9087 31.752 47.8486 31.8021 47.7985C31.8522 47.7484 31.9123 47.7184 31.9824 47.7184C32.0525 47.7184 32.1126 47.7384 32.1627 47.7985C32.2127 47.8486 32.2428 47.9087 32.2428 47.9788C32.2428 48.0489 32.2127 48.109 32.1627 48.1591C32.1126 48.2092 32.0525 48.2392 31.9824 48.2392C31.9123 48.2392 31.8522 48.2092 31.8021 48.1591ZM32.1827 50.4729H31.772V48.5397H32.1827V50.4729Z" fill="white"/>
<path d="M34.4863 50.2125C34.2959 50.4028 34.0555 50.503 33.7651 50.503C33.4746 50.503 33.2342 50.4028 33.0439 50.2125C32.8536 50.0222 32.7534 49.7818 32.7534 49.5114C32.7534 49.2309 32.8536 49.0005 33.0439 48.8002C33.2342 48.6099 33.4746 48.5097 33.7651 48.5097C34.0555 48.5097 34.2959 48.6099 34.4863 48.8002C34.6766 48.9905 34.7767 49.2309 34.7767 49.5114C34.7767 49.7818 34.6866 50.0222 34.4863 50.2125ZM33.3244 49.9621C33.4345 50.0823 33.5848 50.1424 33.7651 50.1424C33.9454 50.1424 34.0856 50.0823 34.2058 49.9621C34.316 49.8419 34.3761 49.6917 34.3761 49.5114C34.3761 49.321 34.316 49.1708 34.2058 49.0506C34.0956 48.9304 33.9454 48.8703 33.7651 48.8703C33.5848 48.8703 33.4445 48.9304 33.3244 49.0506C33.2142 49.1708 33.1541 49.321 33.1541 49.5114C33.1541 49.6917 33.2142 49.8419 33.3244 49.9621Z" fill="white"/>
<path d="M35.7587 49.4312V50.4729H35.348V48.5398H35.7587V48.8903C35.8288 48.7701 35.9189 48.68 36.0291 48.6099C36.1393 48.5398 36.2695 48.5097 36.3997 48.5097C36.6201 48.5097 36.7904 48.5798 36.9306 48.71C37.0608 48.8403 37.1309 49.0306 37.1309 49.291V50.4729H36.7203V49.4112C36.7203 49.0606 36.57 48.8803 36.2795 48.8803C36.1393 48.8803 36.0191 48.9304 35.9089 49.0206C35.8088 49.1107 35.7587 49.2509 35.7587 49.4312Z" fill="white"/>
<path d="M39.7349 48.2692C39.6147 48.2692 39.5045 48.2992 39.4244 48.3493C39.3442 48.3994 39.3042 48.4795 39.3042 48.5797C39.3042 48.6799 39.3442 48.76 39.4244 48.8201C39.5045 48.8702 39.6748 48.9303 39.9352 48.9904C40.1956 49.0505 40.3959 49.1406 40.5262 49.2508C40.6564 49.361 40.7265 49.5313 40.7265 49.7516C40.7265 49.972 40.6464 50.1523 40.4761 50.2925C40.3058 50.4327 40.0854 50.5028 39.815 50.5028C39.4143 50.5028 39.0638 50.3626 38.7633 50.0922L39.0337 49.7716C39.2941 49.992 39.5546 50.1022 39.835 50.1022C39.9753 50.1022 40.0854 50.0721 40.1656 50.012C40.2457 49.9519 40.2858 49.8718 40.2858 49.7716C40.2858 49.6715 40.2457 49.6014 40.1756 49.5413C40.0955 49.4912 39.9652 49.4411 39.7849 49.391C39.5946 49.351 39.4544 49.3109 39.3643 49.2708C39.2641 49.2308 39.184 49.1807 39.1038 49.1206C38.9536 49.0104 38.8835 48.8301 38.8835 48.5997C38.8835 48.3693 38.9736 48.179 39.1439 48.0588C39.3142 47.9286 39.5245 47.8685 39.7749 47.8685C39.9352 47.8685 40.0955 47.8986 40.2557 47.9487C40.416 47.9987 40.5562 48.0789 40.6664 48.169L40.436 48.4895C40.3659 48.4194 40.2557 48.3693 40.1355 48.3193C39.9853 48.2892 39.8551 48.2692 39.7349 48.2692Z" fill="white"/>
<path d="M42.3291 48.5097C42.5896 48.5097 42.8099 48.5999 42.9902 48.7802C43.1705 48.9605 43.2607 49.2008 43.2607 49.4913C43.2607 49.7918 43.1705 50.0322 42.9902 50.2125C42.8099 50.4028 42.5996 50.493 42.3492 50.493C42.0988 50.493 41.8884 50.3828 41.6981 50.1724V51.1641H41.2874V48.5297H41.6981V48.8703C41.8684 48.6399 42.0687 48.5097 42.3291 48.5097ZM41.6981 49.5114C41.6981 49.6917 41.7582 49.8419 41.8684 49.9621C41.9786 50.0823 42.1188 50.1424 42.2791 50.1424C42.4393 50.1424 42.5795 50.0823 42.6997 49.9721C42.8199 49.8519 42.88 49.7017 42.88 49.5214C42.88 49.3411 42.8199 49.1808 42.7098 49.0606C42.5896 48.9404 42.4593 48.8803 42.2891 48.8803C42.1288 48.8803 41.9886 48.9404 41.8784 49.0606C41.7482 49.1708 41.6981 49.3311 41.6981 49.5114Z" fill="white"/>
<path d="M45.4041 50.473H45.0335V50.2125C44.8732 50.4028 44.6629 50.503 44.3924 50.503C44.1921 50.503 44.0218 50.4429 43.8916 50.3327C43.7614 50.2226 43.6913 50.0723 43.6913 49.882C43.6913 49.6917 43.7614 49.5514 43.9016 49.4513C44.0418 49.3611 44.2322 49.3111 44.4726 49.3111H44.9934V49.2409C44.9934 48.9805 44.8532 48.8603 44.5627 48.8603C44.3824 48.8603 44.2021 48.9304 44.0018 49.0606L43.8215 48.8102C44.0519 48.6199 44.3223 48.5298 44.6228 48.5298C44.8532 48.5298 45.0335 48.5899 45.1837 48.7C45.3239 48.8102 45.4041 48.9905 45.4041 49.2409V50.473ZM45.0034 49.7518V49.5915H44.5427C44.2522 49.5915 44.1019 49.6817 44.1019 49.872C44.1019 49.9621 44.142 50.0423 44.2121 50.0823C44.2822 50.1324 44.3824 50.1524 44.5126 50.1524C44.6428 50.1524 44.753 50.1124 44.8532 50.0423C44.9533 49.9721 45.0034 49.882 45.0034 49.7518Z" fill="white"/>
<path d="M46.9369 50.503C46.6664 50.503 46.436 50.4128 46.2457 50.2325C46.0554 50.0523 45.9552 49.8119 45.9552 49.5114C45.9552 49.2209 46.0554 48.9805 46.2557 48.7902C46.4561 48.6099 46.7065 48.5097 46.9969 48.5097C47.2874 48.5097 47.5278 48.6099 47.7281 48.8102L47.4878 49.1007C47.3175 48.9504 47.1572 48.8803 46.9869 48.8803C46.8167 48.8803 46.6664 48.9404 46.5462 49.0506C46.426 49.1608 46.3559 49.311 46.3559 49.4813C46.3559 49.6616 46.416 49.8119 46.5362 49.9321C46.6564 50.0522 46.8066 50.1123 46.9869 50.1123C47.1672 50.1123 47.3375 50.0322 47.4978 49.8619L47.7382 50.1224C47.5178 50.3828 47.2474 50.503 46.9369 50.503Z" fill="white"/>
<path d="M50.0717 49.6816H48.5592C48.5692 49.8219 48.6293 49.932 48.7495 50.0222C48.8697 50.1123 48.9999 50.1524 49.1602 50.1524C49.4006 50.1524 49.5809 50.0723 49.7111 49.922L49.9415 50.1724C49.7311 50.3828 49.4607 50.493 49.1302 50.493C48.8597 50.493 48.6293 50.4028 48.439 50.2225C48.2487 50.0422 48.1586 49.8018 48.1586 49.5013C48.1586 49.2009 48.2587 48.9605 48.449 48.7802C48.6393 48.5999 48.8697 48.5097 49.1302 48.5097C49.3906 48.5097 49.6109 48.5898 49.8013 48.7501C49.9815 48.9104 50.0817 49.1307 50.0817 49.4012V49.6816H50.0717ZM48.5592 49.3611H49.661C49.661 49.2009 49.6109 49.0706 49.5108 48.9905C49.4106 48.9004 49.2804 48.8603 49.1302 48.8603C48.9799 48.8603 48.8497 48.9004 48.7295 49.0005C48.6193 49.0907 48.5592 49.2109 48.5592 49.3611Z" fill="white"/>
<path d="M2.45402 51.6147L0 49.1607L1.06174 48.0989L2.45402 49.4812L5.77948 46.1558L6.84122 47.2175L2.45402 51.6147Z" fill="#378D00"/>
</svg>
