<svg width="20" height="20" viewBox="0 0 20 20" fill="none" xmlns="http://www.w3.org/2000/svg">
<path d="M5.51634 19.5931L5.05848 19.1352C4.42766 19.6541 3.68491 19.939 2.83024 20.0001L2.73867 18.9928C3.40002 18.9521 3.93927 18.7689 4.36661 18.4535L3.14565 17.2326C2.55552 17.5887 2.06714 17.7922 1.66016 17.8227C1.25317 17.8634 0.87671 17.6904 0.510424 17.3343C0.144137 16.968 -0.018657 16.5509 0.0016923 16.0625C0.0220416 15.5843 0.225535 15.1264 0.61217 14.6991L0.296757 14.3837L0.703742 13.9869L1.01916 14.3023C1.51771 13.875 2.10784 13.6002 2.79971 13.468L2.97268 14.4549C2.49448 14.5363 2.07732 14.7093 1.71103 14.984L2.89129 16.1642L2.92181 16.1439C3.51194 15.7776 4.02067 15.5741 4.43783 15.5436C4.85499 15.5131 5.2518 15.6759 5.61809 16.0421C5.98437 16.4084 6.15734 16.8358 6.12682 17.3242C6.09629 17.8125 5.88263 18.2806 5.47564 18.7283L5.92333 19.1861L5.51634 19.5931ZM1.02933 15.9811C1.01916 16.1846 1.0802 16.3474 1.22265 16.4898C1.36509 16.6323 1.51771 16.7035 1.68051 16.6933C1.8433 16.6933 2.08749 16.6119 2.39273 16.4491L1.30405 15.3706C1.13108 15.5741 1.0395 15.7776 1.02933 15.9811ZM5.09918 17.4157C5.11953 17.2021 5.05848 17.0189 4.91604 16.8765C4.77359 16.734 4.6108 16.6628 4.42766 16.6628C4.25469 16.673 4.00032 16.7544 3.67473 16.9375L4.80412 18.0669C4.97709 17.8431 5.07883 17.6294 5.09918 17.4157Z" fill="#EF18A2"/>
<path d="M6.02507 9.39812L6.69659 10.0696L4.84481 11.9214L5.92332 12.9999C6.00472 12.715 6.16751 12.4607 6.40153 12.2267C6.80852 11.8197 7.28672 11.5857 7.83615 11.5348C8.38558 11.4839 8.86379 11.6671 9.29112 12.0944C9.71846 12.5217 9.91178 13.0203 9.88125 13.6104C9.85073 14.2005 9.60654 14.7194 9.15885 15.1671C8.56873 15.7573 7.8972 16.032 7.15445 15.9913L7.01201 15.0552C7.08323 15.0552 7.16463 15.045 7.26637 15.0349C7.36812 15.0247 7.54109 14.9738 7.79546 14.8721C8.04982 14.7703 8.28384 14.6177 8.48733 14.4142C8.701 14.2005 8.82309 13.9462 8.87397 13.6511C8.92484 13.356 8.82309 13.0813 8.5789 12.8473C8.33471 12.6031 8.05999 12.5116 7.74458 12.5624C7.42917 12.6133 7.1341 12.7761 6.85939 13.0508C6.58467 13.3255 6.38118 13.6613 6.26926 14.0479L5.61808 14.0276L3.51194 11.9214L6.02507 9.39812Z" fill="#EF18A2"/>
<path d="M11.6517 12.3792C11.4686 12.3792 11.316 12.3079 11.1837 12.1858C11.0514 12.0536 10.9904 11.901 10.9904 11.7178C10.9904 11.5347 11.0514 11.3821 11.1837 11.2498C11.316 11.1175 11.4686 11.0565 11.6517 11.0565C11.8349 11.0565 11.9875 11.1175 12.1198 11.2498C12.252 11.3821 12.3131 11.5347 12.3131 11.7178C12.3131 11.901 12.252 12.0638 12.1198 12.1858C11.9875 12.3181 11.8349 12.3792 11.6517 12.3792Z" fill="#EF18A2"/>
<path d="M14.1951 8.78727C14.5818 8.40063 14.7344 7.98347 14.6632 7.53578C14.5818 7.0881 14.3172 6.64042 13.8797 6.18256C13.8899 6.4064 13.8492 6.66077 13.7576 6.96601C13.6661 7.26107 13.4931 7.53579 13.2591 7.7698C12.8623 8.16661 12.4044 8.35993 11.8753 8.37011C11.3462 8.37011 10.868 8.15644 10.4305 7.7291C9.99301 7.29159 9.78952 6.80321 9.80987 6.25378C9.83022 5.70435 10.0642 5.2058 10.5017 4.77846C11.2038 4.07641 12.0076 3.90344 12.903 4.25956C13.4117 4.47322 13.9001 4.79881 14.3478 5.25667C14.7954 5.70435 15.1312 6.13169 15.3347 6.5285C15.5382 6.92531 15.6501 7.29159 15.6501 7.63753C15.6705 8.30906 15.4364 8.87884 14.9582 9.35704C14.48 9.83525 13.9001 10.11 13.2184 10.2015L13.0454 9.28582C13.2285 9.27565 13.432 9.22477 13.6559 9.12303C13.8899 9.02128 14.0629 8.90936 14.1951 8.78727ZM12.6995 7.01688C12.9538 6.76251 13.0963 6.4878 13.1268 6.17238C13.1573 5.86715 13.0556 5.59243 12.8317 5.36859C12.6079 5.14475 12.3332 5.03283 12.0076 5.03283C11.682 5.03283 11.3971 5.15492 11.1529 5.39911C10.9087 5.64331 10.7765 5.91802 10.7663 6.22326C10.7561 6.5285 10.8579 6.79304 11.0817 7.01688C11.3055 7.24072 11.5701 7.36282 11.8753 7.37299C12.1704 7.39334 12.4451 7.27125 12.6995 7.01688Z" fill="#EF18A2"/>
<path d="M18.2654 4.70748C18.652 4.32084 18.8046 3.90368 18.7334 3.456C18.652 3.00832 18.3874 2.56063 17.9499 2.10277C17.9601 2.32661 17.9194 2.58098 17.8278 2.88622C17.7363 3.18128 17.5633 3.456 17.3293 3.69002C16.9325 4.08683 16.4746 4.28014 15.9455 4.29032C15.4165 4.29032 14.9382 4.07665 14.5007 3.64932C14.0632 3.21181 13.8597 2.72343 13.8903 2.174C13.9106 1.62457 14.1446 1.12601 14.5821 0.698674C15.2842 -0.00337504 16.088 -0.176344 16.9833 0.179768C17.4921 0.393435 17.9805 0.719024 18.4281 1.16671C18.8758 1.61439 19.2116 2.04173 19.4151 2.43854C19.6186 2.83535 19.7305 3.20163 19.7407 3.54757C19.761 4.21909 19.527 4.78887 19.0488 5.26708C18.5706 5.74529 17.9906 6.02 17.3089 6.11158L17.1258 5.19586C17.3089 5.18568 17.5124 5.13481 17.7363 5.03307C17.9703 4.94149 18.1433 4.82957 18.2654 4.70748ZM16.7697 2.93709C17.024 2.68273 17.1665 2.39784 17.197 2.0926C17.2275 1.78736 17.1258 1.51264 16.902 1.2888C16.6781 1.06496 16.4034 0.95304 16.0778 0.95304C15.7522 0.95304 15.4673 1.07514 15.2231 1.31933C14.9789 1.56352 14.8467 1.83823 14.8365 2.14347C14.8263 2.44871 14.9281 2.71325 15.1519 2.93709C15.3758 3.16094 15.6403 3.28303 15.9354 3.2932C16.2406 3.31355 16.5153 3.19146 16.7697 2.93709Z" fill="#EF18A2"/>
</svg>
