<svg width="26" height="29" viewBox="0 0 26 29" fill="none" xmlns="http://www.w3.org/2000/svg">
<path d="M12.3847 29C12.0175 28.8442 11.6143 28.8209 11.2394 28.6807C9.25948 27.9434 7.96779 26.5596 7.40027 24.5061C7.3258 24.2361 7.22308 24.1556 6.95602 24.1634C5.99303 24.192 5.03005 24.192 4.10815 23.8519C1.7636 22.99 0.41029 21.3077 0.0456396 18.8102C-0.0981661 17.8237 0.125246 16.8787 0.335819 15.9311C0.895634 13.4233 1.34246 10.8817 2.0281 8.41015C3.29411 3.83578 6.31146 1.01639 10.9338 0.177843C16.6038 -0.852818 21.9966 2.69349 23.5322 8.29592C24.2743 11.0011 25.0165 13.7062 25.7637 16.4088C26.7165 19.8565 24.7032 23.26 21.2467 24.0362C20.5944 24.1816 19.9319 24.1842 19.2694 24.1686C19.0922 24.1634 19.0203 24.2102 18.9689 24.3971C18.2473 26.962 16.5859 28.4834 13.9845 28.9455C13.946 28.9533 13.9126 28.9585 13.8972 29C13.3939 29 12.8906 29 12.3847 29ZM13.001 21.7464C15.3173 21.7464 17.6336 21.7464 19.9499 21.749C20.2401 21.749 20.5277 21.7257 20.8102 21.6582C22.8748 21.1727 24.0329 19.1425 23.4526 17.0371C22.7156 14.3605 21.9734 11.6839 21.2441 9.00206C20.0321 4.54452 15.8617 1.816 11.3498 2.53512C7.96779 3.07252 5.11736 5.68682 4.31872 9.05658C3.72039 11.5774 3.19653 14.1138 2.63414 16.6425C2.4852 17.3071 2.31828 17.9665 2.43898 18.6544C2.76254 20.5263 4.2006 21.7464 6.08548 21.749C8.38894 21.749 10.695 21.7464 13.001 21.7464ZM13.1679 24.1712C12.151 24.1712 11.1341 24.1712 10.1172 24.1712C9.81159 24.1712 9.79361 24.192 9.92458 24.4594C10.5948 25.812 11.6708 26.5648 13.173 26.5648C14.6753 26.5648 15.7513 25.8094 16.4189 24.4568C16.5499 24.192 16.5294 24.1738 16.2212 24.1738C15.2017 24.1712 14.1848 24.1712 13.1679 24.1712Z" fill="black"/>
</svg>
