<svg width="22" height="26" viewBox="0 0 22 26" fill="none" xmlns="http://www.w3.org/2000/svg">
<path d="M4.81182 0C6.94233 0 9.07285 0 11.2028 0C11.24 0.0670574 11.3077 0.0436889 11.3635 0.0502931C13.0446 0.254005 14.5221 0.906292 15.7367 2.06862C17.1475 3.41841 18.5434 4.78445 19.9057 6.18148C21.2169 7.52567 21.9443 9.15995 21.9691 11.0259C22.012 14.2578 22.0068 17.4903 21.9758 20.7223C21.952 23.1882 20.1744 25.2974 17.7411 25.8572C17.5376 25.904 17.319 25.8933 17.13 25.9995C13.041 25.9995 8.95196 25.9995 4.86296 25.9995C4.69765 25.9004 4.50392 25.9162 4.32414 25.875C1.77465 25.2923 0.0346915 23.1755 0.00834415 20.5968C-0.00560442 19.244 0.00472785 17.8906 0.00524447 16.5373C0.0062777 12.7821 -0.012837 9.02685 0.0160934 5.27163C0.0352081 2.8159 1.82114 0.698515 4.25233 0.140719C4.43986 0.0985541 4.64237 0.110746 4.81182 0ZM2.1962 12.9822C2.1962 15.4872 2.19259 17.9917 2.19724 20.4967C2.20085 22.4084 3.62826 23.8242 5.55988 23.8272C9.18444 23.8328 12.809 23.8283 16.4336 23.8293C16.788 23.8293 17.1351 23.7902 17.474 23.6855C18.8808 23.2496 19.7936 22.0045 19.7957 20.4957C19.7998 17.4918 19.7972 14.4875 19.7957 11.4836C19.7957 11.3571 19.7637 11.2296 19.773 11.1046C19.7916 10.8552 19.6603 10.8242 19.4465 10.8252C17.7545 10.8323 16.0626 10.8333 14.3702 10.8277C12.4179 10.8216 10.9972 9.4109 10.9962 7.48554C10.9952 5.89445 10.9962 4.30387 10.9962 2.71278C10.9962 2.18343 10.9962 2.17479 10.4641 2.17327C8.78923 2.16921 7.11437 2.17225 5.43951 2.17225C5.12799 2.17225 4.82422 2.22001 4.52717 2.31094C3.12508 2.7392 2.20085 3.98128 2.19724 5.46823C2.19207 7.97272 2.1962 10.4777 2.1962 12.9822ZM13.2011 5.3778C13.2011 6.10528 13.1954 6.83224 13.2027 7.55971C13.2094 8.19879 13.649 8.65955 14.2963 8.66565C15.8069 8.67988 17.3175 8.66921 18.8281 8.67276C19.0048 8.67327 19.0166 8.61993 18.9319 8.48429C18.6881 8.09312 18.3972 7.73904 18.0686 7.41493C16.8618 6.22466 15.654 5.03439 14.4461 3.84463C14.1537 3.55658 13.8365 3.29852 13.4863 3.0821C13.4088 3.03435 13.3272 2.93122 13.2435 2.96882C13.1494 3.01098 13.2032 3.13544 13.2027 3.22181C13.1985 3.94013 13.2006 4.65897 13.2011 5.3778Z" fill="black"/>
</svg>
