<svg width="95" height="112" viewBox="0 0 95 112" fill="none" xmlns="http://www.w3.org/2000/svg">
<path d="M47.5 112C89.7157 87.4889 95.1854 46.9867 94.9953 26.5048C94.0873 26.9035 93.0313 27.1343 91.8487 27.1343C86.3579 27.1343 83.9504 22.4126 84.584 18.2365C81.0361 18.908 76.3478 19.0969 70.2445 18.0686C56.4542 15.7602 47.7534 0.293798 47.5 0C47.2466 0.293798 38.5458 15.7392 24.7554 18.0686C18.6522 19.0969 13.9639 18.908 10.416 18.2365C11.0707 22.4126 8.6421 27.1343 3.15131 27.1343C1.94756 27.1343 0.912742 26.9035 0.00464926 26.5048C-0.185417 47.0077 5.28427 87.4889 47.5 112Z" fill="#FE0F00"/>
</svg>
